G04 #@! TF.FileFunction,Soldermask,Top*
%FSLAX46Y46*%
G04 Gerber Fmt 4.6, Leading zero omitted, Abs format (unit mm)*
G04 Created by KiCad (PCBNEW 4.0.4-stable) date Monday, 07 November 2016 'AMt' 01:36:31*
%MOMM*%
%LPD*%
G01*
G04 APERTURE LIST*
%ADD10C,0.100000*%
%ADD11C,1.000000*%
%ADD12C,2.000000*%
%ADD13R,1.150000X1.450000*%
%ADD14R,1.450000X1.150000*%
%ADD15R,0.800000X1.700000*%
%ADD16R,1.000000X0.600000*%
%ADD17C,0.787000*%
%ADD18C,1.000000*%
%ADD19R,1.350000X0.450000*%
%ADD20R,0.600000X1.000000*%
%ADD21R,1.100000X0.600000*%
G04 APERTURE END LIST*
D10*
G36*
X108047335Y-119392274D02*
X109294572Y-118875652D01*
X109447645Y-119245204D01*
X108200408Y-119761826D01*
X108047335Y-119392274D01*
X108047335Y-119392274D01*
G37*
G36*
X108296078Y-119992797D02*
X109543315Y-119476175D01*
X109696388Y-119845727D01*
X108449151Y-120362349D01*
X108296078Y-119992797D01*
X108296078Y-119992797D01*
G37*
G36*
X107798590Y-118791753D02*
X109045827Y-118275131D01*
X109198900Y-118644683D01*
X107951663Y-119161305D01*
X107798590Y-118791753D01*
X107798590Y-118791753D01*
G37*
G36*
X107549845Y-118191231D02*
X108797082Y-117674609D01*
X108950155Y-118044161D01*
X107702918Y-118560783D01*
X107549845Y-118191231D01*
X107549845Y-118191231D01*
G37*
G36*
X108544822Y-120593318D02*
X109792059Y-120076696D01*
X109945132Y-120446248D01*
X108697895Y-120962870D01*
X108544822Y-120593318D01*
X108544822Y-120593318D01*
G37*
D11*
X110014705Y-121202165D02*
X109783735Y-121297835D01*
X108311764Y-117090902D02*
X108080794Y-117186572D01*
D10*
G36*
X105494096Y-120936937D02*
X107249467Y-120209838D01*
X107938298Y-121872821D01*
X106182927Y-122599920D01*
X105494096Y-120936937D01*
X105494096Y-120936937D01*
G37*
G36*
X104613924Y-118812015D02*
X106369295Y-118084916D01*
X107058126Y-119747899D01*
X105302755Y-120474998D01*
X104613924Y-118812015D01*
X104613924Y-118812015D01*
G37*
G36*
X106393402Y-123108054D02*
X108148773Y-122380956D01*
X108751500Y-123836066D01*
X106996129Y-124563164D01*
X106393402Y-123108054D01*
X106393402Y-123108054D01*
G37*
D11*
X108289560Y-124027407D02*
X107458068Y-124371823D01*
D10*
G36*
X103800722Y-116848770D02*
X105556093Y-116121672D01*
X106158820Y-117576782D01*
X104403449Y-118303880D01*
X103800722Y-116848770D01*
X103800722Y-116848770D01*
G37*
D11*
X105094154Y-116313013D02*
X104262662Y-116657429D01*
D12*
X130000000Y-132350000D03*
X130000000Y-87650000D03*
X143250000Y-107250000D03*
X143250000Y-111750000D03*
X149750000Y-111750000D03*
X149750000Y-107250000D03*
D13*
X118800000Y-107300000D03*
X120600000Y-107300000D03*
D14*
X119300000Y-111100000D03*
X119300000Y-109300000D03*
D13*
X145800000Y-113925000D03*
X147600000Y-113925000D03*
X128750000Y-99775000D03*
X126950000Y-99775000D03*
D14*
X132400000Y-106650000D03*
X132400000Y-104850000D03*
X126400000Y-106650000D03*
X126400000Y-104850000D03*
D13*
X128850000Y-94075000D03*
X130650000Y-94075000D03*
D14*
X135700000Y-114925000D03*
X135700000Y-113125000D03*
X122600000Y-112425000D03*
X122600000Y-110625000D03*
X124600000Y-110625000D03*
X124600000Y-112425000D03*
D15*
X129300000Y-91975000D03*
X127800000Y-91975000D03*
D16*
X130550000Y-106700000D03*
X130550000Y-104800000D03*
X128250000Y-105750000D03*
D17*
X112649426Y-125154523D03*
X113547452Y-124256497D03*
X113547452Y-126052548D03*
X114445477Y-125154523D03*
X114445477Y-126950574D03*
X115343503Y-126052548D03*
D18*
X112200413Y-123807484D03*
X115074095Y-128118007D03*
X116510936Y-126681166D03*
D19*
X133075000Y-115450000D03*
X133075000Y-114800000D03*
X133075000Y-114150000D03*
X133075000Y-113500000D03*
X133075000Y-112850000D03*
X133075000Y-112200000D03*
X133075000Y-111550000D03*
X133075000Y-110900000D03*
X133075000Y-110250000D03*
X133075000Y-109600000D03*
X127325000Y-109600000D03*
X127325000Y-110250000D03*
X127325000Y-110900000D03*
X127325000Y-111550000D03*
X127325000Y-112200000D03*
X127325000Y-112850000D03*
X127325000Y-113500000D03*
X127325000Y-114150000D03*
X127325000Y-114800000D03*
X127325000Y-115450000D03*
D10*
G36*
X95969670Y-78055635D02*
X94944365Y-77030330D01*
X95757538Y-76217157D01*
X96782843Y-77242462D01*
X95969670Y-78055635D01*
X95969670Y-78055635D01*
G37*
G36*
X97242462Y-76782843D02*
X96217157Y-75757538D01*
X97030330Y-74944365D01*
X98055635Y-75969670D01*
X97242462Y-76782843D01*
X97242462Y-76782843D01*
G37*
G36*
X164030330Y-141944365D02*
X165055635Y-142969670D01*
X164242462Y-143782843D01*
X163217157Y-142757538D01*
X164030330Y-141944365D01*
X164030330Y-141944365D01*
G37*
G36*
X162757538Y-143217157D02*
X163782843Y-144242462D01*
X162969670Y-145055635D01*
X161944365Y-144030330D01*
X162757538Y-143217157D01*
X162757538Y-143217157D01*
G37*
D13*
X130900000Y-156000000D03*
X129100000Y-156000000D03*
D14*
X176000000Y-109100000D03*
X176000000Y-110900000D03*
D10*
G36*
X98055635Y-144030330D02*
X97030330Y-145055635D01*
X96217157Y-144242462D01*
X97242462Y-143217157D01*
X98055635Y-144030330D01*
X98055635Y-144030330D01*
G37*
G36*
X96782843Y-142757538D02*
X95757538Y-143782843D01*
X94944365Y-142969670D01*
X95969670Y-141944365D01*
X96782843Y-142757538D01*
X96782843Y-142757538D01*
G37*
G36*
X161944365Y-75833274D02*
X162969670Y-74807969D01*
X163782843Y-75621142D01*
X162757538Y-76646447D01*
X161944365Y-75833274D01*
X161944365Y-75833274D01*
G37*
G36*
X163217157Y-77106066D02*
X164242462Y-76080761D01*
X165055635Y-76893934D01*
X164030330Y-77919239D01*
X163217157Y-77106066D01*
X163217157Y-77106066D01*
G37*
D14*
X84000000Y-110900000D03*
X84000000Y-109100000D03*
D13*
X129000000Y-64000000D03*
X130800000Y-64000000D03*
D10*
G36*
X103126345Y-80792894D02*
X103550609Y-81217158D01*
X102843503Y-81924264D01*
X102419239Y-81500000D01*
X103126345Y-80792894D01*
X103126345Y-80792894D01*
G37*
G36*
X101782842Y-79449391D02*
X102207106Y-79873655D01*
X101500000Y-80580761D01*
X101075736Y-80156497D01*
X101782842Y-79449391D01*
X101782842Y-79449391D01*
G37*
G36*
X100828248Y-81747488D02*
X101252512Y-82171752D01*
X100545406Y-82878858D01*
X100121142Y-82454594D01*
X100828248Y-81747488D01*
X100828248Y-81747488D01*
G37*
G36*
X156873655Y-139207106D02*
X156449391Y-138782842D01*
X157156497Y-138075736D01*
X157580761Y-138500000D01*
X156873655Y-139207106D01*
X156873655Y-139207106D01*
G37*
G36*
X158217158Y-140550609D02*
X157792894Y-140126345D01*
X158500000Y-139419239D01*
X158924264Y-139843503D01*
X158217158Y-140550609D01*
X158217158Y-140550609D01*
G37*
G36*
X159171752Y-138252512D02*
X158747488Y-137828248D01*
X159454594Y-137121142D01*
X159878858Y-137545406D01*
X159171752Y-138252512D01*
X159171752Y-138252512D01*
G37*
D16*
X128850000Y-148050000D03*
X128850000Y-149950000D03*
X131150000Y-149000000D03*
D20*
X168050000Y-111150000D03*
X169950000Y-111150000D03*
X169000000Y-108850000D03*
D10*
G36*
X100792894Y-136873655D02*
X101217158Y-136449391D01*
X101924264Y-137156497D01*
X101500000Y-137580761D01*
X100792894Y-136873655D01*
X100792894Y-136873655D01*
G37*
G36*
X99449391Y-138217158D02*
X99873655Y-137792894D01*
X100580761Y-138500000D01*
X100156497Y-138924264D01*
X99449391Y-138217158D01*
X99449391Y-138217158D01*
G37*
G36*
X101747488Y-139171752D02*
X102171752Y-138747488D01*
X102878858Y-139454594D01*
X102454594Y-139878858D01*
X101747488Y-139171752D01*
X101747488Y-139171752D01*
G37*
G36*
X159207106Y-83126345D02*
X158782842Y-83550609D01*
X158075736Y-82843503D01*
X158500000Y-82419239D01*
X159207106Y-83126345D01*
X159207106Y-83126345D01*
G37*
G36*
X160550609Y-81782842D02*
X160126345Y-82207106D01*
X159419239Y-81500000D01*
X159843503Y-81075736D01*
X160550609Y-81782842D01*
X160550609Y-81782842D01*
G37*
G36*
X158252512Y-80828248D02*
X157828248Y-81252512D01*
X157121142Y-80545406D01*
X157545406Y-80121142D01*
X158252512Y-80828248D01*
X158252512Y-80828248D01*
G37*
D20*
X91950000Y-108850000D03*
X90050000Y-108850000D03*
X91000000Y-111150000D03*
D16*
X131150000Y-71950000D03*
X131150000Y-70050000D03*
X128850000Y-71000000D03*
D10*
G36*
X97469670Y-79555635D02*
X96444365Y-78530330D01*
X97257538Y-77717157D01*
X98282843Y-78742462D01*
X97469670Y-79555635D01*
X97469670Y-79555635D01*
G37*
G36*
X98742462Y-78282843D02*
X97717157Y-77257538D01*
X98530330Y-76444365D01*
X99555635Y-77469670D01*
X98742462Y-78282843D01*
X98742462Y-78282843D01*
G37*
G36*
X98969670Y-81055635D02*
X97944365Y-80030330D01*
X98757538Y-79217157D01*
X99782843Y-80242462D01*
X98969670Y-81055635D01*
X98969670Y-81055635D01*
G37*
G36*
X100242462Y-79782843D02*
X99217157Y-78757538D01*
X100030330Y-77944365D01*
X101055635Y-78969670D01*
X100242462Y-79782843D01*
X100242462Y-79782843D01*
G37*
G36*
X99555635Y-142530330D02*
X98530330Y-143555635D01*
X97717157Y-142742462D01*
X98742462Y-141717157D01*
X99555635Y-142530330D01*
X99555635Y-142530330D01*
G37*
G36*
X98282843Y-141257538D02*
X97257538Y-142282843D01*
X96444365Y-141469670D01*
X97469670Y-140444365D01*
X98282843Y-141257538D01*
X98282843Y-141257538D01*
G37*
G36*
X100919239Y-141030330D02*
X99893934Y-142055635D01*
X99080761Y-141242462D01*
X100106066Y-140217157D01*
X100919239Y-141030330D01*
X100919239Y-141030330D01*
G37*
G36*
X99646447Y-139757538D02*
X98621142Y-140782843D01*
X97807969Y-139969670D01*
X98833274Y-138944365D01*
X99646447Y-139757538D01*
X99646447Y-139757538D01*
G37*
G36*
X162530330Y-140444365D02*
X163555635Y-141469670D01*
X162742462Y-142282843D01*
X161717157Y-141257538D01*
X162530330Y-140444365D01*
X162530330Y-140444365D01*
G37*
G36*
X161257538Y-141717157D02*
X162282843Y-142742462D01*
X161469670Y-143555635D01*
X160444365Y-142530330D01*
X161257538Y-141717157D01*
X161257538Y-141717157D01*
G37*
G36*
X161030330Y-138944365D02*
X162055635Y-139969670D01*
X161242462Y-140782843D01*
X160217157Y-139757538D01*
X161030330Y-138944365D01*
X161030330Y-138944365D01*
G37*
G36*
X159757538Y-140217157D02*
X160782843Y-141242462D01*
X159969670Y-142055635D01*
X158944365Y-141030330D01*
X159757538Y-140217157D01*
X159757538Y-140217157D01*
G37*
G36*
X160444365Y-77469670D02*
X161469670Y-76444365D01*
X162282843Y-77257538D01*
X161257538Y-78282843D01*
X160444365Y-77469670D01*
X160444365Y-77469670D01*
G37*
G36*
X161717157Y-78742462D02*
X162742462Y-77717157D01*
X163555635Y-78530330D01*
X162530330Y-79555635D01*
X161717157Y-78742462D01*
X161717157Y-78742462D01*
G37*
G36*
X158944365Y-78969670D02*
X159969670Y-77944365D01*
X160782843Y-78757538D01*
X159757538Y-79782843D01*
X158944365Y-78969670D01*
X158944365Y-78969670D01*
G37*
G36*
X160217157Y-80242462D02*
X161242462Y-79217157D01*
X162055635Y-80030330D01*
X161030330Y-81055635D01*
X160217157Y-80242462D01*
X160217157Y-80242462D01*
G37*
D13*
X130450000Y-99775000D03*
X132250000Y-99775000D03*
D14*
X132950000Y-97875000D03*
X132950000Y-96075000D03*
D13*
X130900000Y-154000000D03*
X129100000Y-154000000D03*
X130900000Y-152000000D03*
X129100000Y-152000000D03*
D14*
X86000000Y-110900000D03*
X86000000Y-109100000D03*
X88000000Y-110900000D03*
X88000000Y-109100000D03*
X174000000Y-109100000D03*
X174000000Y-110900000D03*
X172000000Y-109100000D03*
X172000000Y-110900000D03*
D12*
X132550000Y-77100000D03*
X132550000Y-80300000D03*
X132550000Y-83500000D03*
X127550000Y-77100000D03*
X127550000Y-80300000D03*
X127550000Y-83500000D03*
D21*
X128450000Y-96025000D03*
X128450000Y-96975000D03*
X128450000Y-97925000D03*
X131050000Y-97925000D03*
X131050000Y-96975000D03*
X131050000Y-96025000D03*
D13*
X129000000Y-66000000D03*
X130800000Y-66000000D03*
X129000000Y-68000000D03*
X130800000Y-68000000D03*
D10*
G36*
X104030330Y-81944365D02*
X105055635Y-82969670D01*
X104242462Y-83782843D01*
X103217157Y-82757538D01*
X104030330Y-81944365D01*
X104030330Y-81944365D01*
G37*
G36*
X102757538Y-83217157D02*
X103782843Y-84242462D01*
X102969670Y-85055635D01*
X101944365Y-84030330D01*
X102757538Y-83217157D01*
X102757538Y-83217157D01*
G37*
G36*
X101844365Y-135969670D02*
X102869670Y-134944365D01*
X103682843Y-135757538D01*
X102657538Y-136782843D01*
X101844365Y-135969670D01*
X101844365Y-135969670D01*
G37*
G36*
X103117157Y-137242462D02*
X104142462Y-136217157D01*
X104955635Y-137030330D01*
X103930330Y-138055635D01*
X103117157Y-137242462D01*
X103117157Y-137242462D01*
G37*
G36*
X155969670Y-138155635D02*
X154944365Y-137130330D01*
X155757538Y-136317157D01*
X156782843Y-137342462D01*
X155969670Y-138155635D01*
X155969670Y-138155635D01*
G37*
G36*
X157242462Y-136882843D02*
X156217157Y-135857538D01*
X157030330Y-135044365D01*
X158055635Y-136069670D01*
X157242462Y-136882843D01*
X157242462Y-136882843D01*
G37*
G36*
X157919239Y-83893934D02*
X156893934Y-84919239D01*
X156080761Y-84106066D01*
X157106066Y-83080761D01*
X157919239Y-83893934D01*
X157919239Y-83893934D01*
G37*
G36*
X156646447Y-82621142D02*
X155621142Y-83646447D01*
X154807969Y-82833274D01*
X155833274Y-81807969D01*
X156646447Y-82621142D01*
X156646447Y-82621142D01*
G37*
D13*
X129100000Y-146200000D03*
X130900000Y-146200000D03*
D14*
X93800000Y-109100000D03*
X93800000Y-110900000D03*
X166200000Y-111000000D03*
X166200000Y-109200000D03*
D10*
G36*
X133379670Y-72645635D02*
X132354365Y-71620330D01*
X133167538Y-70807157D01*
X134192843Y-71832462D01*
X133379670Y-72645635D01*
X133379670Y-72645635D01*
G37*
G36*
X134652462Y-71372843D02*
X133627157Y-70347538D01*
X134440330Y-69534365D01*
X135465635Y-70559670D01*
X134652462Y-71372843D01*
X134652462Y-71372843D01*
G37*
M02*
