M48
;DRILL file {KiCad 4.0.4-stable} date Monday, 07 November 2016 'AMt' 01:36:34
;FORMAT={-:-/ absolute / inch / decimal}
FMAT,2
INCH,TZ
T1C0.012
T2C0.024
T3C0.026
T4C0.039
T5C0.043
T6C0.039
%
G90
G05
M72
T1
X3.3071Y-4.3661
X3.4646Y-4.2953
X3.5346Y-4.3689
X3.5618Y-4.1925
X3.7547Y-4.3673
X3.7742Y-3.0369
X3.8243Y-5.6747
X3.8869Y-5.5064
X3.9299Y-5.3988
X3.9421Y-3.1843
X3.9424Y-3.1049
X3.9736Y-5.5047
X4.0508Y-3.135
X4.3504Y-4.7165
X4.378Y-4.7205
X4.378Y-4.748
X4.4764Y-5.0276
X4.4961Y-5.122
X4.5866Y-5.0472
X4.5945Y-4.4843
X4.6772Y-4.2244
X4.7677Y-4.1299
X4.815Y-4.0787
X4.8268Y-4.3041
X4.8307Y-4.1693
X4.8819Y-4.2205
X4.9016Y-4.5787
X4.9055Y-4.3041
X4.9567Y-5.2087
X4.9626Y-4.2992
X4.9685Y-5.3189
X4.9695Y-3.4104
X4.9754Y-4.0778
X4.9774Y-3.8445
X4.999Y-3.3878
X4.999Y-3.876
X5.0108Y-3.4232
X5.0226Y-3.3632
X5.0669Y-4.2992
X5.0717Y-2.7547
X5.0787Y-2.5197
X5.0827Y-5.9843
X5.1004Y-3.753
X5.1112Y-3.7894
X5.1496Y-2.6772
X5.1535Y-6.1417
X5.1567Y-5.915
X5.185Y-4.3661
X5.213Y-5.7563
X5.2352Y-3.7362
X5.2677Y-4.1988
X5.2992Y-4.3937
X5.3031Y-4.0433
X5.3071Y-4.2874
X5.3319Y-2.7394
X5.3701Y-4.0984
X5.378Y-4.3976
X5.4006Y-4.5246
X5.4724Y-4.5787
X5.5354Y-4.5354
X5.7126Y-4.9606
X5.752Y-4.4242
X5.7874Y-5.0433
X6.0236Y-4.374
X6.1024Y-4.378
X6.1858Y-5.5232
X6.2358Y-3.1476
X6.2799Y-5.4677
X6.2938Y-5.5566
X6.302Y-3.2685
X6.344Y-3.155
X6.412Y-2.9814
X6.4621Y-5.6246
X6.6453Y-4.4283
X6.6933Y-4.2732
X6.7717Y-4.3661
X6.9291Y-4.2953
T4
X5.1181Y-3.4508
X5.1181Y-5.2106
X5.6398Y-4.2224
X5.6398Y-4.3996
X5.8957Y-4.2224
X5.8957Y-4.3996
T5
X5.0217Y-3.0354
X5.0217Y-3.1614
X5.0217Y-3.2874
X5.2185Y-3.0354
X5.2185Y-3.1614
X5.2185Y-3.2874
T6
X4.4173Y-4.8743
X4.5305Y-5.044
X4.587Y-4.9874
T2
X4.1339Y-4.5808G85X4.1085Y-4.5913
G05
X4.2597Y-4.8845G85X4.2343Y-4.895
G05
T3
X4.2633Y-4.6103G85X4.2561Y-4.6133
G05
X4.3304Y-4.7721G85X4.3231Y-4.7751
G05
T0
M30
