G04 #@! TF.FileFunction,Legend,Bot*
%FSLAX46Y46*%
G04 Gerber Fmt 4.6, Leading zero omitted, Abs format (unit mm)*
G04 Created by KiCad (PCBNEW 4.0.4-stable) date Monday, 07 November 2016 'AMt' 01:36:31*
%MOMM*%
%LPD*%
G01*
G04 APERTURE LIST*
%ADD10C,0.100000*%
%ADD11C,0.300000*%
%ADD12C,0.200000*%
%ADD13C,0.150000*%
%ADD14C,1.000000*%
%ADD15C,2.000000*%
%ADD16C,1.000000*%
%ADD17R,1.150000X1.450000*%
%ADD18R,1.450000X1.150000*%
G04 APERTURE END LIST*
D10*
D11*
X111695713Y-110311429D02*
X111624284Y-110240000D01*
X111481427Y-110168571D01*
X111124284Y-110168571D01*
X110981427Y-110240000D01*
X110909998Y-110311429D01*
X110838570Y-110454286D01*
X110838570Y-110597143D01*
X110909998Y-110811429D01*
X111767141Y-111668571D01*
X110838570Y-111668571D01*
X109909999Y-110168571D02*
X109767142Y-110168571D01*
X109624285Y-110240000D01*
X109552856Y-110311429D01*
X109481427Y-110454286D01*
X109409999Y-110740000D01*
X109409999Y-111097143D01*
X109481427Y-111382857D01*
X109552856Y-111525714D01*
X109624285Y-111597143D01*
X109767142Y-111668571D01*
X109909999Y-111668571D01*
X110052856Y-111597143D01*
X110124285Y-111525714D01*
X110195713Y-111382857D01*
X110267142Y-111097143D01*
X110267142Y-110740000D01*
X110195713Y-110454286D01*
X110124285Y-110311429D01*
X110052856Y-110240000D01*
X109909999Y-110168571D01*
X107981428Y-111668571D02*
X108838571Y-111668571D01*
X108409999Y-111668571D02*
X108409999Y-110168571D01*
X108552856Y-110382857D01*
X108695714Y-110525714D01*
X108838571Y-110597143D01*
X106695714Y-110168571D02*
X106981428Y-110168571D01*
X107124285Y-110240000D01*
X107195714Y-110311429D01*
X107338571Y-110525714D01*
X107410000Y-110811429D01*
X107410000Y-111382857D01*
X107338571Y-111525714D01*
X107267143Y-111597143D01*
X107124285Y-111668571D01*
X106838571Y-111668571D01*
X106695714Y-111597143D01*
X106624285Y-111525714D01*
X106552857Y-111382857D01*
X106552857Y-111025714D01*
X106624285Y-110882857D01*
X106695714Y-110811429D01*
X106838571Y-110740000D01*
X107124285Y-110740000D01*
X107267143Y-110811429D01*
X107338571Y-110882857D01*
X107410000Y-111025714D01*
X105910000Y-111097143D02*
X104767143Y-111097143D01*
X103267143Y-111668571D02*
X104124286Y-111668571D01*
X103695714Y-111668571D02*
X103695714Y-110168571D01*
X103838571Y-110382857D01*
X103981429Y-110525714D01*
X104124286Y-110597143D01*
X101838572Y-111668571D02*
X102695715Y-111668571D01*
X102267143Y-111668571D02*
X102267143Y-110168571D01*
X102410000Y-110382857D01*
X102552858Y-110525714D01*
X102695715Y-110597143D01*
X101195715Y-111097143D02*
X100052858Y-111097143D01*
X99052858Y-110168571D02*
X98910001Y-110168571D01*
X98767144Y-110240000D01*
X98695715Y-110311429D01*
X98624286Y-110454286D01*
X98552858Y-110740000D01*
X98552858Y-111097143D01*
X98624286Y-111382857D01*
X98695715Y-111525714D01*
X98767144Y-111597143D01*
X98910001Y-111668571D01*
X99052858Y-111668571D01*
X99195715Y-111597143D01*
X99267144Y-111525714D01*
X99338572Y-111382857D01*
X99410001Y-111097143D01*
X99410001Y-110740000D01*
X99338572Y-110454286D01*
X99267144Y-110311429D01*
X99195715Y-110240000D01*
X99052858Y-110168571D01*
X98052858Y-110168571D02*
X97052858Y-110168571D01*
X97695715Y-111668571D01*
X114818096Y-109014762D02*
X114818096Y-107014762D01*
X114341905Y-107014762D01*
X114056191Y-107110000D01*
X113865715Y-107300476D01*
X113770476Y-107490952D01*
X113675238Y-107871905D01*
X113675238Y-108157619D01*
X113770476Y-108538571D01*
X113865715Y-108729048D01*
X114056191Y-108919524D01*
X114341905Y-109014762D01*
X114818096Y-109014762D01*
X112913334Y-108443333D02*
X111960953Y-108443333D01*
X113103810Y-109014762D02*
X112437143Y-107014762D01*
X111770476Y-109014762D01*
X111389524Y-107014762D02*
X110722857Y-109014762D01*
X110056190Y-107014762D01*
X109389524Y-109014762D02*
X109389524Y-107014762D01*
X108437143Y-109014762D02*
X108437143Y-107014762D01*
X107960952Y-107014762D01*
X107675238Y-107110000D01*
X107484762Y-107300476D01*
X107389523Y-107490952D01*
X107294285Y-107871905D01*
X107294285Y-108157619D01*
X107389523Y-108538571D01*
X107484762Y-108729048D01*
X107675238Y-108919524D01*
X107960952Y-109014762D01*
X108437143Y-109014762D01*
X105199047Y-107014762D02*
X104056190Y-107014762D01*
X104627618Y-109014762D02*
X104627618Y-107014762D01*
X103389523Y-107014762D02*
X103389523Y-108633810D01*
X103294284Y-108824286D01*
X103199046Y-108919524D01*
X103008570Y-109014762D01*
X102627618Y-109014762D01*
X102437142Y-108919524D01*
X102341903Y-108824286D01*
X102246665Y-108633810D01*
X102246665Y-107014762D01*
X100151427Y-109014762D02*
X100818094Y-108062381D01*
X101294285Y-109014762D02*
X101294285Y-107014762D01*
X100532380Y-107014762D01*
X100341904Y-107110000D01*
X100246665Y-107205238D01*
X100151427Y-107395714D01*
X100151427Y-107681429D01*
X100246665Y-107871905D01*
X100341904Y-107967143D01*
X100532380Y-108062381D01*
X101294285Y-108062381D01*
X99294285Y-109014762D02*
X99294285Y-107014762D01*
X98151427Y-109014762D01*
X98151427Y-107014762D01*
X97199047Y-107967143D02*
X96532380Y-107967143D01*
X96246666Y-109014762D02*
X97199047Y-109014762D01*
X97199047Y-107014762D01*
X96246666Y-107014762D01*
X94246665Y-109014762D02*
X94913332Y-108062381D01*
X95389523Y-109014762D02*
X95389523Y-107014762D01*
X94627618Y-107014762D01*
X94437142Y-107110000D01*
X94341903Y-107205238D01*
X94246665Y-107395714D01*
X94246665Y-107681429D01*
X94341903Y-107871905D01*
X94437142Y-107967143D01*
X94627618Y-108062381D01*
X95389523Y-108062381D01*
D12*
X136400000Y-134900000D02*
X136400000Y-85100000D01*
X136400000Y-85100000D02*
X123600000Y-85100000D01*
X123600000Y-85100000D02*
X123600000Y-134900000D01*
X123600000Y-134900000D02*
X136400000Y-134900000D01*
X130000000Y-130000000D02*
X130000000Y-127000000D01*
X130000000Y-90000000D02*
X130000000Y-93000000D01*
X131500000Y-91500000D02*
X128500000Y-91500000D01*
D13*
X96411612Y-76588388D02*
X96977297Y-76800520D01*
X96411612Y-76588388D02*
X96199480Y-76022703D01*
X96977297Y-76800520D02*
X96199480Y-76022703D01*
X163588388Y-143411612D02*
X163022703Y-143199480D01*
X163588388Y-143411612D02*
X163800520Y-143977297D01*
X163022703Y-143199480D02*
X163800520Y-143977297D01*
X130125000Y-156000000D02*
X129875000Y-155450000D01*
X130125000Y-156000000D02*
X129875000Y-156550000D01*
X129875000Y-155450000D02*
X129875000Y-156550000D01*
X176000000Y-109875000D02*
X175450000Y-110125000D01*
X176000000Y-109875000D02*
X176550000Y-110125000D01*
X175450000Y-110125000D02*
X176550000Y-110125000D01*
X96588388Y-143588388D02*
X96800520Y-143022703D01*
X96588388Y-143588388D02*
X96022703Y-143800520D01*
X96800520Y-143022703D02*
X96022703Y-143800520D01*
X163411612Y-76275216D02*
X163199480Y-76840901D01*
X163411612Y-76275216D02*
X163977297Y-76063084D01*
X163199480Y-76840901D02*
X163977297Y-76063084D01*
X84000000Y-110125000D02*
X84550000Y-109875000D01*
X84000000Y-110125000D02*
X83450000Y-109875000D01*
X84550000Y-109875000D02*
X83450000Y-109875000D01*
X129775000Y-64000000D02*
X130025000Y-64550000D01*
X129775000Y-64000000D02*
X130025000Y-63450000D01*
X130025000Y-64550000D02*
X130025000Y-63450000D01*
%LPC*%
D14*
X110014705Y-121202165D02*
X109783735Y-121297835D01*
X108311764Y-117090902D02*
X108080794Y-117186572D01*
X108289560Y-124027407D02*
X107458068Y-124371823D01*
X105094154Y-116313013D02*
X104262662Y-116657429D01*
D15*
X130000000Y-132350000D03*
X130000000Y-87650000D03*
X143250000Y-107250000D03*
X143250000Y-111750000D03*
X149750000Y-111750000D03*
X149750000Y-107250000D03*
D16*
X112200413Y-123807484D03*
X115074095Y-128118007D03*
X116510936Y-126681166D03*
D10*
G36*
X95969670Y-78055635D02*
X94944365Y-77030330D01*
X95757538Y-76217157D01*
X96782843Y-77242462D01*
X95969670Y-78055635D01*
X95969670Y-78055635D01*
G37*
G36*
X97242462Y-76782843D02*
X96217157Y-75757538D01*
X97030330Y-74944365D01*
X98055635Y-75969670D01*
X97242462Y-76782843D01*
X97242462Y-76782843D01*
G37*
G36*
X164030330Y-141944365D02*
X165055635Y-142969670D01*
X164242462Y-143782843D01*
X163217157Y-142757538D01*
X164030330Y-141944365D01*
X164030330Y-141944365D01*
G37*
G36*
X162757538Y-143217157D02*
X163782843Y-144242462D01*
X162969670Y-145055635D01*
X161944365Y-144030330D01*
X162757538Y-143217157D01*
X162757538Y-143217157D01*
G37*
D17*
X130900000Y-156000000D03*
X129100000Y-156000000D03*
D18*
X176000000Y-109100000D03*
X176000000Y-110900000D03*
D10*
G36*
X98055635Y-144030330D02*
X97030330Y-145055635D01*
X96217157Y-144242462D01*
X97242462Y-143217157D01*
X98055635Y-144030330D01*
X98055635Y-144030330D01*
G37*
G36*
X96782843Y-142757538D02*
X95757538Y-143782843D01*
X94944365Y-142969670D01*
X95969670Y-141944365D01*
X96782843Y-142757538D01*
X96782843Y-142757538D01*
G37*
G36*
X161944365Y-75833274D02*
X162969670Y-74807969D01*
X163782843Y-75621142D01*
X162757538Y-76646447D01*
X161944365Y-75833274D01*
X161944365Y-75833274D01*
G37*
G36*
X163217157Y-77106066D02*
X164242462Y-76080761D01*
X165055635Y-76893934D01*
X164030330Y-77919239D01*
X163217157Y-77106066D01*
X163217157Y-77106066D01*
G37*
D18*
X84000000Y-110900000D03*
X84000000Y-109100000D03*
D17*
X129000000Y-64000000D03*
X130800000Y-64000000D03*
D15*
X132550000Y-77100000D03*
X132550000Y-80300000D03*
X132550000Y-83500000D03*
X127550000Y-77100000D03*
X127550000Y-80300000D03*
X127550000Y-83500000D03*
M02*
