  0
SECTION
  2
HEADER
  9
$ANGBASE
  50
0.0
  9
$ANGDIR
  70
  1
  9
$MEASUREMENT
  70
0
  0
ENDSEC
  0
SECTION
  2
TABLES
  0
TABLE
  2
LTYPE
  70
1
  0
LTYPE
  2
CONTINUOUS
  70
0
  3
Solid line
  72
65
  73
0
  40
0.0
  0
ENDTAB
  0
TABLE
  2
STYLE
  70
4
  0
STYLE
  2
KICAD
  70
0
  40
0
  41
1
  42
1
  50
0
  71
0
  3
isocp.shx
  0
STYLE
  2
KICADB
  70
0
  40
0
  41
1
  42
1
  50
0
  71
0
  3
isocp.shx
  0
STYLE
  2
KICADI
  70
0
  40
0
  41
1
  42
1
  50
15
  71
0
  3
isocp.shx
  0
STYLE
  2
KICADBI
  70
0
  40
0
  41
1
  42
1
  50
15
  71
0
  3
isocp.shx
  0
ENDTAB
  0
TABLE
  2
LAYER
  70
30
  0
LAYER
  2
BLACK
  70
0
  62
7
  6
CONTINUOUS
  0
LAYER
  2
GRAY1
  70
0
  62
251
  6
CONTINUOUS
  0
LAYER
  2
GRAY2
  70
0
  62
8
  6
CONTINUOUS
  0
LAYER
  2
GRAY3
  70
0
  62
9
  6
CONTINUOUS
  0
LAYER
  2
WHITE
  70
0
  62
7
  6
CONTINUOUS
  0
LAYER
  2
LYELLOW
  70
0
  62
51
  6
CONTINUOUS
  0
LAYER
  2
BLUE1
  70
0
  62
178
  6
CONTINUOUS
  0
LAYER
  2
GREEN1
  70
0
  62
98
  6
CONTINUOUS
  0
LAYER
  2
CYAN1
  70
0
  62
138
  6
CONTINUOUS
  0
LAYER
  2
RED1
  70
0
  62
18
  6
CONTINUOUS
  0
LAYER
  2
MAGENTA1
  70
0
  62
228
  6
CONTINUOUS
  0
LAYER
  2
BROWN1
  70
0
  62
58
  6
CONTINUOUS
  0
LAYER
  2
BLUE2
  70
0
  62
5
  6
CONTINUOUS
  0
LAYER
  2
GREEN2
  70
0
  62
3
  6
CONTINUOUS
  0
LAYER
  2
CYAN2
  70
0
  62
4
  6
CONTINUOUS
  0
LAYER
  2
RED2
  70
0
  62
1
  6
CONTINUOUS
  0
LAYER
  2
MAGENTA2
  70
0
  62
6
  6
CONTINUOUS
  0
LAYER
  2
BROWN2
  70
0
  62
54
  6
CONTINUOUS
  0
LAYER
  2
BLUE3
  70
0
  62
171
  6
CONTINUOUS
  0
LAYER
  2
GREEN3
  70
0
  62
91
  6
CONTINUOUS
  0
LAYER
  2
CYAN3
  70
0
  62
131
  6
CONTINUOUS
  0
LAYER
  2
RED3
  70
0
  62
11
  6
CONTINUOUS
  0
LAYER
  2
MAGENTA3
  70
0
  62
221
  6
CONTINUOUS
  0
LAYER
  2
YELLOW3
  70
0
  62
2
  6
CONTINUOUS
  0
LAYER
  2
BLUE4
  70
0
  62
5
  6
CONTINUOUS
  0
LAYER
  2
GREEN4
  70
0
  62
3
  6
CONTINUOUS
  0
LAYER
  2
CYAN4
  70
0
  62
4
  6
CONTINUOUS
  0
LAYER
  2
RED4
  70
0
  62
1
  6
CONTINUOUS
  0
LAYER
  2
MAGENTA4
  70
0
  62
6
  6
CONTINUOUS
  0
LAYER
  2
YELLOW4
  70
0
  62
2
  6
CONTINUOUS
  0
ENDTAB
  0
ENDSEC
  0
SECTION
  2
ENTITIES
0
LINE
8
Black
10
131.475
20
-156.725
11
130.325
21
-156.725
0
LINE
8
Black
10
130.325
20
-156.725
11
130.325
21
-155.275
0
LINE
8
Black
10
130.325
20
-155.275
11
131.475
21
-155.275
0
LINE
8
Black
10
131.475
20
-155.275
11
131.475
21
-156.725
0
LINE
8
Black
10
129.675
20
-156.725
11
128.525
21
-156.725
0
LINE
8
Black
10
128.525
20
-156.725
11
128.525
21
-155.275
0
LINE
8
Black
10
128.525
20
-155.275
11
129.675
21
-155.275
0
LINE
8
Black
10
129.675
20
-155.275
11
129.675
21
-156.725
0
LINE
8
Black
10
129.675
20
-154.725
11
128.525
21
-154.725
0
LINE
8
Black
10
128.525
20
-154.725
11
128.525
21
-153.275
0
LINE
8
Black
10
128.525
20
-153.275
11
129.675
21
-153.275
0
LINE
8
Black
10
129.675
20
-153.275
11
129.675
21
-154.725
0
LINE
8
Black
10
131.475
20
-154.725
11
130.325
21
-154.725
0
LINE
8
Black
10
130.325
20
-154.725
11
130.325
21
-153.275
0
LINE
8
Black
10
130.325
20
-153.275
11
131.475
21
-153.275
0
LINE
8
Black
10
131.475
20
-153.275
11
131.475
21
-154.725
0
LINE
8
Black
10
129.675
20
-152.725
11
128.525
21
-152.725
0
LINE
8
Black
10
128.525
20
-152.725
11
128.525
21
-151.275
0
LINE
8
Black
10
128.525
20
-151.275
11
129.675
21
-151.275
0
LINE
8
Black
10
129.675
20
-151.275
11
129.675
21
-152.725
0
LINE
8
Black
10
131.475
20
-152.725
11
130.325
21
-152.725
0
LINE
8
Black
10
130.325
20
-152.725
11
130.325
21
-151.275
0
LINE
8
Black
10
130.325
20
-151.275
11
131.475
21
-151.275
0
LINE
8
Black
10
131.475
20
-151.275
11
131.475
21
-152.725
0
LINE
8
Black
10
129.35
20
-150.25
11
128.35
21
-150.25
0
LINE
8
Black
10
128.35
20
-150.25
11
128.35
21
-149.65
0
LINE
8
Black
10
128.35
20
-149.65
11
129.35
21
-149.65
0
LINE
8
Black
10
129.35
20
-149.65
11
129.35
21
-150.25
0
LINE
8
Black
10
131.65
20
-149.3
11
130.65
21
-149.3
0
LINE
8
Black
10
130.65
20
-149.3
11
130.65
21
-148.7
0
LINE
8
Black
10
130.65
20
-148.7
11
131.65
21
-148.7
0
LINE
8
Black
10
131.65
20
-148.7
11
131.65
21
-149.3
0
LINE
8
Black
10
129.35
20
-148.35
11
128.35
21
-148.35
0
LINE
8
Black
10
128.35
20
-148.35
11
128.35
21
-147.75
0
LINE
8
Black
10
128.35
20
-147.75
11
129.35
21
-147.75
0
LINE
8
Black
10
129.35
20
-147.75
11
129.35
21
-148.35
0
LINE
8
Black
10
131.475
20
-146.925
11
130.325
21
-146.925
0
LINE
8
Black
10
130.325
20
-146.925
11
130.325
21
-145.475
0
LINE
8
Black
10
130.325
20
-145.475
11
131.475
21
-145.475
0
LINE
8
Black
10
131.475
20
-145.475
11
131.475
21
-146.925
0
LINE
8
Black
10
129.675
20
-146.925
11
128.525
21
-146.925
0
LINE
8
Black
10
128.525
20
-146.925
11
128.525
21
-145.475
0
LINE
8
Black
10
128.525
20
-145.475
11
129.675
21
-145.475
0
LINE
8
Black
10
129.675
20
-145.475
11
129.675
21
-146.925
0
LINE
8
Black
10
163.783
20
-144.242
11
162.97
21
-145.056
0
LINE
8
Black
10
162.97
20
-145.056
11
161.944
21
-144.03
0
LINE
8
Black
10
161.944
20
-144.03
11
162.758
21
-143.217
0
LINE
8
Black
10
162.758
20
-143.217
11
163.783
21
-144.242
0
LINE
8
Black
10
98.0556
20
-144.03
11
97.0303
21
-145.056
0
LINE
8
Black
10
97.0303
20
-145.056
11
96.2172
21
-144.242
0
LINE
8
Black
10
96.2172
20
-144.242
11
97.2425
21
-143.217
0
LINE
8
Black
10
97.2425
20
-143.217
11
98.0556
21
-144.03
0
LINE
8
Black
10
165.056
20
-142.97
11
164.242
21
-143.783
0
LINE
8
Black
10
164.242
20
-143.783
11
163.217
21
-142.758
0
LINE
8
Black
10
163.217
20
-142.758
11
164.03
21
-141.944
0
LINE
8
Black
10
164.03
20
-141.944
11
165.056
21
-142.97
0
LINE
8
Black
10
96.7828
20
-142.758
11
95.7575
21
-143.783
0
LINE
8
Black
10
95.7575
20
-143.783
11
94.9444
21
-142.97
0
LINE
8
Black
10
94.9444
20
-142.97
11
95.9697
21
-141.944
0
LINE
8
Black
10
95.9697
20
-141.944
11
96.7828
21
-142.758
0
LINE
8
Black
10
162.283
20
-142.742
11
161.47
21
-143.556
0
LINE
8
Black
10
161.47
20
-143.556
11
160.444
21
-142.53
0
LINE
8
Black
10
160.444
20
-142.53
11
161.258
21
-141.717
0
LINE
8
Black
10
161.258
20
-141.717
11
162.283
21
-142.742
0
LINE
8
Black
10
99.5556
20
-142.53
11
98.5303
21
-143.556
0
LINE
8
Black
10
98.5303
20
-143.556
11
97.7172
21
-142.742
0
LINE
8
Black
10
97.7172
20
-142.742
11
98.7425
21
-141.717
0
LINE
8
Black
10
98.7425
20
-141.717
11
99.5556
21
-142.53
0
LINE
8
Black
10
163.556
20
-141.47
11
162.742
21
-142.283
0
LINE
8
Black
10
162.742
20
-142.283
11
161.717
21
-141.258
0
LINE
8
Black
10
161.717
20
-141.258
11
162.53
21
-140.444
0
LINE
8
Black
10
162.53
20
-140.444
11
163.556
21
-141.47
0
LINE
8
Black
10
98.2828
20
-141.258
11
97.2575
21
-142.283
0
LINE
8
Black
10
97.2575
20
-142.283
11
96.4444
21
-141.47
0
LINE
8
Black
10
96.4444
20
-141.47
11
97.4697
21
-140.444
0
LINE
8
Black
10
97.4697
20
-140.444
11
98.2828
21
-141.258
0
LINE
8
Black
10
160.783
20
-141.242
11
159.97
21
-142.056
0
LINE
8
Black
10
159.97
20
-142.056
11
158.944
21
-141.03
0
LINE
8
Black
10
158.944
20
-141.03
11
159.758
21
-140.217
0
LINE
8
Black
10
159.758
20
-140.217
11
160.783
21
-141.242
0
LINE
8
Black
10
100.919
20
-141.03
11
99.8939
21
-142.056
0
LINE
8
Black
10
99.8939
20
-142.056
11
99.0808
21
-141.242
0
LINE
8
Black
10
99.0808
20
-141.242
11
100.106
21
-140.217
0
LINE
8
Black
10
100.106
20
-140.217
11
100.919
21
-141.03
0
LINE
8
Black
10
162.056
20
-139.97
11
161.242
21
-140.783
0
LINE
8
Black
10
161.242
20
-140.783
11
160.217
21
-139.758
0
LINE
8
Black
10
160.217
20
-139.758
11
161.03
21
-138.944
0
LINE
8
Black
10
161.03
20
-138.944
11
162.056
21
-139.97
0
LINE
8
Black
10
99.6464
20
-139.758
11
98.6211
21
-140.783
0
LINE
8
Black
10
98.6211
20
-140.783
11
97.808
21
-139.97
0
LINE
8
Black
10
97.808
20
-139.97
11
98.8333
21
-138.944
0
LINE
8
Black
10
98.8333
20
-138.944
11
99.6464
21
-139.758
0
LINE
8
Black
10
158.924
20
-139.844
11
158.217
21
-140.551
0
LINE
8
Black
10
158.217
20
-140.551
11
157.793
21
-140.126
0
LINE
8
Black
10
157.793
20
-140.126
11
158.5
21
-139.419
0
LINE
8
Black
10
158.5
20
-139.419
11
158.924
21
-139.844
0
LINE
8
Black
10
102.879
20
-139.455
11
102.455
21
-139.879
0
LINE
8
Black
10
102.455
20
-139.879
11
101.747
21
-139.172
0
LINE
8
Black
10
101.747
20
-139.172
11
102.172
21
-138.747
0
LINE
8
Black
10
102.172
20
-138.747
11
102.879
21
-139.455
0
LINE
8
Black
10
157.581
20
-138.5
11
156.874
21
-139.207
0
LINE
8
Black
10
156.874
20
-139.207
11
156.449
21
-138.783
0
LINE
8
Black
10
156.449
20
-138.783
11
157.156
21
-138.076
0
LINE
8
Black
10
157.156
20
-138.076
11
157.581
21
-138.5
0
LINE
8
Black
10
100.581
20
-138.5
11
100.156
21
-138.924
0
LINE
8
Black
10
100.156
20
-138.924
11
99.4494
21
-138.217
0
LINE
8
Black
10
99.4494
20
-138.217
11
99.8737
21
-137.793
0
LINE
8
Black
10
99.8737
20
-137.793
11
100.581
21
-138.5
0
LINE
8
Black
10
159.879
20
-137.545
11
159.172
21
-138.253
0
LINE
8
Black
10
159.172
20
-138.253
11
158.747
21
-137.828
0
LINE
8
Black
10
158.747
20
-137.828
11
159.455
21
-137.121
0
LINE
8
Black
10
159.455
20
-137.121
11
159.879
21
-137.545
0
LINE
8
Black
10
156.783
20
-137.342
11
155.97
21
-138.156
0
LINE
8
Black
10
155.97
20
-138.156
11
154.944
21
-137.13
0
LINE
8
Black
10
154.944
20
-137.13
11
155.758
21
-136.317
0
LINE
8
Black
10
155.758
20
-136.317
11
156.783
21
-137.342
0
LINE
8
Black
10
104.956
20
-137.03
11
103.93
21
-138.056
0
LINE
8
Black
10
103.93
20
-138.056
11
103.117
21
-137.242
0
LINE
8
Black
10
103.117
20
-137.242
11
104.142
21
-136.217
0
LINE
8
Black
10
104.142
20
-136.217
11
104.956
21
-137.03
0
LINE
8
Black
10
101.924
20
-137.156
11
101.5
21
-137.581
0
LINE
8
Black
10
101.5
20
-137.581
11
100.793
21
-136.874
0
LINE
8
Black
10
100.793
20
-136.874
11
101.217
21
-136.449
0
LINE
8
Black
10
101.217
20
-136.449
11
101.924
21
-137.156
0
LINE
8
Black
10
158.056
20
-136.07
11
157.242
21
-136.883
0
LINE
8
Black
10
157.242
20
-136.883
11
156.217
21
-135.858
0
LINE
8
Black
10
156.217
20
-135.858
11
157.03
21
-135.044
0
LINE
8
Black
10
157.03
20
-135.044
11
158.056
21
-136.07
0
LINE
8
Black
10
103.683
20
-135.758
11
102.658
21
-136.783
0
LINE
8
Black
10
102.658
20
-136.783
11
101.844
21
-135.97
0
LINE
8
Black
10
101.844
20
-135.97
11
102.87
21
-134.944
0
LINE
8
Black
10
102.87
20
-134.944
11
103.683
21
-135.758
0
LINE
8
Black
10
108.36
20
-123.674
11
107.158
21
-124.171
0
LINE
8
Black
10
107.158
20
-124.171
11
106.785
21
-123.27
0
LINE
8
Black
10
106.785
20
-123.27
11
107.986
21
-122.773
0
LINE
8
Black
10
107.986
20
-122.773
11
108.36
21
-123.674
0
LINE
8
Black
10
107.612
20
-121.738
11
106.318
21
-122.273
0
LINE
8
Black
10
106.318
20
-122.273
11
105.821
21
-121.072
0
LINE
8
Black
10
105.821
20
-121.072
11
107.114
21
-120.536
0
LINE
8
Black
10
107.114
20
-120.536
11
107.612
21
-121.738
0
LINE
8
Black
10
109.945
20
-120.446
11
108.698
21
-120.963
0
LINE
8
Black
10
108.698
20
-120.963
11
108.545
21
-120.593
0
LINE
8
Black
10
108.545
20
-120.593
11
109.792
21
-120.077
0
LINE
8
Black
10
109.792
20
-120.077
11
109.945
21
-120.446
0
LINE
8
Black
10
109.696
20
-119.846
11
108.449
21
-120.362
0
LINE
8
Black
10
108.449
20
-120.362
11
108.296
21
-119.993
0
LINE
8
Black
10
108.296
20
-119.993
11
109.543
21
-119.476
0
LINE
8
Black
10
109.543
20
-119.476
11
109.696
21
-119.846
0
LINE
8
Black
10
106.731
20
-119.613
11
105.438
21
-120.148
0
LINE
8
Black
10
105.438
20
-120.148
11
104.941
21
-118.947
0
LINE
8
Black
10
104.941
20
-118.947
11
106.234
21
-118.412
0
LINE
8
Black
10
106.234
20
-118.412
11
106.731
21
-119.613
0
LINE
8
Black
10
109.448
20
-119.245
11
108.2
21
-119.762
0
LINE
8
Black
10
108.2
20
-119.762
11
108.047
21
-119.392
0
LINE
8
Black
10
108.047
20
-119.392
11
109.295
21
-118.876
0
LINE
8
Black
10
109.295
20
-118.876
11
109.448
21
-119.245
0
LINE
8
Black
10
109.199
20
-118.645
11
107.952
21
-119.161
0
LINE
8
Black
10
107.952
20
-119.161
11
107.799
21
-118.792
0
LINE
8
Black
10
107.799
20
-118.792
11
109.046
21
-118.275
0
LINE
8
Black
10
109.046
20
-118.275
11
109.199
21
-118.645
0
LINE
8
Black
10
108.95
20
-118.044
11
107.703
21
-118.561
0
LINE
8
Black
10
107.703
20
-118.561
11
107.55
21
-118.191
0
LINE
8
Black
10
107.55
20
-118.191
11
108.797
21
-117.675
0
LINE
8
Black
10
108.797
20
-117.675
11
108.95
21
-118.044
0
LINE
8
Black
10
105.767
20
-117.414
11
104.566
21
-117.912
0
LINE
8
Black
10
104.566
20
-117.912
11
104.193
21
-117.011
0
LINE
8
Black
10
104.193
20
-117.011
11
105.394
21
-116.514
0
LINE
8
Black
10
105.394
20
-116.514
11
105.767
21
-117.414
0
LINE
8
Black
10
133.75
20
-115.675
11
132.4
21
-115.675
0
LINE
8
Black
10
132.4
20
-115.675
11
132.4
21
-115.225
0
LINE
8
Black
10
132.4
20
-115.225
11
133.75
21
-115.225
0
LINE
8
Black
10
133.75
20
-115.225
11
133.75
21
-115.675
0
LINE
8
Black
10
128
20
-115.675
11
126.65
21
-115.675
0
LINE
8
Black
10
126.65
20
-115.675
11
126.65
21
-115.225
0
LINE
8
Black
10
126.65
20
-115.225
11
128
21
-115.225
0
LINE
8
Black
10
128
20
-115.225
11
128
21
-115.675
0
LINE
8
Black
10
136.425
20
-115.5
11
134.975
21
-115.5
0
LINE
8
Black
10
134.975
20
-115.5
11
134.975
21
-114.35
0
LINE
8
Black
10
134.975
20
-114.35
11
136.425
21
-114.35
0
LINE
8
Black
10
136.425
20
-114.35
11
136.425
21
-115.5
0
LINE
8
Black
10
133.75
20
-115.025
11
132.4
21
-115.025
0
LINE
8
Black
10
132.4
20
-115.025
11
132.4
21
-114.575
0
LINE
8
Black
10
132.4
20
-114.575
11
133.75
21
-114.575
0
LINE
8
Black
10
133.75
20
-114.575
11
133.75
21
-115.025
0
LINE
8
Black
10
128
20
-115.025
11
126.65
21
-115.025
0
LINE
8
Black
10
126.65
20
-115.025
11
126.65
21
-114.575
0
LINE
8
Black
10
126.65
20
-114.575
11
128
21
-114.575
0
LINE
8
Black
10
128
20
-114.575
11
128
21
-115.025
0
LINE
8
Black
10
148.175
20
-114.65
11
147.025
21
-114.65
0
LINE
8
Black
10
147.025
20
-114.65
11
147.025
21
-113.2
0
LINE
8
Black
10
147.025
20
-113.2
11
148.175
21
-113.2
0
LINE
8
Black
10
148.175
20
-113.2
11
148.175
21
-114.65
0
LINE
8
Black
10
146.375
20
-114.65
11
145.225
21
-114.65
0
LINE
8
Black
10
145.225
20
-114.65
11
145.225
21
-113.2
0
LINE
8
Black
10
145.225
20
-113.2
11
146.375
21
-113.2
0
LINE
8
Black
10
146.375
20
-113.2
11
146.375
21
-114.65
0
LINE
8
Black
10
133.75
20
-114.375
11
132.4
21
-114.375
0
LINE
8
Black
10
132.4
20
-114.375
11
132.4
21
-113.925
0
LINE
8
Black
10
132.4
20
-113.925
11
133.75
21
-113.925
0
LINE
8
Black
10
133.75
20
-113.925
11
133.75
21
-114.375
0
LINE
8
Black
10
128
20
-114.375
11
126.65
21
-114.375
0
LINE
8
Black
10
126.65
20
-114.375
11
126.65
21
-113.925
0
LINE
8
Black
10
126.65
20
-113.925
11
128
21
-113.925
0
LINE
8
Black
10
128
20
-113.925
11
128
21
-114.375
0
LINE
8
Black
10
133.75
20
-113.725
11
132.4
21
-113.725
0
LINE
8
Black
10
132.4
20
-113.725
11
132.4
21
-113.275
0
LINE
8
Black
10
132.4
20
-113.275
11
133.75
21
-113.275
0
LINE
8
Black
10
133.75
20
-113.275
11
133.75
21
-113.725
0
LINE
8
Black
10
128
20
-113.725
11
126.65
21
-113.725
0
LINE
8
Black
10
126.65
20
-113.725
11
126.65
21
-113.275
0
LINE
8
Black
10
126.65
20
-113.275
11
128
21
-113.275
0
LINE
8
Black
10
128
20
-113.275
11
128
21
-113.725
0
LINE
8
Black
10
136.425
20
-113.7
11
134.975
21
-113.7
0
LINE
8
Black
10
134.975
20
-113.7
11
134.975
21
-112.55
0
LINE
8
Black
10
134.975
20
-112.55
11
136.425
21
-112.55
0
LINE
8
Black
10
136.425
20
-112.55
11
136.425
21
-113.7
0
LINE
8
Black
10
133.75
20
-113.075
11
132.4
21
-113.075
0
LINE
8
Black
10
132.4
20
-113.075
11
132.4
21
-112.625
0
LINE
8
Black
10
132.4
20
-112.625
11
133.75
21
-112.625
0
LINE
8
Black
10
133.75
20
-112.625
11
133.75
21
-113.075
0
LINE
8
Black
10
128
20
-113.075
11
126.65
21
-113.075
0
LINE
8
Black
10
126.65
20
-113.075
11
126.65
21
-112.625
0
LINE
8
Black
10
126.65
20
-112.625
11
128
21
-112.625
0
LINE
8
Black
10
128
20
-112.625
11
128
21
-113.075
0
LINE
8
Black
10
123.325
20
-113
11
121.875
21
-113
0
LINE
8
Black
10
121.875
20
-113
11
121.875
21
-111.85
0
LINE
8
Black
10
121.875
20
-111.85
11
123.325
21
-111.85
0
LINE
8
Black
10
123.325
20
-111.85
11
123.325
21
-113
0
LINE
8
Black
10
125.325
20
-113
11
123.875
21
-113
0
LINE
8
Black
10
123.875
20
-113
11
123.875
21
-111.85
0
LINE
8
Black
10
123.875
20
-111.85
11
125.325
21
-111.85
0
LINE
8
Black
10
125.325
20
-111.85
11
125.325
21
-113
0
LINE
8
Black
10
128
20
-112.425
11
126.65
21
-112.425
0
LINE
8
Black
10
126.65
20
-112.425
11
126.65
21
-111.975
0
LINE
8
Black
10
126.65
20
-111.975
11
128
21
-111.975
0
LINE
8
Black
10
128
20
-111.975
11
128
21
-112.425
0
LINE
8
Black
10
133.75
20
-112.425
11
132.4
21
-112.425
0
LINE
8
Black
10
132.4
20
-112.425
11
132.4
21
-111.975
0
LINE
8
Black
10
132.4
20
-111.975
11
133.75
21
-111.975
0
LINE
8
Black
10
133.75
20
-111.975
11
133.75
21
-112.425
0
LINE
8
Black
10
133.75
20
-111.775
11
132.4
21
-111.775
0
LINE
8
Black
10
132.4
20
-111.775
11
132.4
21
-111.325
0
LINE
8
Black
10
132.4
20
-111.325
11
133.75
21
-111.325
0
LINE
8
Black
10
133.75
20
-111.325
11
133.75
21
-111.775
0
LINE
8
Black
10
128
20
-111.775
11
126.65
21
-111.775
0
LINE
8
Black
10
126.65
20
-111.775
11
126.65
21
-111.325
0
LINE
8
Black
10
126.65
20
-111.325
11
128
21
-111.325
0
LINE
8
Black
10
128
20
-111.325
11
128
21
-111.775
0
LINE
8
Black
10
120.025
20
-111.675
11
118.575
21
-111.675
0
LINE
8
Black
10
118.575
20
-111.675
11
118.575
21
-110.525
0
LINE
8
Black
10
118.575
20
-110.525
11
120.025
21
-110.525
0
LINE
8
Black
10
120.025
20
-110.525
11
120.025
21
-111.675
0
LINE
8
Black
10
91.3
20
-111.65
11
90.7
21
-111.65
0
LINE
8
Black
10
90.7
20
-111.65
11
90.7
21
-110.65
0
LINE
8
Black
10
90.7
20
-110.65
11
91.3
21
-110.65
0
LINE
8
Black
10
91.3
20
-110.65
11
91.3
21
-111.65
0
LINE
8
Black
10
170.25
20
-111.65
11
169.65
21
-111.65
0
LINE
8
Black
10
169.65
20
-111.65
11
169.65
21
-110.65
0
LINE
8
Black
10
169.65
20
-110.65
11
170.25
21
-110.65
0
LINE
8
Black
10
170.25
20
-110.65
11
170.25
21
-111.65
0
LINE
8
Black
10
168.35
20
-111.65
11
167.75
21
-111.65
0
LINE
8
Black
10
167.75
20
-111.65
11
167.75
21
-110.65
0
LINE
8
Black
10
167.75
20
-110.65
11
168.35
21
-110.65
0
LINE
8
Black
10
168.35
20
-110.65
11
168.35
21
-111.65
0
LINE
8
Black
10
166.925
20
-111.575
11
165.475
21
-111.575
0
LINE
8
Black
10
165.475
20
-111.575
11
165.475
21
-110.425
0
LINE
8
Black
10
165.475
20
-110.425
11
166.925
21
-110.425
0
LINE
8
Black
10
166.925
20
-110.425
11
166.925
21
-111.575
0
LINE
8
Black
10
84.725
20
-111.475
11
83.275
21
-111.475
0
LINE
8
Black
10
83.275
20
-111.475
11
83.275
21
-110.325
0
LINE
8
Black
10
83.275
20
-110.325
11
84.725
21
-110.325
0
LINE
8
Black
10
84.725
20
-110.325
11
84.725
21
-111.475
0
LINE
8
Black
10
88.725
20
-111.475
11
87.275
21
-111.475
0
LINE
8
Black
10
87.275
20
-111.475
11
87.275
21
-110.325
0
LINE
8
Black
10
87.275
20
-110.325
11
88.725
21
-110.325
0
LINE
8
Black
10
88.725
20
-110.325
11
88.725
21
-111.475
0
LINE
8
Black
10
94.525
20
-111.475
11
93.075
21
-111.475
0
LINE
8
Black
10
93.075
20
-111.475
11
93.075
21
-110.325
0
LINE
8
Black
10
93.075
20
-110.325
11
94.525
21
-110.325
0
LINE
8
Black
10
94.525
20
-110.325
11
94.525
21
-111.475
0
LINE
8
Black
10
172.725
20
-111.475
11
171.275
21
-111.475
0
LINE
8
Black
10
171.275
20
-111.475
11
171.275
21
-110.325
0
LINE
8
Black
10
171.275
20
-110.325
11
172.725
21
-110.325
0
LINE
8
Black
10
172.725
20
-110.325
11
172.725
21
-111.475
0
LINE
8
Black
10
86.725
20
-111.475
11
85.275
21
-111.475
0
LINE
8
Black
10
85.275
20
-111.475
11
85.275
21
-110.325
0
LINE
8
Black
10
85.275
20
-110.325
11
86.725
21
-110.325
0
LINE
8
Black
10
86.725
20
-110.325
11
86.725
21
-111.475
0
LINE
8
Black
10
176.725
20
-111.475
11
175.275
21
-111.475
0
LINE
8
Black
10
175.275
20
-111.475
11
175.275
21
-110.325
0
LINE
8
Black
10
175.275
20
-110.325
11
176.725
21
-110.325
0
LINE
8
Black
10
176.725
20
-110.325
11
176.725
21
-111.475
0
LINE
8
Black
10
174.725
20
-111.475
11
173.275
21
-111.475
0
LINE
8
Black
10
173.275
20
-111.475
11
173.275
21
-110.325
0
LINE
8
Black
10
173.275
20
-110.325
11
174.725
21
-110.325
0
LINE
8
Black
10
174.725
20
-110.325
11
174.725
21
-111.475
0
LINE
8
Black
10
123.325
20
-111.2
11
121.875
21
-111.2
0
LINE
8
Black
10
121.875
20
-111.2
11
121.875
21
-110.05
0
LINE
8
Black
10
121.875
20
-110.05
11
123.325
21
-110.05
0
LINE
8
Black
10
123.325
20
-110.05
11
123.325
21
-111.2
0
LINE
8
Black
10
125.325
20
-111.2
11
123.875
21
-111.2
0
LINE
8
Black
10
123.875
20
-111.2
11
123.875
21
-110.05
0
LINE
8
Black
10
123.875
20
-110.05
11
125.325
21
-110.05
0
LINE
8
Black
10
125.325
20
-110.05
11
125.325
21
-111.2
0
LINE
8
Black
10
133.75
20
-111.125
11
132.4
21
-111.125
0
LINE
8
Black
10
132.4
20
-111.125
11
132.4
21
-110.675
0
LINE
8
Black
10
132.4
20
-110.675
11
133.75
21
-110.675
0
LINE
8
Black
10
133.75
20
-110.675
11
133.75
21
-111.125
0
LINE
8
Black
10
128
20
-111.125
11
126.65
21
-111.125
0
LINE
8
Black
10
126.65
20
-111.125
11
126.65
21
-110.675
0
LINE
8
Black
10
126.65
20
-110.675
11
128
21
-110.675
0
LINE
8
Black
10
128
20
-110.675
11
128
21
-111.125
0
LINE
8
Black
10
133.75
20
-110.475
11
132.4
21
-110.475
0
LINE
8
Black
10
132.4
20
-110.475
11
132.4
21
-110.025
0
LINE
8
Black
10
132.4
20
-110.025
11
133.75
21
-110.025
0
LINE
8
Black
10
133.75
20
-110.025
11
133.75
21
-110.475
0
LINE
8
Black
10
128
20
-110.475
11
126.65
21
-110.475
0
LINE
8
Black
10
126.65
20
-110.475
11
126.65
21
-110.025
0
LINE
8
Black
10
126.65
20
-110.025
11
128
21
-110.025
0
LINE
8
Black
10
128
20
-110.025
11
128
21
-110.475
0
LINE
8
Black
10
120.025
20
-109.875
11
118.575
21
-109.875
0
LINE
8
Black
10
118.575
20
-109.875
11
118.575
21
-108.725
0
LINE
8
Black
10
118.575
20
-108.725
11
120.025
21
-108.725
0
LINE
8
Black
10
120.025
20
-108.725
11
120.025
21
-109.875
0
LINE
8
Black
10
133.75
20
-109.825
11
132.4
21
-109.825
0
LINE
8
Black
10
132.4
20
-109.825
11
132.4
21
-109.375
0
LINE
8
Black
10
132.4
20
-109.375
11
133.75
21
-109.375
0
LINE
8
Black
10
133.75
20
-109.375
11
133.75
21
-109.825
0
LINE
8
Black
10
128
20
-109.825
11
126.65
21
-109.825
0
LINE
8
Black
10
126.65
20
-109.825
11
126.65
21
-109.375
0
LINE
8
Black
10
126.65
20
-109.375
11
128
21
-109.375
0
LINE
8
Black
10
128
20
-109.375
11
128
21
-109.825
0
LINE
8
Black
10
166.925
20
-109.775
11
165.475
21
-109.775
0
LINE
8
Black
10
165.475
20
-109.775
11
165.475
21
-108.625
0
LINE
8
Black
10
165.475
20
-108.625
11
166.925
21
-108.625
0
LINE
8
Black
10
166.925
20
-108.625
11
166.925
21
-109.775
0
LINE
8
Black
10
174.725
20
-109.675
11
173.275
21
-109.675
0
LINE
8
Black
10
173.275
20
-109.675
11
173.275
21
-108.525
0
LINE
8
Black
10
173.275
20
-108.525
11
174.725
21
-108.525
0
LINE
8
Black
10
174.725
20
-108.525
11
174.725
21
-109.675
0
LINE
8
Black
10
172.725
20
-109.675
11
171.275
21
-109.675
0
LINE
8
Black
10
171.275
20
-109.675
11
171.275
21
-108.525
0
LINE
8
Black
10
171.275
20
-108.525
11
172.725
21
-108.525
0
LINE
8
Black
10
172.725
20
-108.525
11
172.725
21
-109.675
0
LINE
8
Black
10
86.725
20
-109.675
11
85.275
21
-109.675
0
LINE
8
Black
10
85.275
20
-109.675
11
85.275
21
-108.525
0
LINE
8
Black
10
85.275
20
-108.525
11
86.725
21
-108.525
0
LINE
8
Black
10
86.725
20
-108.525
11
86.725
21
-109.675
0
LINE
8
Black
10
88.725
20
-109.675
11
87.275
21
-109.675
0
LINE
8
Black
10
87.275
20
-109.675
11
87.275
21
-108.525
0
LINE
8
Black
10
87.275
20
-108.525
11
88.725
21
-108.525
0
LINE
8
Black
10
88.725
20
-108.525
11
88.725
21
-109.675
0
LINE
8
Black
10
84.725
20
-109.675
11
83.275
21
-109.675
0
LINE
8
Black
10
83.275
20
-109.675
11
83.275
21
-108.525
0
LINE
8
Black
10
83.275
20
-108.525
11
84.725
21
-108.525
0
LINE
8
Black
10
84.725
20
-108.525
11
84.725
21
-109.675
0
LINE
8
Black
10
94.525
20
-109.675
11
93.075
21
-109.675
0
LINE
8
Black
10
93.075
20
-109.675
11
93.075
21
-108.525
0
LINE
8
Black
10
93.075
20
-108.525
11
94.525
21
-108.525
0
LINE
8
Black
10
94.525
20
-108.525
11
94.525
21
-109.675
0
LINE
8
Black
10
176.725
20
-109.675
11
175.275
21
-109.675
0
LINE
8
Black
10
175.275
20
-109.675
11
175.275
21
-108.525
0
LINE
8
Black
10
175.275
20
-108.525
11
176.725
21
-108.525
0
LINE
8
Black
10
176.725
20
-108.525
11
176.725
21
-109.675
0
LINE
8
Black
10
169.3
20
-109.35
11
168.7
21
-109.35
0
LINE
8
Black
10
168.7
20
-109.35
11
168.7
21
-108.35
0
LINE
8
Black
10
168.7
20
-108.35
11
169.3
21
-108.35
0
LINE
8
Black
10
169.3
20
-108.35
11
169.3
21
-109.35
0
LINE
8
Black
10
92.25
20
-109.35
11
91.65
21
-109.35
0
LINE
8
Black
10
91.65
20
-109.35
11
91.65
21
-108.35
0
LINE
8
Black
10
91.65
20
-108.35
11
92.25
21
-108.35
0
LINE
8
Black
10
92.25
20
-108.35
11
92.25
21
-109.35
0
LINE
8
Black
10
90.35
20
-109.35
11
89.75
21
-109.35
0
LINE
8
Black
10
89.75
20
-109.35
11
89.75
21
-108.35
0
LINE
8
Black
10
89.75
20
-108.35
11
90.35
21
-108.35
0
LINE
8
Black
10
90.35
20
-108.35
11
90.35
21
-109.35
0
LINE
8
Black
10
121.175
20
-108.025
11
120.025
21
-108.025
0
LINE
8
Black
10
120.025
20
-108.025
11
120.025
21
-106.575
0
LINE
8
Black
10
120.025
20
-106.575
11
121.175
21
-106.575
0
LINE
8
Black
10
121.175
20
-106.575
11
121.175
21
-108.025
0
LINE
8
Black
10
119.375
20
-108.025
11
118.225
21
-108.025
0
LINE
8
Black
10
118.225
20
-108.025
11
118.225
21
-106.575
0
LINE
8
Black
10
118.225
20
-106.575
11
119.375
21
-106.575
0
LINE
8
Black
10
119.375
20
-106.575
11
119.375
21
-108.025
0
LINE
8
Black
10
127.125
20
-107.225
11
125.675
21
-107.225
0
LINE
8
Black
10
125.675
20
-107.225
11
125.675
21
-106.075
0
LINE
8
Black
10
125.675
20
-106.075
11
127.125
21
-106.075
0
LINE
8
Black
10
127.125
20
-106.075
11
127.125
21
-107.225
0
LINE
8
Black
10
133.125
20
-107.225
11
131.675
21
-107.225
0
LINE
8
Black
10
131.675
20
-107.225
11
131.675
21
-106.075
0
LINE
8
Black
10
131.675
20
-106.075
11
133.125
21
-106.075
0
LINE
8
Black
10
133.125
20
-106.075
11
133.125
21
-107.225
0
LINE
8
Black
10
131.05
20
-107
11
130.05
21
-107
0
LINE
8
Black
10
130.05
20
-107
11
130.05
21
-106.4
0
LINE
8
Black
10
130.05
20
-106.4
11
131.05
21
-106.4
0
LINE
8
Black
10
131.05
20
-106.4
11
131.05
21
-107
0
LINE
8
Black
10
128.75
20
-106.05
11
127.75
21
-106.05
0
LINE
8
Black
10
127.75
20
-106.05
11
127.75
21
-105.45
0
LINE
8
Black
10
127.75
20
-105.45
11
128.75
21
-105.45
0
LINE
8
Black
10
128.75
20
-105.45
11
128.75
21
-106.05
0
LINE
8
Black
10
127.125
20
-105.425
11
125.675
21
-105.425
0
LINE
8
Black
10
125.675
20
-105.425
11
125.675
21
-104.275
0
LINE
8
Black
10
125.675
20
-104.275
11
127.125
21
-104.275
0
LINE
8
Black
10
127.125
20
-104.275
11
127.125
21
-105.425
0
LINE
8
Black
10
133.125
20
-105.425
11
131.675
21
-105.425
0
LINE
8
Black
10
131.675
20
-105.425
11
131.675
21
-104.275
0
LINE
8
Black
10
131.675
20
-104.275
11
133.125
21
-104.275
0
LINE
8
Black
10
133.125
20
-104.275
11
133.125
21
-105.425
0
LINE
8
Black
10
131.05
20
-105.1
11
130.05
21
-105.1
0
LINE
8
Black
10
130.05
20
-105.1
11
130.05
21
-104.5
0
LINE
8
Black
10
130.05
20
-104.5
11
131.05
21
-104.5
0
LINE
8
Black
10
131.05
20
-104.5
11
131.05
21
-105.1
0
LINE
8
Black
10
132.825
20
-100.5
11
131.675
21
-100.5
0
LINE
8
Black
10
131.675
20
-100.5
11
131.675
21
-99.05
0
LINE
8
Black
10
131.675
20
-99.05
11
132.825
21
-99.05
0
LINE
8
Black
10
132.825
20
-99.05
11
132.825
21
-100.5
0
LINE
8
Black
10
131.025
20
-100.5
11
129.875
21
-100.5
0
LINE
8
Black
10
129.875
20
-100.5
11
129.875
21
-99.05
0
LINE
8
Black
10
129.875
20
-99.05
11
131.025
21
-99.05
0
LINE
8
Black
10
131.025
20
-99.05
11
131.025
21
-100.5
0
LINE
8
Black
10
127.525
20
-100.5
11
126.375
21
-100.5
0
LINE
8
Black
10
126.375
20
-100.5
11
126.375
21
-99.05
0
LINE
8
Black
10
126.375
20
-99.05
11
127.525
21
-99.05
0
LINE
8
Black
10
127.525
20
-99.05
11
127.525
21
-100.5
0
LINE
8
Black
10
129.325
20
-100.5
11
128.175
21
-100.5
0
LINE
8
Black
10
128.175
20
-100.5
11
128.175
21
-99.05
0
LINE
8
Black
10
128.175
20
-99.05
11
129.325
21
-99.05
0
LINE
8
Black
10
129.325
20
-99.05
11
129.325
21
-100.5
0
LINE
8
Black
10
133.675
20
-98.45
11
132.225
21
-98.45
0
LINE
8
Black
10
132.225
20
-98.45
11
132.225
21
-97.3
0
LINE
8
Black
10
132.225
20
-97.3
11
133.675
21
-97.3
0
LINE
8
Black
10
133.675
20
-97.3
11
133.675
21
-98.45
0
LINE
8
Black
10
131.6
20
-98.225
11
130.5
21
-98.225
0
LINE
8
Black
10
130.5
20
-98.225
11
130.5
21
-97.625
0
LINE
8
Black
10
130.5
20
-97.625
11
131.6
21
-97.625
0
LINE
8
Black
10
131.6
20
-97.625
11
131.6
21
-98.225
0
LINE
8
Black
10
129
20
-98.225
11
127.9
21
-98.225
0
LINE
8
Black
10
127.9
20
-98.225
11
127.9
21
-97.625
0
LINE
8
Black
10
127.9
20
-97.625
11
129
21
-97.625
0
LINE
8
Black
10
129
20
-97.625
11
129
21
-98.225
0
LINE
8
Black
10
129
20
-97.275
11
127.9
21
-97.275
0
LINE
8
Black
10
127.9
20
-97.275
11
127.9
21
-96.675
0
LINE
8
Black
10
127.9
20
-96.675
11
129
21
-96.675
0
LINE
8
Black
10
129
20
-96.675
11
129
21
-97.275
0
LINE
8
Black
10
131.6
20
-97.275
11
130.5
21
-97.275
0
LINE
8
Black
10
130.5
20
-97.275
11
130.5
21
-96.675
0
LINE
8
Black
10
130.5
20
-96.675
11
131.6
21
-96.675
0
LINE
8
Black
10
131.6
20
-96.675
11
131.6
21
-97.275
0
LINE
8
Black
10
133.675
20
-96.65
11
132.225
21
-96.65
0
LINE
8
Black
10
132.225
20
-96.65
11
132.225
21
-95.5
0
LINE
8
Black
10
132.225
20
-95.5
11
133.675
21
-95.5
0
LINE
8
Black
10
133.675
20
-95.5
11
133.675
21
-96.65
0
LINE
8
Black
10
129
20
-96.325
11
127.9
21
-96.325
0
LINE
8
Black
10
127.9
20
-96.325
11
127.9
21
-95.725
0
LINE
8
Black
10
127.9
20
-95.725
11
129
21
-95.725
0
LINE
8
Black
10
129
20
-95.725
11
129
21
-96.325
0
LINE
8
Black
10
131.6
20
-96.325
11
130.5
21
-96.325
0
LINE
8
Black
10
130.5
20
-96.325
11
130.5
21
-95.725
0
LINE
8
Black
10
130.5
20
-95.725
11
131.6
21
-95.725
0
LINE
8
Black
10
131.6
20
-95.725
11
131.6
21
-96.325
0
LINE
8
Black
10
129.425
20
-94.8
11
128.275
21
-94.8
0
LINE
8
Black
10
128.275
20
-94.8
11
128.275
21
-93.35
0
LINE
8
Black
10
128.275
20
-93.35
11
129.425
21
-93.35
0
LINE
8
Black
10
129.425
20
-93.35
11
129.425
21
-94.8
0
LINE
8
Black
10
131.225
20
-94.8
11
130.075
21
-94.8
0
LINE
8
Black
10
130.075
20
-94.8
11
130.075
21
-93.35
0
LINE
8
Black
10
130.075
20
-93.35
11
131.225
21
-93.35
0
LINE
8
Black
10
131.225
20
-93.35
11
131.225
21
-94.8
0
LINE
8
Black
10
129.7
20
-92.825
11
128.9
21
-92.825
0
LINE
8
Black
10
128.9
20
-92.825
11
128.9
21
-91.125
0
LINE
8
Black
10
128.9
20
-91.125
11
129.7
21
-91.125
0
LINE
8
Black
10
129.7
20
-91.125
11
129.7
21
-92.825
0
LINE
8
Black
10
128.2
20
-92.825
11
127.4
21
-92.825
0
LINE
8
Black
10
127.4
20
-92.825
11
127.4
21
-91.125
0
LINE
8
Black
10
127.4
20
-91.125
11
128.2
21
-91.125
0
LINE
8
Black
10
128.2
20
-91.125
11
128.2
21
-92.825
0
LINE
8
Black
10
103.783
20
-84.2425
11
102.97
21
-85.0556
0
LINE
8
Black
10
102.97
20
-85.0556
11
101.944
21
-84.0303
0
LINE
8
Black
10
101.944
20
-84.0303
11
102.758
21
-83.2172
0
LINE
8
Black
10
102.758
20
-83.2172
11
103.783
21
-84.2425
0
LINE
8
Black
10
157.919
20
-83.8939
11
156.894
21
-84.9192
0
LINE
8
Black
10
156.894
20
-84.9192
11
156.081
21
-84.1061
0
LINE
8
Black
10
156.081
20
-84.1061
11
157.106
21
-83.0808
0
LINE
8
Black
10
157.106
20
-83.0808
11
157.919
21
-83.8939
0
LINE
8
Black
10
105.056
20
-82.9697
11
104.242
21
-83.7828
0
LINE
8
Black
10
104.242
20
-83.7828
11
103.217
21
-82.7575
0
LINE
8
Black
10
103.217
20
-82.7575
11
104.03
21
-81.9444
0
LINE
8
Black
10
104.03
20
-81.9444
11
105.056
21
-82.9697
0
LINE
8
Black
10
156.646
20
-82.6211
11
155.621
21
-83.6464
0
LINE
8
Black
10
155.621
20
-83.6464
11
154.808
21
-82.8333
0
LINE
8
Black
10
154.808
20
-82.8333
11
155.833
21
-81.808
0
LINE
8
Black
10
155.833
20
-81.808
11
156.646
21
-82.6211
0
LINE
8
Black
10
159.207
20
-83.1263
11
158.783
21
-83.5506
0
LINE
8
Black
10
158.783
20
-83.5506
11
158.076
21
-82.8435
0
LINE
8
Black
10
158.076
20
-82.8435
11
158.5
21
-82.4192
0
LINE
8
Black
10
158.5
20
-82.4192
11
159.207
21
-83.1263
0
LINE
8
Black
10
101.253
20
-82.1718
11
100.545
21
-82.8789
0
LINE
8
Black
10
100.545
20
-82.8789
11
100.121
21
-82.4546
0
LINE
8
Black
10
100.121
20
-82.4546
11
100.828
21
-81.7475
0
LINE
8
Black
10
100.828
20
-81.7475
11
101.253
21
-82.1718
0
LINE
8
Black
10
160.551
20
-81.7828
11
160.126
21
-82.2071
0
LINE
8
Black
10
160.126
20
-82.2071
11
159.419
21
-81.5
0
LINE
8
Black
10
159.419
20
-81.5
11
159.844
21
-81.0757
0
LINE
8
Black
10
159.844
20
-81.0757
11
160.551
21
-81.7828
0
LINE
8
Black
10
103.551
20
-81.2172
11
102.844
21
-81.9243
0
LINE
8
Black
10
102.844
20
-81.9243
11
102.419
21
-81.5
0
LINE
8
Black
10
102.419
20
-81.5
11
103.126
21
-80.7929
0
LINE
8
Black
10
103.126
20
-80.7929
11
103.551
21
-81.2172
0
LINE
8
Black
10
158.253
20
-80.8282
11
157.828
21
-81.2525
0
LINE
8
Black
10
157.828
20
-81.2525
11
157.121
21
-80.5454
0
LINE
8
Black
10
157.121
20
-80.5454
11
157.545
21
-80.1211
0
LINE
8
Black
10
157.545
20
-80.1211
11
158.253
21
-80.8282
0
LINE
8
Black
10
162.056
20
-80.0303
11
161.03
21
-81.0556
0
LINE
8
Black
10
161.03
20
-81.0556
11
160.217
21
-80.2425
0
LINE
8
Black
10
160.217
20
-80.2425
11
161.242
21
-79.2172
0
LINE
8
Black
10
161.242
20
-79.2172
11
162.056
21
-80.0303
0
LINE
8
Black
10
99.7828
20
-80.2425
11
98.9697
21
-81.0556
0
LINE
8
Black
10
98.9697
20
-81.0556
11
97.9444
21
-80.0303
0
LINE
8
Black
10
97.9444
20
-80.0303
11
98.7575
21
-79.2172
0
LINE
8
Black
10
98.7575
20
-79.2172
11
99.7828
21
-80.2425
0
LINE
8
Black
10
102.207
20
-79.8737
11
101.5
21
-80.5808
0
LINE
8
Black
10
101.5
20
-80.5808
11
101.076
21
-80.1565
0
LINE
8
Black
10
101.076
20
-80.1565
11
101.783
21
-79.4494
0
LINE
8
Black
10
101.783
20
-79.4494
11
102.207
21
-79.8737
0
LINE
8
Black
10
160.783
20
-78.7575
11
159.758
21
-79.7828
0
LINE
8
Black
10
159.758
20
-79.7828
11
158.944
21
-78.9697
0
LINE
8
Black
10
158.944
20
-78.9697
11
159.97
21
-77.9444
0
LINE
8
Black
10
159.97
20
-77.9444
11
160.783
21
-78.7575
0
LINE
8
Black
10
101.056
20
-78.9697
11
100.242
21
-79.7828
0
LINE
8
Black
10
100.242
20
-79.7828
11
99.2172
21
-78.7575
0
LINE
8
Black
10
99.2172
20
-78.7575
11
100.03
21
-77.9444
0
LINE
8
Black
10
100.03
20
-77.9444
11
101.056
21
-78.9697
0
LINE
8
Black
10
163.556
20
-78.5303
11
162.53
21
-79.5556
0
LINE
8
Black
10
162.53
20
-79.5556
11
161.717
21
-78.7425
0
LINE
8
Black
10
161.717
20
-78.7425
11
162.742
21
-77.7172
0
LINE
8
Black
10
162.742
20
-77.7172
11
163.556
21
-78.5303
0
LINE
8
Black
10
98.2828
20
-78.7425
11
97.4697
21
-79.5556
0
LINE
8
Black
10
97.4697
20
-79.5556
11
96.4444
21
-78.5303
0
LINE
8
Black
10
96.4444
20
-78.5303
11
97.2575
21
-77.7172
0
LINE
8
Black
10
97.2575
20
-77.7172
11
98.2828
21
-78.7425
0
LINE
8
Black
10
162.283
20
-77.2575
11
161.258
21
-78.2828
0
LINE
8
Black
10
161.258
20
-78.2828
11
160.444
21
-77.4697
0
LINE
8
Black
10
160.444
20
-77.4697
11
161.47
21
-76.4444
0
LINE
8
Black
10
161.47
20
-76.4444
11
162.283
21
-77.2575
0
LINE
8
Black
10
99.5556
20
-77.4697
11
98.7425
21
-78.2828
0
LINE
8
Black
10
98.7425
20
-78.2828
11
97.7172
21
-77.2575
0
LINE
8
Black
10
97.7172
20
-77.2575
11
98.5303
21
-76.4444
0
LINE
8
Black
10
98.5303
20
-76.4444
11
99.5556
21
-77.4697
0
LINE
8
Black
10
96.7828
20
-77.2425
11
95.9697
21
-78.0556
0
LINE
8
Black
10
95.9697
20
-78.0556
11
94.9444
21
-77.0303
0
LINE
8
Black
10
94.9444
20
-77.0303
11
95.7575
21
-76.2172
0
LINE
8
Black
10
95.7575
20
-76.2172
11
96.7828
21
-77.2425
0
LINE
8
Black
10
165.056
20
-76.8939
11
164.03
21
-77.9192
0
LINE
8
Black
10
164.03
20
-77.9192
11
163.217
21
-77.1061
0
LINE
8
Black
10
163.217
20
-77.1061
11
164.242
21
-76.0808
0
LINE
8
Black
10
164.242
20
-76.0808
11
165.056
21
-76.8939
0
LINE
8
Black
10
98.0556
20
-75.9697
11
97.2425
21
-76.7828
0
LINE
8
Black
10
97.2425
20
-76.7828
11
96.2172
21
-75.7575
0
LINE
8
Black
10
96.2172
20
-75.7575
11
97.0303
21
-74.9444
0
LINE
8
Black
10
97.0303
20
-74.9444
11
98.0556
21
-75.9697
0
LINE
8
Black
10
163.783
20
-75.6211
11
162.758
21
-76.6464
0
LINE
8
Black
10
162.758
20
-76.6464
11
161.944
21
-75.8333
0
LINE
8
Black
10
161.944
20
-75.8333
11
162.97
21
-74.808
0
LINE
8
Black
10
162.97
20
-74.808
11
163.783
21
-75.6211
0
LINE
8
Black
10
134.193
20
-71.8325
11
133.38
21
-72.6456
0
LINE
8
Black
10
133.38
20
-72.6456
11
132.354
21
-71.6203
0
LINE
8
Black
10
132.354
20
-71.6203
11
133.168
21
-70.8072
0
LINE
8
Black
10
133.168
20
-70.8072
11
134.193
21
-71.8325
0
LINE
8
Black
10
131.65
20
-72.25
11
130.65
21
-72.25
0
LINE
8
Black
10
130.65
20
-72.25
11
130.65
21
-71.65
0
LINE
8
Black
10
130.65
20
-71.65
11
131.65
21
-71.65
0
LINE
8
Black
10
131.65
20
-71.65
11
131.65
21
-72.25
0
LINE
8
Black
10
135.466
20
-70.5597
11
134.652
21
-71.3728
0
LINE
8
Black
10
134.652
20
-71.3728
11
133.627
21
-70.3475
0
LINE
8
Black
10
133.627
20
-70.3475
11
134.44
21
-69.5344
0
LINE
8
Black
10
134.44
20
-69.5344
11
135.466
21
-70.5597
0
LINE
8
Black
10
129.35
20
-71.3
11
128.35
21
-71.3
0
LINE
8
Black
10
128.35
20
-71.3
11
128.35
21
-70.7
0
LINE
8
Black
10
128.35
20
-70.7
11
129.35
21
-70.7
0
LINE
8
Black
10
129.35
20
-70.7
11
129.35
21
-71.3
0
LINE
8
Black
10
131.65
20
-70.35
11
130.65
21
-70.35
0
LINE
8
Black
10
130.65
20
-70.35
11
130.65
21
-69.75
0
LINE
8
Black
10
130.65
20
-69.75
11
131.65
21
-69.75
0
LINE
8
Black
10
131.65
20
-69.75
11
131.65
21
-70.35
0
LINE
8
Black
10
129.575
20
-68.725
11
128.425
21
-68.725
0
LINE
8
Black
10
128.425
20
-68.725
11
128.425
21
-67.275
0
LINE
8
Black
10
128.425
20
-67.275
11
129.575
21
-67.275
0
LINE
8
Black
10
129.575
20
-67.275
11
129.575
21
-68.725
0
LINE
8
Black
10
131.375
20
-68.725
11
130.225
21
-68.725
0
LINE
8
Black
10
130.225
20
-68.725
11
130.225
21
-67.275
0
LINE
8
Black
10
130.225
20
-67.275
11
131.375
21
-67.275
0
LINE
8
Black
10
131.375
20
-67.275
11
131.375
21
-68.725
0
LINE
8
Black
10
129.575
20
-66.725
11
128.425
21
-66.725
0
LINE
8
Black
10
128.425
20
-66.725
11
128.425
21
-65.275
0
LINE
8
Black
10
128.425
20
-65.275
11
129.575
21
-65.275
0
LINE
8
Black
10
129.575
20
-65.275
11
129.575
21
-66.725
0
LINE
8
Black
10
131.375
20
-66.725
11
130.225
21
-66.725
0
LINE
8
Black
10
130.225
20
-66.725
11
130.225
21
-65.275
0
LINE
8
Black
10
130.225
20
-65.275
11
131.375
21
-65.275
0
LINE
8
Black
10
131.375
20
-65.275
11
131.375
21
-66.725
0
LINE
8
Black
10
131.375
20
-64.725
11
130.225
21
-64.725
0
LINE
8
Black
10
130.225
20
-64.725
11
130.225
21
-63.275
0
LINE
8
Black
10
130.225
20
-63.275
11
131.375
21
-63.275
0
LINE
8
Black
10
131.375
20
-63.275
11
131.375
21
-64.725
0
LINE
8
Black
10
129.575
20
-64.725
11
128.425
21
-64.725
0
LINE
8
Black
10
128.425
20
-64.725
11
128.425
21
-63.275
0
LINE
8
Black
10
128.425
20
-63.275
11
129.575
21
-63.275
0
LINE
8
Black
10
129.575
20
-63.275
11
129.575
21
-64.725
  0
ENDSEC
  0
EOF
