G04 #@! TF.FileFunction,Copper,L2,Bot,Signal*
%FSLAX46Y46*%
G04 Gerber Fmt 4.6, Leading zero omitted, Abs format (unit mm)*
G04 Created by KiCad (PCBNEW 4.0.4-stable) date Monday, 07 November 2016 'AMt' 01:22:43*
%MOMM*%
%LPD*%
G01*
G04 APERTURE LIST*
%ADD10C,0.100000*%
%ADD11C,1.000000*%
%ADD12C,2.000000*%
%ADD13R,1.150000X1.450000*%
%ADD14R,1.450000X1.150000*%
%ADD15C,0.800000*%
%ADD16C,0.200000*%
%ADD17C,0.500000*%
%ADD18C,0.254000*%
G04 APERTURE END LIST*
D10*
D11*
X110014705Y-121202165D02*
X109783735Y-121297835D01*
X108311764Y-117090902D02*
X108080794Y-117186572D01*
X108289560Y-124027407D02*
X107458068Y-124371823D01*
X105094154Y-116313013D02*
X104262662Y-116657429D01*
D12*
X130000000Y-132350000D03*
X130000000Y-87650000D03*
X143250000Y-107250000D03*
X143250000Y-111750000D03*
X149750000Y-111750000D03*
X149750000Y-107250000D03*
D10*
G36*
X95969670Y-78055635D02*
X94944365Y-77030330D01*
X95757538Y-76217157D01*
X96782843Y-77242462D01*
X95969670Y-78055635D01*
X95969670Y-78055635D01*
G37*
G36*
X97242462Y-76782843D02*
X96217157Y-75757538D01*
X97030330Y-74944365D01*
X98055635Y-75969670D01*
X97242462Y-76782843D01*
X97242462Y-76782843D01*
G37*
G36*
X164030330Y-141944365D02*
X165055635Y-142969670D01*
X164242462Y-143782843D01*
X163217157Y-142757538D01*
X164030330Y-141944365D01*
X164030330Y-141944365D01*
G37*
G36*
X162757538Y-143217157D02*
X163782843Y-144242462D01*
X162969670Y-145055635D01*
X161944365Y-144030330D01*
X162757538Y-143217157D01*
X162757538Y-143217157D01*
G37*
D13*
X130900000Y-156000000D03*
X129100000Y-156000000D03*
D14*
X176000000Y-109100000D03*
X176000000Y-110900000D03*
D10*
G36*
X98055635Y-144030330D02*
X97030330Y-145055635D01*
X96217157Y-144242462D01*
X97242462Y-143217157D01*
X98055635Y-144030330D01*
X98055635Y-144030330D01*
G37*
G36*
X96782843Y-142757538D02*
X95757538Y-143782843D01*
X94944365Y-142969670D01*
X95969670Y-141944365D01*
X96782843Y-142757538D01*
X96782843Y-142757538D01*
G37*
G36*
X161944365Y-75833274D02*
X162969670Y-74807969D01*
X163782843Y-75621142D01*
X162757538Y-76646447D01*
X161944365Y-75833274D01*
X161944365Y-75833274D01*
G37*
G36*
X163217157Y-77106066D02*
X164242462Y-76080761D01*
X165055635Y-76893934D01*
X164030330Y-77919239D01*
X163217157Y-77106066D01*
X163217157Y-77106066D01*
G37*
D14*
X84000000Y-110900000D03*
X84000000Y-109100000D03*
D13*
X129000000Y-64000000D03*
X130800000Y-64000000D03*
D12*
X132550000Y-77100000D03*
X132550000Y-80300000D03*
X132550000Y-83500000D03*
X127550000Y-77100000D03*
X127550000Y-80300000D03*
X127550000Y-83500000D03*
D15*
X135430000Y-69580000D03*
X132410000Y-146210000D03*
X157120000Y-140290000D03*
X99820000Y-137130000D03*
X102890000Y-79630000D03*
X160070000Y-83020000D03*
X95370000Y-110930000D03*
X90470000Y-106490000D03*
X168790000Y-112480000D03*
X118800000Y-107300000D03*
X113700000Y-127700000D03*
X146100000Y-112375000D03*
X133800000Y-106650000D03*
X126375000Y-103575000D03*
X137175000Y-114925000D03*
X126425000Y-97650000D03*
X126975000Y-98450000D03*
X132975000Y-94900000D03*
X129825000Y-96250000D03*
X129550000Y-95325000D03*
X124600000Y-109325000D03*
X122600000Y-109325000D03*
X111200000Y-119900000D03*
X111200000Y-120600000D03*
X110500000Y-119800000D03*
X131700000Y-110900000D03*
X134700000Y-102700000D03*
X134600000Y-111600000D03*
X136600000Y-111700000D03*
X153000000Y-111100000D03*
X155000000Y-111200000D03*
X124500000Y-116300000D03*
X116700000Y-113900000D03*
X124000000Y-107200000D03*
X126050000Y-109200000D03*
X125900000Y-132300000D03*
X126200000Y-135100000D03*
X134800000Y-108900000D03*
X136400000Y-104100000D03*
X145100000Y-126000000D03*
X147000000Y-128100000D03*
X116500000Y-128200000D03*
X114200000Y-130100000D03*
X128700000Y-109200000D03*
X122300000Y-103600000D03*
X139000000Y-116300000D03*
X140600000Y-115200000D03*
X121100000Y-104900000D03*
X122700000Y-105900000D03*
X126225000Y-86625000D03*
X127275000Y-86950000D03*
X126975000Y-86050000D03*
X127575000Y-85425000D03*
X100136396Y-78863604D03*
X159863604Y-141136396D03*
X129100000Y-152000000D03*
X172000000Y-110900000D03*
X95863604Y-77136396D03*
X100130000Y-80880000D03*
X159510000Y-138880000D03*
X164136396Y-142863604D03*
X130900000Y-156000000D03*
X130980000Y-150240000D03*
X176000000Y-109100000D03*
X170010000Y-108540000D03*
X100930000Y-139820000D03*
X97136396Y-144136396D03*
X162863604Y-75727208D03*
X158390000Y-79950000D03*
X84000000Y-110900000D03*
X89780000Y-110970000D03*
X129000000Y-64000000D03*
X128820000Y-69970000D03*
X98727208Y-139863604D03*
X161136396Y-80136396D03*
X88000000Y-109100000D03*
X130800000Y-68000000D03*
D16*
X131700000Y-105700000D02*
X131700000Y-110900000D01*
X134700000Y-102700000D02*
X131700000Y-105700000D01*
X136600000Y-111700000D02*
X136500000Y-111600000D01*
X136500000Y-111600000D02*
X134600000Y-111600000D01*
X155000000Y-111200000D02*
X154900000Y-111100000D01*
X154900000Y-111100000D02*
X153000000Y-111100000D01*
X116700000Y-113900000D02*
X119100000Y-116300000D01*
X119100000Y-116300000D02*
X124500000Y-116300000D01*
X124675000Y-107825000D02*
X124050000Y-107200000D01*
X124050000Y-107200000D02*
X124000000Y-107200000D01*
X126050000Y-109200000D02*
X124675000Y-107825000D01*
X126200000Y-135100000D02*
X125900000Y-134800000D01*
X125900000Y-134800000D02*
X125900000Y-132300000D01*
X136400000Y-104100000D02*
X134800000Y-105700000D01*
X134800000Y-105700000D02*
X134800000Y-108900000D01*
X147000000Y-128100000D02*
X147000000Y-127900000D01*
X147000000Y-127900000D02*
X145100000Y-126000000D01*
X114200000Y-130100000D02*
X114600000Y-130100000D01*
X114600000Y-130100000D02*
X116500000Y-128200000D01*
X122300000Y-103600000D02*
X123100000Y-103600000D01*
X123100000Y-103600000D02*
X128700000Y-109200000D01*
X140600000Y-115200000D02*
X140100000Y-115200000D01*
X140100000Y-115200000D02*
X139000000Y-116300000D01*
D17*
X122700000Y-105900000D02*
X122100000Y-105900000D01*
X122100000Y-105900000D02*
X121100000Y-104900000D01*
X129200000Y-84400000D02*
X129200000Y-81950000D01*
X129200000Y-81950000D02*
X127550000Y-80300000D01*
X128175000Y-85425000D02*
X129200000Y-84400000D01*
X127575000Y-85425000D02*
X128175000Y-85425000D01*
X126975000Y-85625000D02*
X127375000Y-85625000D01*
X127375000Y-85625000D02*
X127575000Y-85425000D01*
X126225000Y-86625000D02*
X126225000Y-86375000D01*
X126225000Y-86375000D02*
X126975000Y-85625000D01*
X126975000Y-86050000D02*
X126975000Y-85625000D01*
X126975000Y-86050000D02*
X127575000Y-86650000D01*
X127575000Y-85425000D02*
X127575000Y-86350000D01*
X127575000Y-86350000D02*
X127575000Y-86650000D01*
X126975000Y-86050000D02*
X127275000Y-86050000D01*
X127275000Y-86050000D02*
X127575000Y-86350000D01*
X127575000Y-86650000D02*
X127275000Y-86950000D01*
X127275000Y-86950000D02*
X126550000Y-86950000D01*
X126550000Y-86950000D02*
X126225000Y-86625000D01*
X126225000Y-86625000D02*
X126950000Y-86625000D01*
X126950000Y-86625000D02*
X127275000Y-86950000D01*
X126975000Y-86050000D02*
X126800000Y-86050000D01*
X126800000Y-86050000D02*
X126225000Y-86625000D01*
X126975000Y-86050000D02*
X126975000Y-86650000D01*
X126975000Y-86650000D02*
X127275000Y-86950000D01*
X127575000Y-85425000D02*
X127575000Y-85450000D01*
X127575000Y-85450000D02*
X126975000Y-86050000D01*
D16*
X100136396Y-78863604D02*
X97136396Y-75863604D01*
X159863604Y-141136396D02*
X162863604Y-144136396D01*
X129100000Y-152000000D02*
X129100000Y-156000000D01*
X172000000Y-110900000D02*
X176000000Y-110900000D01*
X100130000Y-80880000D02*
X99607208Y-80880000D01*
X99607208Y-80880000D02*
X95863604Y-77136396D01*
X159510000Y-138880000D02*
X160152792Y-138880000D01*
X160152792Y-138880000D02*
X164136396Y-142863604D01*
X130980000Y-150240000D02*
X130900000Y-150320000D01*
X130900000Y-150320000D02*
X130900000Y-156000000D01*
X170010000Y-108540000D02*
X170570000Y-109100000D01*
X170570000Y-109100000D02*
X176000000Y-109100000D01*
X100930000Y-139820000D02*
X100930000Y-140342792D01*
X100930000Y-140342792D02*
X97136396Y-144136396D01*
X97136396Y-144073604D02*
X97136396Y-144136396D01*
X158390000Y-79950000D02*
X158640812Y-79950000D01*
X158640812Y-79950000D02*
X162863604Y-75727208D01*
X89780000Y-110970000D02*
X89710000Y-110900000D01*
X89710000Y-110900000D02*
X84000000Y-110900000D01*
X128820000Y-69970000D02*
X129000000Y-69790000D01*
X129000000Y-69790000D02*
X129000000Y-64000000D01*
X98727208Y-139863604D02*
X98727208Y-140000000D01*
X98727208Y-140000000D02*
X95863604Y-142863604D01*
X161136396Y-80136396D02*
X161136396Y-80000000D01*
X161136396Y-80000000D02*
X164136396Y-77000000D01*
X88000000Y-109100000D02*
X84000000Y-109100000D01*
X130800000Y-68000000D02*
X130800000Y-64000000D01*
D18*
G36*
X129976283Y-65313917D02*
X130073000Y-65333503D01*
X130073000Y-67274601D01*
X129929860Y-67417492D01*
X129773179Y-67794821D01*
X129772822Y-68203387D01*
X129928844Y-68580989D01*
X130217492Y-68870140D01*
X130594821Y-69026821D01*
X131003387Y-69027178D01*
X131380989Y-68871156D01*
X131670140Y-68582508D01*
X131773000Y-68334794D01*
X131773000Y-69999995D01*
X131772999Y-70000000D01*
X131819158Y-70232052D01*
X131828340Y-70278211D01*
X131985933Y-70514067D01*
X132221789Y-70671660D01*
X132267948Y-70680842D01*
X132500000Y-70727001D01*
X132732052Y-70680842D01*
X132778211Y-70671660D01*
X133014067Y-70514067D01*
X138000000Y-65528134D01*
X139471866Y-67000000D01*
X134485933Y-71985933D01*
X134328340Y-72221789D01*
X134319158Y-72267948D01*
X134272999Y-72500000D01*
X134273000Y-72500005D01*
X134273000Y-77499995D01*
X134272999Y-77500000D01*
X134311689Y-77694503D01*
X134328340Y-77778211D01*
X134485933Y-78014067D01*
X134721789Y-78171660D01*
X134767948Y-78180842D01*
X135000000Y-78227001D01*
X135232052Y-78180842D01*
X135278211Y-78171660D01*
X135514067Y-78014067D01*
X140000000Y-73528134D01*
X141471866Y-75000000D01*
X134485933Y-81985933D01*
X134328340Y-82221789D01*
X134328340Y-82221790D01*
X134272999Y-82500000D01*
X134273000Y-82500005D01*
X134273000Y-85000000D01*
X134328340Y-85278211D01*
X134485933Y-85514067D01*
X134721789Y-85671660D01*
X135000000Y-85727000D01*
X139698866Y-85727000D01*
X143485931Y-89514064D01*
X143485933Y-89514067D01*
X143627319Y-89608537D01*
X143721789Y-89671660D01*
X143767948Y-89680842D01*
X144000000Y-89727001D01*
X144278210Y-89671660D01*
X144514067Y-89514067D01*
X146514067Y-87514067D01*
X146671660Y-87278211D01*
X146727000Y-87000000D01*
X146727000Y-76727000D01*
X149273000Y-76727000D01*
X149273000Y-82999995D01*
X149272999Y-83000000D01*
X149318154Y-83227001D01*
X149328340Y-83278211D01*
X149485933Y-83514067D01*
X149721789Y-83671660D01*
X149767948Y-83680842D01*
X150000000Y-83727001D01*
X150232052Y-83680842D01*
X150278211Y-83671660D01*
X150514067Y-83514067D01*
X150514068Y-83514066D01*
X154514064Y-79514069D01*
X154514067Y-79514067D01*
X154671660Y-79278211D01*
X154727000Y-79000000D01*
X154727000Y-72227000D01*
X157273000Y-72227000D01*
X157273000Y-78999995D01*
X157272999Y-79000000D01*
X157301209Y-79141815D01*
X157328340Y-79278211D01*
X157469320Y-79489204D01*
X157363179Y-79744821D01*
X157362822Y-80153387D01*
X157518844Y-80530989D01*
X157807492Y-80820140D01*
X158184821Y-80976821D01*
X158593387Y-80977178D01*
X158970989Y-80821156D01*
X159260140Y-80532508D01*
X159383485Y-80235461D01*
X162433201Y-77185744D01*
X162500709Y-77231871D01*
X162607633Y-77255066D01*
X162624861Y-77346623D01*
X162679401Y-77428862D01*
X160998986Y-79109276D01*
X160933009Y-79109218D01*
X160555407Y-79265240D01*
X160266256Y-79553888D01*
X160109575Y-79931217D01*
X160109218Y-80339783D01*
X160265240Y-80717385D01*
X160553888Y-81006536D01*
X160844611Y-81127255D01*
X160485933Y-81485933D01*
X160328340Y-81721789D01*
X160319158Y-81767948D01*
X160272999Y-82000000D01*
X160296848Y-82119892D01*
X160328340Y-82278211D01*
X160485933Y-82514067D01*
X160721789Y-82671660D01*
X160767948Y-82680842D01*
X161000000Y-82727001D01*
X161000005Y-82727000D01*
X167773000Y-82727000D01*
X167773000Y-85273000D01*
X161000000Y-85273000D01*
X160721789Y-85328340D01*
X160485933Y-85485933D01*
X160485931Y-85485936D01*
X156485933Y-89485933D01*
X156328340Y-89721789D01*
X156327303Y-89727001D01*
X156272999Y-90000000D01*
X156319158Y-90232052D01*
X156328340Y-90278211D01*
X156485933Y-90514067D01*
X156721789Y-90671660D01*
X156767948Y-90680842D01*
X157000000Y-90727001D01*
X157000005Y-90727000D01*
X163273000Y-90727000D01*
X163273000Y-93273000D01*
X153000000Y-93273000D01*
X152721789Y-93328340D01*
X152485933Y-93485933D01*
X150485933Y-95485933D01*
X150328340Y-95721790D01*
X150272999Y-96000000D01*
X150328340Y-96278210D01*
X150485933Y-96514067D01*
X154273000Y-100301133D01*
X154273000Y-105000000D01*
X154328340Y-105278211D01*
X154485933Y-105514067D01*
X154721789Y-105671660D01*
X155000000Y-105727000D01*
X157499995Y-105727000D01*
X157500000Y-105727001D01*
X157732052Y-105680842D01*
X157778211Y-105671660D01*
X158014067Y-105514067D01*
X165000000Y-98528134D01*
X166471866Y-100000000D01*
X161985933Y-104485933D01*
X161828340Y-104721789D01*
X161828340Y-104721790D01*
X161772999Y-105000000D01*
X161819158Y-105232052D01*
X161828340Y-105278211D01*
X161985933Y-105514067D01*
X162221789Y-105671660D01*
X162267948Y-105680842D01*
X162500000Y-105727001D01*
X162500005Y-105727000D01*
X167499995Y-105727000D01*
X167500000Y-105727001D01*
X167732052Y-105680842D01*
X167778211Y-105671660D01*
X168014067Y-105514067D01*
X173000000Y-100528134D01*
X174471866Y-102000000D01*
X169485933Y-106985933D01*
X169328340Y-107221789D01*
X169328340Y-107221790D01*
X169272999Y-107500000D01*
X169287928Y-107575050D01*
X169326868Y-107770810D01*
X169139860Y-107957492D01*
X168983179Y-108334821D01*
X168982822Y-108743387D01*
X169138844Y-109120989D01*
X169427492Y-109410140D01*
X169804821Y-109566821D01*
X170008866Y-109566999D01*
X170055931Y-109614064D01*
X170055933Y-109614067D01*
X170213527Y-109719367D01*
X170291790Y-109771661D01*
X170570000Y-109827001D01*
X170570005Y-109827000D01*
X174664318Y-109827000D01*
X174679437Y-109907352D01*
X174738643Y-109999360D01*
X174686083Y-110076283D01*
X174666497Y-110173000D01*
X172725399Y-110173000D01*
X172582508Y-110029860D01*
X172205179Y-109873179D01*
X171796613Y-109872822D01*
X171419011Y-110028844D01*
X171129860Y-110317492D01*
X170973179Y-110694821D01*
X170972822Y-111103387D01*
X171128844Y-111480989D01*
X171417492Y-111770140D01*
X171424380Y-111773000D01*
X170000005Y-111773000D01*
X170000000Y-111772999D01*
X169767948Y-111819158D01*
X169721789Y-111828340D01*
X169485933Y-111985933D01*
X169328340Y-112221789D01*
X169328340Y-112221790D01*
X169272999Y-112500000D01*
X169298226Y-112626821D01*
X169328340Y-112778211D01*
X169485932Y-113014066D01*
X174471866Y-118000000D01*
X173000000Y-119471866D01*
X168014067Y-114485933D01*
X167906511Y-114414067D01*
X167778211Y-114328340D01*
X167732052Y-114319158D01*
X167500000Y-114272999D01*
X167499995Y-114273000D01*
X162500005Y-114273000D01*
X162500000Y-114272999D01*
X162267948Y-114319158D01*
X162221789Y-114328340D01*
X161985933Y-114485933D01*
X161828340Y-114721789D01*
X161828340Y-114721790D01*
X161772999Y-115000000D01*
X161807649Y-115174190D01*
X161828340Y-115278211D01*
X161913177Y-115405179D01*
X161985933Y-115514067D01*
X166471866Y-120000000D01*
X165000000Y-121471866D01*
X158014067Y-114485933D01*
X157906511Y-114414067D01*
X157778211Y-114328340D01*
X157732052Y-114319158D01*
X157500000Y-114272999D01*
X157499995Y-114273000D01*
X155000000Y-114273000D01*
X154721789Y-114328340D01*
X154485933Y-114485933D01*
X154328340Y-114721789D01*
X154273000Y-115000000D01*
X154273000Y-119698867D01*
X150485933Y-123485933D01*
X150328340Y-123721790D01*
X150272999Y-124000000D01*
X150328340Y-124278210D01*
X150485933Y-124514067D01*
X152485933Y-126514067D01*
X152721789Y-126671660D01*
X153000000Y-126727000D01*
X163273000Y-126727000D01*
X163273000Y-129273000D01*
X157000005Y-129273000D01*
X157000000Y-129272999D01*
X156767948Y-129319158D01*
X156721789Y-129328340D01*
X156485933Y-129485933D01*
X156328340Y-129721789D01*
X156328340Y-129721790D01*
X156272999Y-130000000D01*
X156292891Y-130100000D01*
X156328340Y-130278211D01*
X156467135Y-130485933D01*
X156485933Y-130514067D01*
X160485931Y-134514064D01*
X160485933Y-134514067D01*
X160721789Y-134671660D01*
X161000000Y-134727000D01*
X167773000Y-134727000D01*
X167773000Y-137273000D01*
X161000005Y-137273000D01*
X161000000Y-137272999D01*
X160767948Y-137319158D01*
X160721789Y-137328340D01*
X160485933Y-137485933D01*
X160328340Y-137721789D01*
X160328340Y-137721790D01*
X160272999Y-138000000D01*
X160309639Y-138184199D01*
X160255866Y-138173502D01*
X160092508Y-138009860D01*
X159715179Y-137853179D01*
X159306613Y-137852822D01*
X158929011Y-138008844D01*
X158639860Y-138297492D01*
X158483179Y-138674821D01*
X158482822Y-139083387D01*
X158638844Y-139460989D01*
X158927492Y-139750140D01*
X159304821Y-139906821D01*
X159713387Y-139907178D01*
X160023642Y-139778983D01*
X162677860Y-142433201D01*
X162631733Y-142500709D01*
X162608538Y-142607633D01*
X162516981Y-142624861D01*
X162434742Y-142679401D01*
X160890605Y-141135263D01*
X160890782Y-140933009D01*
X160734760Y-140555407D01*
X160446112Y-140266256D01*
X160068783Y-140109575D01*
X159660217Y-140109218D01*
X159282615Y-140265240D01*
X158993464Y-140553888D01*
X158872745Y-140844611D01*
X158514067Y-140485933D01*
X158399519Y-140409395D01*
X158278211Y-140328340D01*
X158232052Y-140319158D01*
X158000000Y-140272999D01*
X157767948Y-140319158D01*
X157721789Y-140328340D01*
X157485933Y-140485933D01*
X157328340Y-140721789D01*
X157325962Y-140733744D01*
X157272999Y-141000000D01*
X157273000Y-141000005D01*
X157273000Y-147773000D01*
X154727000Y-147773000D01*
X154727000Y-141000000D01*
X154671660Y-140721789D01*
X154514067Y-140485933D01*
X154514064Y-140485931D01*
X150514067Y-136485933D01*
X150278211Y-136328340D01*
X150232052Y-136319158D01*
X150000000Y-136272999D01*
X149767948Y-136319158D01*
X149721789Y-136328340D01*
X149485933Y-136485933D01*
X149328340Y-136721789D01*
X149328340Y-136721790D01*
X149272999Y-137000000D01*
X149273000Y-137000005D01*
X149273000Y-143273000D01*
X146727000Y-143273000D01*
X146727000Y-133000000D01*
X146671660Y-132721789D01*
X146514067Y-132485933D01*
X144514067Y-130485933D01*
X144278210Y-130328340D01*
X144000000Y-130272999D01*
X143767948Y-130319158D01*
X143721789Y-130328340D01*
X143647152Y-130378211D01*
X143485933Y-130485933D01*
X143485931Y-130485936D01*
X139698866Y-134273000D01*
X135000000Y-134273000D01*
X134721789Y-134328340D01*
X134485933Y-134485933D01*
X134328340Y-134721789D01*
X134273000Y-135000000D01*
X134273000Y-137499995D01*
X134272999Y-137500000D01*
X134317117Y-137721789D01*
X134328340Y-137778211D01*
X134378432Y-137853179D01*
X134485933Y-138014067D01*
X141471866Y-145000000D01*
X140000000Y-146471866D01*
X135514067Y-141985933D01*
X135278211Y-141828340D01*
X135232052Y-141819158D01*
X135000000Y-141772999D01*
X134767948Y-141819158D01*
X134721789Y-141828340D01*
X134485933Y-141985933D01*
X134328340Y-142221789D01*
X134328340Y-142221790D01*
X134272999Y-142500000D01*
X134273000Y-142500005D01*
X134273000Y-147499995D01*
X134272999Y-147500000D01*
X134319158Y-147732052D01*
X134328340Y-147778211D01*
X134361835Y-147828340D01*
X134485933Y-148014067D01*
X139471866Y-153000000D01*
X138000000Y-154471866D01*
X133014067Y-149485933D01*
X132840350Y-149369860D01*
X132778211Y-149328340D01*
X132732052Y-149319158D01*
X132500000Y-149272999D01*
X132267948Y-149319158D01*
X132221789Y-149328340D01*
X131985933Y-149485933D01*
X131858466Y-149676702D01*
X131851156Y-149659011D01*
X131562508Y-149369860D01*
X131185179Y-149213179D01*
X130776613Y-149212822D01*
X130399011Y-149368844D01*
X130109860Y-149657492D01*
X129953179Y-150034821D01*
X129952822Y-150443387D01*
X130108844Y-150820989D01*
X130173000Y-150885257D01*
X130173000Y-154664318D01*
X130092648Y-154679437D01*
X130000640Y-154738643D01*
X129923717Y-154686083D01*
X129827000Y-154666497D01*
X129827000Y-152725399D01*
X129970140Y-152582508D01*
X130126821Y-152205179D01*
X130127178Y-151796613D01*
X129971156Y-151419011D01*
X129682508Y-151129860D01*
X129305179Y-150973179D01*
X128896613Y-150972822D01*
X128519011Y-151128844D01*
X128229860Y-151417492D01*
X128227000Y-151424380D01*
X128227000Y-150000005D01*
X128227001Y-150000000D01*
X128171661Y-149721789D01*
X128014067Y-149485933D01*
X127778211Y-149328339D01*
X127500000Y-149272999D01*
X127221790Y-149328339D01*
X127143527Y-149380633D01*
X126985933Y-149485933D01*
X126985931Y-149485936D01*
X122000000Y-154471866D01*
X120528134Y-153000000D01*
X125514064Y-148014069D01*
X125514067Y-148014067D01*
X125671660Y-147778211D01*
X125671661Y-147778210D01*
X125727001Y-147500000D01*
X125727000Y-147499995D01*
X125727000Y-142500005D01*
X125727001Y-142500000D01*
X125671660Y-142221789D01*
X125514067Y-141985933D01*
X125278211Y-141828340D01*
X125000000Y-141772999D01*
X124767948Y-141819158D01*
X124721789Y-141828340D01*
X124485933Y-141985933D01*
X124485931Y-141985936D01*
X120000000Y-146471866D01*
X118528134Y-145000000D01*
X125514064Y-138014069D01*
X125514067Y-138014067D01*
X125671660Y-137778211D01*
X125682883Y-137721789D01*
X125727001Y-137500000D01*
X125727000Y-137499995D01*
X125727000Y-136015612D01*
X125994821Y-136126821D01*
X126403387Y-136127178D01*
X126780989Y-135971156D01*
X127070140Y-135682508D01*
X127226821Y-135305179D01*
X127227178Y-134896613D01*
X127071156Y-134519011D01*
X126782508Y-134229860D01*
X126627000Y-134165287D01*
X126627000Y-133502532D01*
X129027073Y-133502532D01*
X129125736Y-133769387D01*
X129735461Y-133995908D01*
X130385460Y-133971856D01*
X130874264Y-133769387D01*
X130972927Y-133502532D01*
X130000000Y-132529605D01*
X129027073Y-133502532D01*
X126627000Y-133502532D01*
X126627000Y-133025399D01*
X126770140Y-132882508D01*
X126926821Y-132505179D01*
X126927178Y-132096613D01*
X126922571Y-132085461D01*
X128354092Y-132085461D01*
X128378144Y-132735460D01*
X128580613Y-133224264D01*
X128847468Y-133322927D01*
X129820395Y-132350000D01*
X130179605Y-132350000D01*
X131152532Y-133322927D01*
X131419387Y-133224264D01*
X131645908Y-132614539D01*
X131621856Y-131964540D01*
X131419387Y-131475736D01*
X131152532Y-131377073D01*
X130179605Y-132350000D01*
X129820395Y-132350000D01*
X128847468Y-131377073D01*
X128580613Y-131475736D01*
X128354092Y-132085461D01*
X126922571Y-132085461D01*
X126771156Y-131719011D01*
X126482508Y-131429860D01*
X126105179Y-131273179D01*
X125696613Y-131272822D01*
X125319011Y-131428844D01*
X125029860Y-131717492D01*
X124873179Y-132094821D01*
X124872822Y-132503387D01*
X125028844Y-132880989D01*
X125173000Y-133025396D01*
X125173000Y-134307412D01*
X125000000Y-134273000D01*
X120301133Y-134273000D01*
X117225602Y-131197468D01*
X129027073Y-131197468D01*
X130000000Y-132170395D01*
X130972927Y-131197468D01*
X130874264Y-130930613D01*
X130264539Y-130704092D01*
X129614540Y-130728144D01*
X129125736Y-130930613D01*
X129027073Y-131197468D01*
X117225602Y-131197468D01*
X116514067Y-130485933D01*
X116278210Y-130328340D01*
X116000000Y-130272999D01*
X115767948Y-130319158D01*
X115721789Y-130328340D01*
X115485933Y-130485933D01*
X113485933Y-132485933D01*
X113328340Y-132721789D01*
X113328340Y-132721790D01*
X113272999Y-133000000D01*
X113273000Y-133000005D01*
X113273000Y-143273000D01*
X110727000Y-143273000D01*
X110727000Y-137000000D01*
X110671660Y-136721789D01*
X110514067Y-136485933D01*
X110278211Y-136328340D01*
X110000000Y-136273000D01*
X109721789Y-136328340D01*
X109485933Y-136485933D01*
X109485931Y-136485936D01*
X105485933Y-140485933D01*
X105328340Y-140721789D01*
X105325962Y-140733744D01*
X105272999Y-141000000D01*
X105273000Y-141000005D01*
X105273000Y-147773000D01*
X102727000Y-147773000D01*
X102727000Y-141000005D01*
X102727001Y-141000000D01*
X102671660Y-140721789D01*
X102514067Y-140485933D01*
X102278211Y-140328340D01*
X102000000Y-140272999D01*
X101840764Y-140304674D01*
X101956821Y-140025179D01*
X101957178Y-139616613D01*
X101801156Y-139239011D01*
X101512508Y-138949860D01*
X101135179Y-138793179D01*
X100726613Y-138792822D01*
X100349011Y-138948844D01*
X100059860Y-139237492D01*
X99903179Y-139614821D01*
X99902822Y-140023387D01*
X99995931Y-140248728D01*
X97566799Y-142677859D01*
X97499291Y-142631733D01*
X97392367Y-142608538D01*
X97375139Y-142516981D01*
X97320599Y-142434743D01*
X98864617Y-140890724D01*
X98930595Y-140890782D01*
X99308197Y-140734760D01*
X99597348Y-140446112D01*
X99754029Y-140068783D01*
X99754386Y-139660217D01*
X99598364Y-139282615D01*
X99309716Y-138993464D01*
X99115369Y-138912764D01*
X99514064Y-138514069D01*
X99514067Y-138514067D01*
X99671660Y-138278211D01*
X99685558Y-138208340D01*
X99727001Y-138000000D01*
X99671660Y-137721789D01*
X99514067Y-137485933D01*
X99278211Y-137328340D01*
X99000000Y-137272999D01*
X98999995Y-137273000D01*
X92227000Y-137273000D01*
X92227000Y-134727000D01*
X98999995Y-134727000D01*
X99000000Y-134727001D01*
X99232052Y-134680842D01*
X99278211Y-134671660D01*
X99514067Y-134514067D01*
X99514068Y-134514066D01*
X103514064Y-130514069D01*
X103514067Y-130514067D01*
X103654838Y-130303387D01*
X113172822Y-130303387D01*
X113328844Y-130680989D01*
X113617492Y-130970140D01*
X113994821Y-131126821D01*
X114403387Y-131127178D01*
X114780989Y-130971156D01*
X115070140Y-130682508D01*
X115092604Y-130628408D01*
X115114067Y-130614067D01*
X116501132Y-129227001D01*
X116703387Y-129227178D01*
X117080989Y-129071156D01*
X117370140Y-128782508D01*
X117526821Y-128405179D01*
X117527178Y-127996613D01*
X117371156Y-127619011D01*
X117269088Y-127516765D01*
X117465803Y-127320394D01*
X117637740Y-126906324D01*
X117638131Y-126457975D01*
X117466917Y-126043606D01*
X117150164Y-125726299D01*
X116736094Y-125554362D01*
X116287745Y-125553971D01*
X115873376Y-125725185D01*
X115556069Y-126041938D01*
X115384132Y-126456008D01*
X115383741Y-126904357D01*
X115444555Y-127051538D01*
X115299253Y-126991203D01*
X114850904Y-126990812D01*
X114436535Y-127162026D01*
X114119228Y-127478779D01*
X113947291Y-127892849D01*
X113946900Y-128341198D01*
X114118114Y-128755567D01*
X114434867Y-129072874D01*
X114550837Y-129121029D01*
X114541911Y-129129955D01*
X114405179Y-129073179D01*
X113996613Y-129072822D01*
X113619011Y-129228844D01*
X113329860Y-129517492D01*
X113173179Y-129894821D01*
X113172822Y-130303387D01*
X103654838Y-130303387D01*
X103671660Y-130278211D01*
X103727000Y-130000000D01*
X103671660Y-129721789D01*
X103514067Y-129485933D01*
X103278211Y-129328340D01*
X103000000Y-129273000D01*
X96727000Y-129273000D01*
X96727000Y-126727000D01*
X107000000Y-126727000D01*
X107137725Y-126699605D01*
X107275266Y-126672872D01*
X107276619Y-126671977D01*
X107278211Y-126671660D01*
X107394951Y-126593657D01*
X107511810Y-126516313D01*
X107512716Y-126514970D01*
X107514067Y-126514067D01*
X107591999Y-126397434D01*
X107670436Y-126281150D01*
X107670760Y-126279558D01*
X107671660Y-126278211D01*
X107699002Y-126140757D01*
X107726993Y-126003185D01*
X107726683Y-126001592D01*
X107727000Y-126000000D01*
X107699648Y-125862494D01*
X107672873Y-125724734D01*
X107573570Y-125481994D01*
X107860810Y-125424858D01*
X108749388Y-125056796D01*
X108834389Y-125000000D01*
X116772999Y-125000000D01*
X116828340Y-125278210D01*
X116985933Y-125514067D01*
X121985931Y-130514064D01*
X121985933Y-130514067D01*
X122221789Y-130671660D01*
X122267948Y-130680842D01*
X122500000Y-130727001D01*
X122778211Y-130671660D01*
X123014067Y-130514067D01*
X123171660Y-130278211D01*
X123227001Y-130000000D01*
X123227000Y-129999995D01*
X123227000Y-120000005D01*
X123227001Y-120000000D01*
X136772999Y-120000000D01*
X136773000Y-120000005D01*
X136773000Y-129999995D01*
X136772999Y-130000000D01*
X136792891Y-130100000D01*
X136828340Y-130278211D01*
X136985933Y-130514067D01*
X137221789Y-130671660D01*
X137267948Y-130680842D01*
X137500000Y-130727001D01*
X137732052Y-130680842D01*
X137778211Y-130671660D01*
X138014067Y-130514067D01*
X142324746Y-126203387D01*
X144072822Y-126203387D01*
X144228844Y-126580989D01*
X144517492Y-126870140D01*
X144894821Y-127026821D01*
X145098866Y-127026999D01*
X145973173Y-127901307D01*
X145972822Y-128303387D01*
X146128844Y-128680989D01*
X146417492Y-128970140D01*
X146794821Y-129126821D01*
X147203387Y-129127178D01*
X147580989Y-128971156D01*
X147870140Y-128682508D01*
X148026821Y-128305179D01*
X148027178Y-127896613D01*
X147871156Y-127519011D01*
X147582508Y-127229860D01*
X147205179Y-127073179D01*
X147201309Y-127073176D01*
X146127001Y-125998868D01*
X146127178Y-125796613D01*
X145971156Y-125419011D01*
X145682508Y-125129860D01*
X145305179Y-124973179D01*
X144896613Y-124972822D01*
X144519011Y-125128844D01*
X144229860Y-125417492D01*
X144073179Y-125794821D01*
X144072822Y-126203387D01*
X142324746Y-126203387D01*
X143014064Y-125514069D01*
X143014067Y-125514067D01*
X143171660Y-125278211D01*
X143227001Y-125000000D01*
X143221595Y-124972822D01*
X143171660Y-124721789D01*
X143014067Y-124485933D01*
X143014064Y-124485931D01*
X138014067Y-119485933D01*
X137778211Y-119328340D01*
X137732052Y-119319158D01*
X137500000Y-119272999D01*
X137267948Y-119319158D01*
X137221789Y-119328340D01*
X136985933Y-119485933D01*
X136828340Y-119721789D01*
X136828340Y-119721790D01*
X136772999Y-120000000D01*
X123227001Y-120000000D01*
X123171660Y-119721789D01*
X123014067Y-119485933D01*
X122778211Y-119328340D01*
X122500000Y-119272999D01*
X122267948Y-119319158D01*
X122221789Y-119328340D01*
X121985933Y-119485933D01*
X121985931Y-119485936D01*
X116985933Y-124485933D01*
X116828340Y-124721790D01*
X116772999Y-125000000D01*
X108834389Y-125000000D01*
X109115013Y-124812493D01*
X109359315Y-124446867D01*
X109442100Y-124030675D01*
X111073218Y-124030675D01*
X111244432Y-124445044D01*
X111561185Y-124762351D01*
X111975255Y-124934288D01*
X112423604Y-124934679D01*
X112837973Y-124763465D01*
X113155280Y-124446712D01*
X113327217Y-124032642D01*
X113327608Y-123584293D01*
X113156394Y-123169924D01*
X112839641Y-122852617D01*
X112425571Y-122680680D01*
X111977222Y-122680289D01*
X111562853Y-122851503D01*
X111245546Y-123168256D01*
X111073609Y-123582326D01*
X111073218Y-124030675D01*
X109442100Y-124030675D01*
X109445102Y-124015583D01*
X109359315Y-123584299D01*
X109115011Y-123218674D01*
X108749386Y-122974372D01*
X108318102Y-122888584D01*
X107886818Y-122974372D01*
X106998240Y-123342434D01*
X106762684Y-123499828D01*
X105865709Y-121307222D01*
X108634074Y-121307222D01*
X108719862Y-121738507D01*
X108964165Y-122104131D01*
X109329790Y-122348434D01*
X109761074Y-122434222D01*
X110192359Y-122348434D01*
X110468650Y-122233990D01*
X110834275Y-121989687D01*
X111078578Y-121624062D01*
X111164365Y-121192778D01*
X111078578Y-120761494D01*
X110834275Y-120395869D01*
X110468649Y-120151566D01*
X110037365Y-120065778D01*
X109606081Y-120151566D01*
X109329789Y-120266010D01*
X108964165Y-120510313D01*
X108719862Y-120875938D01*
X108634074Y-121307222D01*
X105865709Y-121307222D01*
X104717300Y-118500000D01*
X110272999Y-118500000D01*
X110318154Y-118727001D01*
X110328340Y-118778211D01*
X110485933Y-119014067D01*
X114485931Y-123014064D01*
X114485933Y-123014067D01*
X114627319Y-123108537D01*
X114721789Y-123171660D01*
X114767948Y-123180842D01*
X115000000Y-123227001D01*
X115278210Y-123171660D01*
X115514067Y-123014067D01*
X120514064Y-118014069D01*
X120514067Y-118014067D01*
X120671660Y-117778211D01*
X120685136Y-117710464D01*
X120727001Y-117500000D01*
X120671660Y-117221789D01*
X120541507Y-117027000D01*
X123774601Y-117027000D01*
X123917492Y-117170140D01*
X124294821Y-117326821D01*
X124703387Y-117327178D01*
X125080989Y-117171156D01*
X125370140Y-116882508D01*
X125526821Y-116505179D01*
X125526822Y-116503387D01*
X137972822Y-116503387D01*
X138128844Y-116880989D01*
X138417492Y-117170140D01*
X138794821Y-117326821D01*
X139203387Y-117327178D01*
X139316689Y-117280363D01*
X139272999Y-117500000D01*
X139314864Y-117710464D01*
X139328340Y-117778211D01*
X139340395Y-117796252D01*
X139485933Y-118014067D01*
X144485931Y-123014064D01*
X144485933Y-123014067D01*
X144721790Y-123171660D01*
X145000000Y-123227001D01*
X145278211Y-123171660D01*
X145514067Y-123014067D01*
X145514068Y-123014066D01*
X150514064Y-118014069D01*
X150514067Y-118014067D01*
X150671660Y-117778211D01*
X150685136Y-117710464D01*
X150727001Y-117500000D01*
X150671660Y-117221789D01*
X150514067Y-116985933D01*
X150278211Y-116828340D01*
X150000000Y-116772999D01*
X149999995Y-116773000D01*
X140000005Y-116773000D01*
X140000000Y-116772999D01*
X139908014Y-116791297D01*
X140026821Y-116505179D01*
X140026999Y-116301135D01*
X140187430Y-116140704D01*
X140394821Y-116226821D01*
X140803387Y-116227178D01*
X141180989Y-116071156D01*
X141470140Y-115782508D01*
X141626821Y-115405179D01*
X141627178Y-114996613D01*
X141471156Y-114619011D01*
X141182508Y-114329860D01*
X140805179Y-114173179D01*
X140396613Y-114172822D01*
X140019011Y-114328844D01*
X139813861Y-114533638D01*
X139585933Y-114685933D01*
X138998867Y-115272999D01*
X138796613Y-115272822D01*
X138419011Y-115428844D01*
X138129860Y-115717492D01*
X137973179Y-116094821D01*
X137972822Y-116503387D01*
X125526822Y-116503387D01*
X125527178Y-116096613D01*
X125371156Y-115719011D01*
X125082508Y-115429860D01*
X124705179Y-115273179D01*
X124296613Y-115272822D01*
X123919011Y-115428844D01*
X123774604Y-115573000D01*
X119401133Y-115573000D01*
X117727001Y-113898867D01*
X117727178Y-113696613D01*
X117571156Y-113319011D01*
X117282508Y-113029860D01*
X116905179Y-112873179D01*
X116496613Y-112872822D01*
X116119011Y-113028844D01*
X115829860Y-113317492D01*
X115673179Y-113694821D01*
X115672822Y-114103387D01*
X115828844Y-114480989D01*
X116117492Y-114770140D01*
X116494821Y-114926821D01*
X116698866Y-114926999D01*
X118544867Y-116773000D01*
X111000000Y-116773000D01*
X110721789Y-116828340D01*
X110485933Y-116985933D01*
X110328340Y-117221789D01*
X110273000Y-117500000D01*
X110273000Y-118499995D01*
X110272999Y-118500000D01*
X104717300Y-118500000D01*
X104414708Y-117760331D01*
X104665404Y-117710464D01*
X105553982Y-117342402D01*
X105773149Y-117195959D01*
X106931133Y-117195959D01*
X107016921Y-117627244D01*
X107261224Y-117992868D01*
X107626849Y-118237171D01*
X108058133Y-118322959D01*
X108489418Y-118237171D01*
X108765709Y-118122727D01*
X109131334Y-117878424D01*
X109375637Y-117512799D01*
X109461424Y-117081515D01*
X109375637Y-116650231D01*
X109131334Y-116284606D01*
X108765708Y-116040303D01*
X108334424Y-115954515D01*
X107903140Y-116040303D01*
X107626848Y-116154747D01*
X107261224Y-116399050D01*
X107016921Y-116764675D01*
X106931133Y-117195959D01*
X105773149Y-117195959D01*
X105919607Y-117098099D01*
X106163909Y-116732473D01*
X106249696Y-116301189D01*
X106163909Y-115869905D01*
X105919605Y-115504280D01*
X105553980Y-115259978D01*
X105122696Y-115174190D01*
X104691412Y-115259978D01*
X103802834Y-115628040D01*
X103598313Y-115764697D01*
X103172873Y-114724734D01*
X103171976Y-114723379D01*
X103171660Y-114721789D01*
X103093710Y-114605127D01*
X103016313Y-114488190D01*
X103014970Y-114487284D01*
X103014067Y-114485933D01*
X102897434Y-114408001D01*
X102781150Y-114329564D01*
X102779558Y-114329240D01*
X102778211Y-114328340D01*
X102640648Y-114300976D01*
X102503185Y-114273007D01*
X102501594Y-114273316D01*
X102500000Y-114272999D01*
X102362405Y-114300369D01*
X102224734Y-114327127D01*
X102223379Y-114328024D01*
X102221790Y-114328340D01*
X102105233Y-114406220D01*
X101988190Y-114483687D01*
X101987283Y-114485032D01*
X101985934Y-114485933D01*
X95000000Y-121471866D01*
X93528134Y-120000000D01*
X98014064Y-115514069D01*
X98014067Y-115514067D01*
X98171660Y-115278211D01*
X98192351Y-115174190D01*
X98227001Y-115000000D01*
X98171660Y-114721789D01*
X98014067Y-114485933D01*
X97778211Y-114328340D01*
X97500000Y-114272999D01*
X97499995Y-114273000D01*
X92500005Y-114273000D01*
X92500000Y-114272999D01*
X92221790Y-114328339D01*
X92219957Y-114329564D01*
X91985933Y-114485933D01*
X91985931Y-114485936D01*
X87000000Y-119471866D01*
X85528134Y-118000000D01*
X90514064Y-113014069D01*
X90514067Y-113014067D01*
X90671660Y-112778211D01*
X90671661Y-112778210D01*
X90727001Y-112500000D01*
X90671661Y-112221789D01*
X90514067Y-111985933D01*
X90321693Y-111857393D01*
X90360989Y-111841156D01*
X90650140Y-111552508D01*
X90806821Y-111175179D01*
X90806883Y-111103387D01*
X130672822Y-111103387D01*
X130828844Y-111480989D01*
X131117492Y-111770140D01*
X131494821Y-111926821D01*
X131903387Y-111927178D01*
X132202984Y-111803387D01*
X133572822Y-111803387D01*
X133728844Y-112180989D01*
X134017492Y-112470140D01*
X134394821Y-112626821D01*
X134803387Y-112627178D01*
X135180989Y-112471156D01*
X135325396Y-112327000D01*
X135774775Y-112327000D01*
X136017492Y-112570140D01*
X136394821Y-112726821D01*
X136803387Y-112727178D01*
X137180989Y-112571156D01*
X137470140Y-112282508D01*
X137557463Y-112072211D01*
X141622718Y-112072211D01*
X141869892Y-112670418D01*
X142327175Y-113128499D01*
X142924950Y-113376717D01*
X143572211Y-113377282D01*
X144170418Y-113130108D01*
X144628499Y-112672825D01*
X144876717Y-112075050D01*
X144876719Y-112072211D01*
X148122718Y-112072211D01*
X148369892Y-112670418D01*
X148827175Y-113128499D01*
X149424950Y-113376717D01*
X150072211Y-113377282D01*
X150670418Y-113130108D01*
X151128499Y-112672825D01*
X151376717Y-112075050D01*
X151377282Y-111427789D01*
X151325881Y-111303387D01*
X151972822Y-111303387D01*
X152128844Y-111680989D01*
X152417492Y-111970140D01*
X152794821Y-112126821D01*
X153203387Y-112127178D01*
X153580989Y-111971156D01*
X153725396Y-111827000D01*
X154174775Y-111827000D01*
X154417492Y-112070140D01*
X154794821Y-112226821D01*
X155203387Y-112227178D01*
X155580989Y-112071156D01*
X155870140Y-111782508D01*
X156026821Y-111405179D01*
X156027178Y-110996613D01*
X155871156Y-110619011D01*
X155582508Y-110329860D01*
X155205179Y-110173179D01*
X154796613Y-110172822D01*
X154419011Y-110328844D01*
X154374778Y-110373000D01*
X153725399Y-110373000D01*
X153582508Y-110229860D01*
X153205179Y-110073179D01*
X152796613Y-110072822D01*
X152419011Y-110228844D01*
X152129860Y-110517492D01*
X151973179Y-110894821D01*
X151972822Y-111303387D01*
X151325881Y-111303387D01*
X151130108Y-110829582D01*
X150672825Y-110371501D01*
X150075050Y-110123283D01*
X149427789Y-110122718D01*
X148829582Y-110369892D01*
X148371501Y-110827175D01*
X148123283Y-111424950D01*
X148122718Y-112072211D01*
X144876719Y-112072211D01*
X144877282Y-111427789D01*
X144630108Y-110829582D01*
X144172825Y-110371501D01*
X143575050Y-110123283D01*
X142927789Y-110122718D01*
X142329582Y-110369892D01*
X141871501Y-110827175D01*
X141623283Y-111424950D01*
X141622718Y-112072211D01*
X137557463Y-112072211D01*
X137626821Y-111905179D01*
X137627178Y-111496613D01*
X137471156Y-111119011D01*
X137182508Y-110829860D01*
X136805179Y-110673179D01*
X136396613Y-110672822D01*
X136019011Y-110828844D01*
X135974778Y-110873000D01*
X135325399Y-110873000D01*
X135182508Y-110729860D01*
X134805179Y-110573179D01*
X134396613Y-110572822D01*
X134019011Y-110728844D01*
X133729860Y-111017492D01*
X133573179Y-111394821D01*
X133572822Y-111803387D01*
X132202984Y-111803387D01*
X132280989Y-111771156D01*
X132570140Y-111482508D01*
X132726821Y-111105179D01*
X132727178Y-110696613D01*
X132571156Y-110319011D01*
X132427000Y-110174604D01*
X132427000Y-109103387D01*
X133772822Y-109103387D01*
X133928844Y-109480989D01*
X134217492Y-109770140D01*
X134594821Y-109926821D01*
X135003387Y-109927178D01*
X135380989Y-109771156D01*
X135670140Y-109482508D01*
X135826821Y-109105179D01*
X135827178Y-108696613D01*
X135671156Y-108319011D01*
X135527000Y-108174604D01*
X135527000Y-107572211D01*
X141622718Y-107572211D01*
X141869892Y-108170418D01*
X142327175Y-108628499D01*
X142924950Y-108876717D01*
X143572211Y-108877282D01*
X144170418Y-108630108D01*
X144628499Y-108172825D01*
X144876717Y-107575050D01*
X144876719Y-107572211D01*
X148122718Y-107572211D01*
X148369892Y-108170418D01*
X148827175Y-108628499D01*
X149424950Y-108876717D01*
X150072211Y-108877282D01*
X150670418Y-108630108D01*
X151128499Y-108172825D01*
X151376717Y-107575050D01*
X151377282Y-106927789D01*
X151130108Y-106329582D01*
X150672825Y-105871501D01*
X150075050Y-105623283D01*
X149427789Y-105622718D01*
X148829582Y-105869892D01*
X148371501Y-106327175D01*
X148123283Y-106924950D01*
X148122718Y-107572211D01*
X144876719Y-107572211D01*
X144877282Y-106927789D01*
X144630108Y-106329582D01*
X144172825Y-105871501D01*
X143575050Y-105623283D01*
X142927789Y-105622718D01*
X142329582Y-105869892D01*
X141871501Y-106327175D01*
X141623283Y-106924950D01*
X141622718Y-107572211D01*
X135527000Y-107572211D01*
X135527000Y-106001134D01*
X136401132Y-105127001D01*
X136603387Y-105127178D01*
X136980989Y-104971156D01*
X137270140Y-104682508D01*
X137426821Y-104305179D01*
X137427178Y-103896613D01*
X137271156Y-103519011D01*
X136982508Y-103229860D01*
X136605179Y-103073179D01*
X136196613Y-103072822D01*
X135819011Y-103228844D01*
X135529860Y-103517492D01*
X135373179Y-103894821D01*
X135373001Y-104098866D01*
X134285933Y-105185933D01*
X134128340Y-105421789D01*
X134128340Y-105421790D01*
X134072999Y-105700000D01*
X134073000Y-105700005D01*
X134073000Y-108174601D01*
X133929860Y-108317492D01*
X133773179Y-108694821D01*
X133772822Y-109103387D01*
X132427000Y-109103387D01*
X132427000Y-106001134D01*
X134701132Y-103727001D01*
X134903387Y-103727178D01*
X135280989Y-103571156D01*
X135570140Y-103282508D01*
X135726821Y-102905179D01*
X135727175Y-102500000D01*
X139272999Y-102500000D01*
X139312783Y-102700000D01*
X139328340Y-102778211D01*
X139485933Y-103014067D01*
X139721789Y-103171660D01*
X139767948Y-103180842D01*
X140000000Y-103227001D01*
X140000005Y-103227000D01*
X149999995Y-103227000D01*
X150000000Y-103227001D01*
X150278211Y-103171660D01*
X150514067Y-103014067D01*
X150671660Y-102778211D01*
X150727001Y-102500000D01*
X150671660Y-102221790D01*
X150671660Y-102221789D01*
X150514067Y-101985933D01*
X150514064Y-101985931D01*
X145514067Y-96985933D01*
X145278211Y-96828340D01*
X145000000Y-96772999D01*
X144721790Y-96828340D01*
X144485933Y-96985933D01*
X144485931Y-96985936D01*
X139485933Y-101985933D01*
X139328340Y-102221789D01*
X139328340Y-102221790D01*
X139272999Y-102500000D01*
X135727175Y-102500000D01*
X135727178Y-102496613D01*
X135571156Y-102119011D01*
X135282508Y-101829860D01*
X134905179Y-101673179D01*
X134496613Y-101672822D01*
X134119011Y-101828844D01*
X133829860Y-102117492D01*
X133673179Y-102494821D01*
X133673001Y-102698866D01*
X131185933Y-105185933D01*
X131028340Y-105421789D01*
X131028340Y-105421790D01*
X130972999Y-105700000D01*
X130973000Y-105700005D01*
X130973000Y-110174601D01*
X130829860Y-110317492D01*
X130673179Y-110694821D01*
X130672822Y-111103387D01*
X90806883Y-111103387D01*
X90807178Y-110766613D01*
X90651156Y-110389011D01*
X90362508Y-110099860D01*
X89985179Y-109943179D01*
X89576613Y-109942822D01*
X89199011Y-110098844D01*
X89124726Y-110173000D01*
X85335682Y-110173000D01*
X85320563Y-110092648D01*
X85261357Y-110000640D01*
X85313917Y-109923717D01*
X85333503Y-109827000D01*
X87274601Y-109827000D01*
X87417492Y-109970140D01*
X87794821Y-110126821D01*
X88203387Y-110127178D01*
X88580989Y-109971156D01*
X88870140Y-109682508D01*
X89026821Y-109305179D01*
X89027178Y-108896613D01*
X88871156Y-108519011D01*
X88582508Y-108229860D01*
X88575620Y-108227000D01*
X89999995Y-108227000D01*
X90000000Y-108227001D01*
X90278211Y-108171661D01*
X90514067Y-108014067D01*
X90671661Y-107778211D01*
X90727001Y-107500000D01*
X90671661Y-107221790D01*
X90619367Y-107143527D01*
X90514067Y-106985933D01*
X90514064Y-106985931D01*
X85528134Y-102000000D01*
X87000000Y-100528134D01*
X91985931Y-105514064D01*
X91985933Y-105514067D01*
X92061243Y-105564387D01*
X92221790Y-105671661D01*
X92500000Y-105727001D01*
X92500005Y-105727000D01*
X97499995Y-105727000D01*
X97500000Y-105727001D01*
X97778211Y-105671660D01*
X98014067Y-105514067D01*
X98171660Y-105278211D01*
X98227001Y-105000000D01*
X98171660Y-104721790D01*
X98171660Y-104721789D01*
X98014067Y-104485933D01*
X98014064Y-104485931D01*
X93528134Y-100000000D01*
X95000000Y-98528134D01*
X101985931Y-105514064D01*
X101985933Y-105514067D01*
X102221789Y-105671660D01*
X102267948Y-105680842D01*
X102500000Y-105727001D01*
X102500005Y-105727000D01*
X105000000Y-105727000D01*
X105278211Y-105671660D01*
X105514067Y-105514067D01*
X105671660Y-105278211D01*
X105706434Y-105103387D01*
X120072822Y-105103387D01*
X120228844Y-105480989D01*
X120517492Y-105770140D01*
X120880686Y-105920952D01*
X121479865Y-106520130D01*
X121479867Y-106520133D01*
X121728006Y-106685933D01*
X121764387Y-106710242D01*
X122100000Y-106777001D01*
X122100005Y-106777000D01*
X122134013Y-106777000D01*
X122494821Y-106926821D01*
X122903387Y-106927178D01*
X123021538Y-106878359D01*
X122973179Y-106994821D01*
X122972822Y-107403387D01*
X123128844Y-107780989D01*
X123417492Y-108070140D01*
X123794821Y-108226821D01*
X124048910Y-108227043D01*
X124160931Y-108339064D01*
X124160933Y-108339067D01*
X125022999Y-109201132D01*
X125022822Y-109403387D01*
X125178844Y-109780989D01*
X125467492Y-110070140D01*
X125844821Y-110226821D01*
X126253387Y-110227178D01*
X126630989Y-110071156D01*
X126920140Y-109782508D01*
X127076821Y-109405179D01*
X127077178Y-108996613D01*
X126921156Y-108619011D01*
X126632508Y-108329860D01*
X126255179Y-108173179D01*
X126051134Y-108173001D01*
X125189067Y-107310933D01*
X125189064Y-107310931D01*
X125027045Y-107148912D01*
X125027178Y-106996613D01*
X124871156Y-106619011D01*
X124582508Y-106329860D01*
X124205179Y-106173179D01*
X123796613Y-106172822D01*
X123678462Y-106221641D01*
X123726821Y-106105179D01*
X123727178Y-105696613D01*
X123571156Y-105319011D01*
X123282508Y-105029860D01*
X122905179Y-104873179D01*
X122496613Y-104872822D01*
X122366747Y-104926482D01*
X122120347Y-104680082D01*
X122098342Y-104626824D01*
X122503387Y-104627178D01*
X122880989Y-104471156D01*
X122912033Y-104440167D01*
X127672999Y-109201133D01*
X127672822Y-109403387D01*
X127828844Y-109780989D01*
X128117492Y-110070140D01*
X128494821Y-110226821D01*
X128903387Y-110227178D01*
X129280989Y-110071156D01*
X129570140Y-109782508D01*
X129726821Y-109405179D01*
X129727178Y-108996613D01*
X129571156Y-108619011D01*
X129282508Y-108329860D01*
X128905179Y-108173179D01*
X128701135Y-108173001D01*
X123614067Y-103085933D01*
X123594445Y-103072822D01*
X123378211Y-102928340D01*
X123332052Y-102919158D01*
X123100000Y-102872999D01*
X123099995Y-102873000D01*
X123025399Y-102873000D01*
X122882508Y-102729860D01*
X122505179Y-102573179D01*
X122096613Y-102572822D01*
X121719011Y-102728844D01*
X121429860Y-103017492D01*
X121273179Y-103394821D01*
X121272822Y-103803387D01*
X121301658Y-103873176D01*
X120896613Y-103872822D01*
X120519011Y-104028844D01*
X120229860Y-104317492D01*
X120073179Y-104694821D01*
X120072822Y-105103387D01*
X105706434Y-105103387D01*
X105727000Y-105000000D01*
X105727000Y-102500000D01*
X109272999Y-102500000D01*
X109312783Y-102700000D01*
X109328340Y-102778211D01*
X109485933Y-103014067D01*
X109721789Y-103171660D01*
X109767948Y-103180842D01*
X110000000Y-103227001D01*
X110000005Y-103227000D01*
X119999995Y-103227000D01*
X120000000Y-103227001D01*
X120278211Y-103171660D01*
X120514067Y-103014067D01*
X120671660Y-102778211D01*
X120727001Y-102500000D01*
X120671660Y-102221790D01*
X120671660Y-102221789D01*
X120514067Y-101985933D01*
X120514064Y-101985931D01*
X115514067Y-96985933D01*
X115278211Y-96828340D01*
X115000000Y-96772999D01*
X114721790Y-96828340D01*
X114485933Y-96985933D01*
X114485931Y-96985936D01*
X109485933Y-101985933D01*
X109328340Y-102221789D01*
X109328340Y-102221790D01*
X109272999Y-102500000D01*
X105727000Y-102500000D01*
X105727000Y-100301134D01*
X109514064Y-96514069D01*
X109514067Y-96514067D01*
X109608537Y-96372681D01*
X109671660Y-96278211D01*
X109727000Y-96000000D01*
X109671660Y-95721790D01*
X109671660Y-95721789D01*
X109514067Y-95485933D01*
X109028134Y-95000000D01*
X116772999Y-95000000D01*
X116828340Y-95278210D01*
X116985933Y-95514067D01*
X121985931Y-100514064D01*
X121985933Y-100514067D01*
X122221789Y-100671660D01*
X122267948Y-100680842D01*
X122500000Y-100727001D01*
X122778211Y-100671660D01*
X123014067Y-100514067D01*
X123171660Y-100278211D01*
X123227001Y-100000000D01*
X123227000Y-99999995D01*
X123227000Y-90000005D01*
X123227001Y-90000000D01*
X136772999Y-90000000D01*
X136773000Y-90000005D01*
X136773000Y-99999995D01*
X136772999Y-100000000D01*
X136819158Y-100232052D01*
X136828340Y-100278211D01*
X136985933Y-100514067D01*
X137221789Y-100671660D01*
X137267948Y-100680842D01*
X137500000Y-100727001D01*
X137732052Y-100680842D01*
X137778211Y-100671660D01*
X138014067Y-100514067D01*
X138014068Y-100514066D01*
X143014064Y-95514069D01*
X143014067Y-95514067D01*
X143171660Y-95278211D01*
X143227001Y-95000000D01*
X143171660Y-94721789D01*
X143014067Y-94485933D01*
X143014064Y-94485931D01*
X138014067Y-89485933D01*
X137778211Y-89328340D01*
X137732052Y-89319158D01*
X137500000Y-89272999D01*
X137267948Y-89319158D01*
X137221789Y-89328340D01*
X136985933Y-89485933D01*
X136828340Y-89721789D01*
X136827303Y-89727001D01*
X136772999Y-90000000D01*
X123227001Y-90000000D01*
X123171660Y-89721789D01*
X123014067Y-89485933D01*
X122778211Y-89328340D01*
X122500000Y-89272999D01*
X122267948Y-89319158D01*
X122221789Y-89328340D01*
X121985933Y-89485933D01*
X121985931Y-89485936D01*
X116985933Y-94485933D01*
X116828340Y-94721790D01*
X116772999Y-95000000D01*
X109028134Y-95000000D01*
X107514067Y-93485933D01*
X107278211Y-93328340D01*
X107232052Y-93319158D01*
X107000000Y-93272999D01*
X106999995Y-93273000D01*
X96727000Y-93273000D01*
X96727000Y-90727000D01*
X103000000Y-90727000D01*
X103278211Y-90671660D01*
X103514067Y-90514067D01*
X103671660Y-90278211D01*
X103727000Y-90000000D01*
X103671660Y-89721789D01*
X103514067Y-89485933D01*
X103514064Y-89485931D01*
X99514067Y-85485933D01*
X99460289Y-85450000D01*
X99278211Y-85328340D01*
X99232052Y-85319158D01*
X99000000Y-85272999D01*
X98999995Y-85273000D01*
X92227000Y-85273000D01*
X92227000Y-82727000D01*
X98999995Y-82727000D01*
X99000000Y-82727001D01*
X99278211Y-82671660D01*
X99514067Y-82514067D01*
X99671660Y-82278211D01*
X99727001Y-82000000D01*
X99688987Y-81808894D01*
X99924821Y-81906821D01*
X100333387Y-81907178D01*
X100710989Y-81751156D01*
X101000140Y-81462508D01*
X101156821Y-81085179D01*
X101157178Y-80676613D01*
X101001156Y-80299011D01*
X100712508Y-80009860D01*
X100382866Y-79872980D01*
X100717385Y-79734760D01*
X101006536Y-79446112D01*
X101127255Y-79155388D01*
X101485931Y-79514064D01*
X101485933Y-79514067D01*
X101721789Y-79671660D01*
X101763048Y-79679867D01*
X102000000Y-79727001D01*
X102278211Y-79671660D01*
X102514067Y-79514067D01*
X102671660Y-79278211D01*
X102727001Y-79000000D01*
X102727000Y-78999995D01*
X102727000Y-72227000D01*
X105273000Y-72227000D01*
X105273000Y-78999995D01*
X105272999Y-79000000D01*
X105301209Y-79141815D01*
X105328340Y-79278211D01*
X105433726Y-79435933D01*
X105485933Y-79514067D01*
X109485931Y-83514064D01*
X109485933Y-83514067D01*
X109721789Y-83671660D01*
X110000000Y-83727000D01*
X110278211Y-83671660D01*
X110514067Y-83514067D01*
X110671660Y-83278211D01*
X110727000Y-83000000D01*
X110727000Y-76727000D01*
X113273000Y-76727000D01*
X113273000Y-86999995D01*
X113272999Y-87000000D01*
X113303867Y-87155179D01*
X113328340Y-87278211D01*
X113473965Y-87496156D01*
X113485933Y-87514067D01*
X115485933Y-89514067D01*
X115721789Y-89671660D01*
X115767948Y-89680842D01*
X116000000Y-89727001D01*
X116278210Y-89671660D01*
X116514067Y-89514067D01*
X119199746Y-86828387D01*
X125197822Y-86828387D01*
X125353844Y-87205989D01*
X125642492Y-87495140D01*
X126019821Y-87651821D01*
X126052165Y-87651849D01*
X126052657Y-87652178D01*
X126214386Y-87760242D01*
X126550000Y-87827000D01*
X126709013Y-87827000D01*
X127069821Y-87976821D01*
X127478387Y-87977178D01*
X127490408Y-87972211D01*
X128372718Y-87972211D01*
X128619892Y-88570418D01*
X129077175Y-89028499D01*
X129674950Y-89276717D01*
X130322211Y-89277282D01*
X130920418Y-89030108D01*
X131378499Y-88572825D01*
X131626717Y-87975050D01*
X131627282Y-87327789D01*
X131380108Y-86729582D01*
X130922825Y-86271501D01*
X130325050Y-86023283D01*
X129677789Y-86022718D01*
X129079582Y-86269892D01*
X128621501Y-86727175D01*
X128373283Y-87324950D01*
X128372718Y-87972211D01*
X127490408Y-87972211D01*
X127855989Y-87821156D01*
X128145140Y-87532508D01*
X128301821Y-87155179D01*
X128301860Y-87110404D01*
X128385242Y-86985613D01*
X128452000Y-86650000D01*
X128452000Y-86246901D01*
X128510613Y-86235242D01*
X128795133Y-86045133D01*
X129820133Y-85020133D01*
X130010242Y-84735613D01*
X130077001Y-84400000D01*
X130077000Y-84399995D01*
X130077000Y-81950000D01*
X130010242Y-81614387D01*
X130010242Y-81614386D01*
X129907745Y-81460989D01*
X129820133Y-81329867D01*
X129820130Y-81329865D01*
X129158702Y-80668436D01*
X129176717Y-80625050D01*
X129177282Y-79977789D01*
X128930108Y-79379582D01*
X128472825Y-78921501D01*
X127938817Y-78699761D01*
X128470418Y-78480108D01*
X128928499Y-78022825D01*
X129176717Y-77425050D01*
X129176719Y-77422211D01*
X130922718Y-77422211D01*
X131169892Y-78020418D01*
X131627175Y-78478499D01*
X132161183Y-78700239D01*
X131629582Y-78919892D01*
X131171501Y-79377175D01*
X130923283Y-79974950D01*
X130922718Y-80622211D01*
X131169892Y-81220418D01*
X131627175Y-81678499D01*
X132161183Y-81900239D01*
X131629582Y-82119892D01*
X131171501Y-82577175D01*
X130923283Y-83174950D01*
X130922718Y-83822211D01*
X131169892Y-84420418D01*
X131627175Y-84878499D01*
X132224950Y-85126717D01*
X132872211Y-85127282D01*
X133470418Y-84880108D01*
X133928499Y-84422825D01*
X134176717Y-83825050D01*
X134177282Y-83177789D01*
X133930108Y-82579582D01*
X133472825Y-82121501D01*
X132938817Y-81899761D01*
X133470418Y-81680108D01*
X133928499Y-81222825D01*
X134176717Y-80625050D01*
X134177282Y-79977789D01*
X133930108Y-79379582D01*
X133472825Y-78921501D01*
X132938817Y-78699761D01*
X133470418Y-78480108D01*
X133928499Y-78022825D01*
X134176717Y-77425050D01*
X134177282Y-76777789D01*
X133930108Y-76179582D01*
X133472825Y-75721501D01*
X132875050Y-75473283D01*
X132227789Y-75472718D01*
X131629582Y-75719892D01*
X131171501Y-76177175D01*
X130923283Y-76774950D01*
X130922718Y-77422211D01*
X129176719Y-77422211D01*
X129177282Y-76777789D01*
X128930108Y-76179582D01*
X128472825Y-75721501D01*
X127875050Y-75473283D01*
X127227789Y-75472718D01*
X126629582Y-75719892D01*
X126171501Y-76177175D01*
X125923283Y-76774950D01*
X125922718Y-77422211D01*
X126169892Y-78020418D01*
X126627175Y-78478499D01*
X127161183Y-78700239D01*
X126629582Y-78919892D01*
X126171501Y-79377175D01*
X125923283Y-79974950D01*
X125922718Y-80622211D01*
X126169892Y-81220418D01*
X126627175Y-81678499D01*
X127161183Y-81900239D01*
X126629582Y-82119892D01*
X126171501Y-82577175D01*
X125923283Y-83174950D01*
X125922718Y-83822211D01*
X126169892Y-84420418D01*
X126593891Y-84845157D01*
X126354867Y-85004867D01*
X125604867Y-85754867D01*
X125528510Y-85869144D01*
X125354860Y-86042492D01*
X125198179Y-86419821D01*
X125197822Y-86828387D01*
X119199746Y-86828387D01*
X120301133Y-85727000D01*
X125000000Y-85727000D01*
X125278211Y-85671660D01*
X125514067Y-85514067D01*
X125671660Y-85278211D01*
X125727000Y-85000000D01*
X125727000Y-82500005D01*
X125727001Y-82500000D01*
X125671660Y-82221790D01*
X125671660Y-82221789D01*
X125514067Y-81985933D01*
X125514064Y-81985931D01*
X118528134Y-75000000D01*
X120000000Y-73528134D01*
X124485931Y-78014064D01*
X124485933Y-78014067D01*
X124721789Y-78171660D01*
X124767948Y-78180842D01*
X125000000Y-78227001D01*
X125278211Y-78171660D01*
X125514067Y-78014067D01*
X125671660Y-77778211D01*
X125727001Y-77500000D01*
X125727000Y-77499995D01*
X125727000Y-72500005D01*
X125727001Y-72500000D01*
X125671661Y-72221790D01*
X125532865Y-72014067D01*
X125514067Y-71985933D01*
X125514064Y-71985931D01*
X120528134Y-67000000D01*
X122000000Y-65528134D01*
X126985931Y-70514064D01*
X126985933Y-70514067D01*
X127143527Y-70619367D01*
X127221790Y-70671661D01*
X127500000Y-70727001D01*
X127778211Y-70671661D01*
X127952831Y-70554983D01*
X128237492Y-70840140D01*
X128614821Y-70996821D01*
X129023387Y-70997178D01*
X129400989Y-70841156D01*
X129690140Y-70552508D01*
X129846821Y-70175179D01*
X129847178Y-69766613D01*
X129727000Y-69475760D01*
X129727000Y-65335682D01*
X129807352Y-65320563D01*
X129899360Y-65261357D01*
X129976283Y-65313917D01*
X129976283Y-65313917D01*
G37*
X129976283Y-65313917D02*
X130073000Y-65333503D01*
X130073000Y-67274601D01*
X129929860Y-67417492D01*
X129773179Y-67794821D01*
X129772822Y-68203387D01*
X129928844Y-68580989D01*
X130217492Y-68870140D01*
X130594821Y-69026821D01*
X131003387Y-69027178D01*
X131380989Y-68871156D01*
X131670140Y-68582508D01*
X131773000Y-68334794D01*
X131773000Y-69999995D01*
X131772999Y-70000000D01*
X131819158Y-70232052D01*
X131828340Y-70278211D01*
X131985933Y-70514067D01*
X132221789Y-70671660D01*
X132267948Y-70680842D01*
X132500000Y-70727001D01*
X132732052Y-70680842D01*
X132778211Y-70671660D01*
X133014067Y-70514067D01*
X138000000Y-65528134D01*
X139471866Y-67000000D01*
X134485933Y-71985933D01*
X134328340Y-72221789D01*
X134319158Y-72267948D01*
X134272999Y-72500000D01*
X134273000Y-72500005D01*
X134273000Y-77499995D01*
X134272999Y-77500000D01*
X134311689Y-77694503D01*
X134328340Y-77778211D01*
X134485933Y-78014067D01*
X134721789Y-78171660D01*
X134767948Y-78180842D01*
X135000000Y-78227001D01*
X135232052Y-78180842D01*
X135278211Y-78171660D01*
X135514067Y-78014067D01*
X140000000Y-73528134D01*
X141471866Y-75000000D01*
X134485933Y-81985933D01*
X134328340Y-82221789D01*
X134328340Y-82221790D01*
X134272999Y-82500000D01*
X134273000Y-82500005D01*
X134273000Y-85000000D01*
X134328340Y-85278211D01*
X134485933Y-85514067D01*
X134721789Y-85671660D01*
X135000000Y-85727000D01*
X139698866Y-85727000D01*
X143485931Y-89514064D01*
X143485933Y-89514067D01*
X143627319Y-89608537D01*
X143721789Y-89671660D01*
X143767948Y-89680842D01*
X144000000Y-89727001D01*
X144278210Y-89671660D01*
X144514067Y-89514067D01*
X146514067Y-87514067D01*
X146671660Y-87278211D01*
X146727000Y-87000000D01*
X146727000Y-76727000D01*
X149273000Y-76727000D01*
X149273000Y-82999995D01*
X149272999Y-83000000D01*
X149318154Y-83227001D01*
X149328340Y-83278211D01*
X149485933Y-83514067D01*
X149721789Y-83671660D01*
X149767948Y-83680842D01*
X150000000Y-83727001D01*
X150232052Y-83680842D01*
X150278211Y-83671660D01*
X150514067Y-83514067D01*
X150514068Y-83514066D01*
X154514064Y-79514069D01*
X154514067Y-79514067D01*
X154671660Y-79278211D01*
X154727000Y-79000000D01*
X154727000Y-72227000D01*
X157273000Y-72227000D01*
X157273000Y-78999995D01*
X157272999Y-79000000D01*
X157301209Y-79141815D01*
X157328340Y-79278211D01*
X157469320Y-79489204D01*
X157363179Y-79744821D01*
X157362822Y-80153387D01*
X157518844Y-80530989D01*
X157807492Y-80820140D01*
X158184821Y-80976821D01*
X158593387Y-80977178D01*
X158970989Y-80821156D01*
X159260140Y-80532508D01*
X159383485Y-80235461D01*
X162433201Y-77185744D01*
X162500709Y-77231871D01*
X162607633Y-77255066D01*
X162624861Y-77346623D01*
X162679401Y-77428862D01*
X160998986Y-79109276D01*
X160933009Y-79109218D01*
X160555407Y-79265240D01*
X160266256Y-79553888D01*
X160109575Y-79931217D01*
X160109218Y-80339783D01*
X160265240Y-80717385D01*
X160553888Y-81006536D01*
X160844611Y-81127255D01*
X160485933Y-81485933D01*
X160328340Y-81721789D01*
X160319158Y-81767948D01*
X160272999Y-82000000D01*
X160296848Y-82119892D01*
X160328340Y-82278211D01*
X160485933Y-82514067D01*
X160721789Y-82671660D01*
X160767948Y-82680842D01*
X161000000Y-82727001D01*
X161000005Y-82727000D01*
X167773000Y-82727000D01*
X167773000Y-85273000D01*
X161000000Y-85273000D01*
X160721789Y-85328340D01*
X160485933Y-85485933D01*
X160485931Y-85485936D01*
X156485933Y-89485933D01*
X156328340Y-89721789D01*
X156327303Y-89727001D01*
X156272999Y-90000000D01*
X156319158Y-90232052D01*
X156328340Y-90278211D01*
X156485933Y-90514067D01*
X156721789Y-90671660D01*
X156767948Y-90680842D01*
X157000000Y-90727001D01*
X157000005Y-90727000D01*
X163273000Y-90727000D01*
X163273000Y-93273000D01*
X153000000Y-93273000D01*
X152721789Y-93328340D01*
X152485933Y-93485933D01*
X150485933Y-95485933D01*
X150328340Y-95721790D01*
X150272999Y-96000000D01*
X150328340Y-96278210D01*
X150485933Y-96514067D01*
X154273000Y-100301133D01*
X154273000Y-105000000D01*
X154328340Y-105278211D01*
X154485933Y-105514067D01*
X154721789Y-105671660D01*
X155000000Y-105727000D01*
X157499995Y-105727000D01*
X157500000Y-105727001D01*
X157732052Y-105680842D01*
X157778211Y-105671660D01*
X158014067Y-105514067D01*
X165000000Y-98528134D01*
X166471866Y-100000000D01*
X161985933Y-104485933D01*
X161828340Y-104721789D01*
X161828340Y-104721790D01*
X161772999Y-105000000D01*
X161819158Y-105232052D01*
X161828340Y-105278211D01*
X161985933Y-105514067D01*
X162221789Y-105671660D01*
X162267948Y-105680842D01*
X162500000Y-105727001D01*
X162500005Y-105727000D01*
X167499995Y-105727000D01*
X167500000Y-105727001D01*
X167732052Y-105680842D01*
X167778211Y-105671660D01*
X168014067Y-105514067D01*
X173000000Y-100528134D01*
X174471866Y-102000000D01*
X169485933Y-106985933D01*
X169328340Y-107221789D01*
X169328340Y-107221790D01*
X169272999Y-107500000D01*
X169287928Y-107575050D01*
X169326868Y-107770810D01*
X169139860Y-107957492D01*
X168983179Y-108334821D01*
X168982822Y-108743387D01*
X169138844Y-109120989D01*
X169427492Y-109410140D01*
X169804821Y-109566821D01*
X170008866Y-109566999D01*
X170055931Y-109614064D01*
X170055933Y-109614067D01*
X170213527Y-109719367D01*
X170291790Y-109771661D01*
X170570000Y-109827001D01*
X170570005Y-109827000D01*
X174664318Y-109827000D01*
X174679437Y-109907352D01*
X174738643Y-109999360D01*
X174686083Y-110076283D01*
X174666497Y-110173000D01*
X172725399Y-110173000D01*
X172582508Y-110029860D01*
X172205179Y-109873179D01*
X171796613Y-109872822D01*
X171419011Y-110028844D01*
X171129860Y-110317492D01*
X170973179Y-110694821D01*
X170972822Y-111103387D01*
X171128844Y-111480989D01*
X171417492Y-111770140D01*
X171424380Y-111773000D01*
X170000005Y-111773000D01*
X170000000Y-111772999D01*
X169767948Y-111819158D01*
X169721789Y-111828340D01*
X169485933Y-111985933D01*
X169328340Y-112221789D01*
X169328340Y-112221790D01*
X169272999Y-112500000D01*
X169298226Y-112626821D01*
X169328340Y-112778211D01*
X169485932Y-113014066D01*
X174471866Y-118000000D01*
X173000000Y-119471866D01*
X168014067Y-114485933D01*
X167906511Y-114414067D01*
X167778211Y-114328340D01*
X167732052Y-114319158D01*
X167500000Y-114272999D01*
X167499995Y-114273000D01*
X162500005Y-114273000D01*
X162500000Y-114272999D01*
X162267948Y-114319158D01*
X162221789Y-114328340D01*
X161985933Y-114485933D01*
X161828340Y-114721789D01*
X161828340Y-114721790D01*
X161772999Y-115000000D01*
X161807649Y-115174190D01*
X161828340Y-115278211D01*
X161913177Y-115405179D01*
X161985933Y-115514067D01*
X166471866Y-120000000D01*
X165000000Y-121471866D01*
X158014067Y-114485933D01*
X157906511Y-114414067D01*
X157778211Y-114328340D01*
X157732052Y-114319158D01*
X157500000Y-114272999D01*
X157499995Y-114273000D01*
X155000000Y-114273000D01*
X154721789Y-114328340D01*
X154485933Y-114485933D01*
X154328340Y-114721789D01*
X154273000Y-115000000D01*
X154273000Y-119698867D01*
X150485933Y-123485933D01*
X150328340Y-123721790D01*
X150272999Y-124000000D01*
X150328340Y-124278210D01*
X150485933Y-124514067D01*
X152485933Y-126514067D01*
X152721789Y-126671660D01*
X153000000Y-126727000D01*
X163273000Y-126727000D01*
X163273000Y-129273000D01*
X157000005Y-129273000D01*
X157000000Y-129272999D01*
X156767948Y-129319158D01*
X156721789Y-129328340D01*
X156485933Y-129485933D01*
X156328340Y-129721789D01*
X156328340Y-129721790D01*
X156272999Y-130000000D01*
X156292891Y-130100000D01*
X156328340Y-130278211D01*
X156467135Y-130485933D01*
X156485933Y-130514067D01*
X160485931Y-134514064D01*
X160485933Y-134514067D01*
X160721789Y-134671660D01*
X161000000Y-134727000D01*
X167773000Y-134727000D01*
X167773000Y-137273000D01*
X161000005Y-137273000D01*
X161000000Y-137272999D01*
X160767948Y-137319158D01*
X160721789Y-137328340D01*
X160485933Y-137485933D01*
X160328340Y-137721789D01*
X160328340Y-137721790D01*
X160272999Y-138000000D01*
X160309639Y-138184199D01*
X160255866Y-138173502D01*
X160092508Y-138009860D01*
X159715179Y-137853179D01*
X159306613Y-137852822D01*
X158929011Y-138008844D01*
X158639860Y-138297492D01*
X158483179Y-138674821D01*
X158482822Y-139083387D01*
X158638844Y-139460989D01*
X158927492Y-139750140D01*
X159304821Y-139906821D01*
X159713387Y-139907178D01*
X160023642Y-139778983D01*
X162677860Y-142433201D01*
X162631733Y-142500709D01*
X162608538Y-142607633D01*
X162516981Y-142624861D01*
X162434742Y-142679401D01*
X160890605Y-141135263D01*
X160890782Y-140933009D01*
X160734760Y-140555407D01*
X160446112Y-140266256D01*
X160068783Y-140109575D01*
X159660217Y-140109218D01*
X159282615Y-140265240D01*
X158993464Y-140553888D01*
X158872745Y-140844611D01*
X158514067Y-140485933D01*
X158399519Y-140409395D01*
X158278211Y-140328340D01*
X158232052Y-140319158D01*
X158000000Y-140272999D01*
X157767948Y-140319158D01*
X157721789Y-140328340D01*
X157485933Y-140485933D01*
X157328340Y-140721789D01*
X157325962Y-140733744D01*
X157272999Y-141000000D01*
X157273000Y-141000005D01*
X157273000Y-147773000D01*
X154727000Y-147773000D01*
X154727000Y-141000000D01*
X154671660Y-140721789D01*
X154514067Y-140485933D01*
X154514064Y-140485931D01*
X150514067Y-136485933D01*
X150278211Y-136328340D01*
X150232052Y-136319158D01*
X150000000Y-136272999D01*
X149767948Y-136319158D01*
X149721789Y-136328340D01*
X149485933Y-136485933D01*
X149328340Y-136721789D01*
X149328340Y-136721790D01*
X149272999Y-137000000D01*
X149273000Y-137000005D01*
X149273000Y-143273000D01*
X146727000Y-143273000D01*
X146727000Y-133000000D01*
X146671660Y-132721789D01*
X146514067Y-132485933D01*
X144514067Y-130485933D01*
X144278210Y-130328340D01*
X144000000Y-130272999D01*
X143767948Y-130319158D01*
X143721789Y-130328340D01*
X143647152Y-130378211D01*
X143485933Y-130485933D01*
X143485931Y-130485936D01*
X139698866Y-134273000D01*
X135000000Y-134273000D01*
X134721789Y-134328340D01*
X134485933Y-134485933D01*
X134328340Y-134721789D01*
X134273000Y-135000000D01*
X134273000Y-137499995D01*
X134272999Y-137500000D01*
X134317117Y-137721789D01*
X134328340Y-137778211D01*
X134378432Y-137853179D01*
X134485933Y-138014067D01*
X141471866Y-145000000D01*
X140000000Y-146471866D01*
X135514067Y-141985933D01*
X135278211Y-141828340D01*
X135232052Y-141819158D01*
X135000000Y-141772999D01*
X134767948Y-141819158D01*
X134721789Y-141828340D01*
X134485933Y-141985933D01*
X134328340Y-142221789D01*
X134328340Y-142221790D01*
X134272999Y-142500000D01*
X134273000Y-142500005D01*
X134273000Y-147499995D01*
X134272999Y-147500000D01*
X134319158Y-147732052D01*
X134328340Y-147778211D01*
X134361835Y-147828340D01*
X134485933Y-148014067D01*
X139471866Y-153000000D01*
X138000000Y-154471866D01*
X133014067Y-149485933D01*
X132840350Y-149369860D01*
X132778211Y-149328340D01*
X132732052Y-149319158D01*
X132500000Y-149272999D01*
X132267948Y-149319158D01*
X132221789Y-149328340D01*
X131985933Y-149485933D01*
X131858466Y-149676702D01*
X131851156Y-149659011D01*
X131562508Y-149369860D01*
X131185179Y-149213179D01*
X130776613Y-149212822D01*
X130399011Y-149368844D01*
X130109860Y-149657492D01*
X129953179Y-150034821D01*
X129952822Y-150443387D01*
X130108844Y-150820989D01*
X130173000Y-150885257D01*
X130173000Y-154664318D01*
X130092648Y-154679437D01*
X130000640Y-154738643D01*
X129923717Y-154686083D01*
X129827000Y-154666497D01*
X129827000Y-152725399D01*
X129970140Y-152582508D01*
X130126821Y-152205179D01*
X130127178Y-151796613D01*
X129971156Y-151419011D01*
X129682508Y-151129860D01*
X129305179Y-150973179D01*
X128896613Y-150972822D01*
X128519011Y-151128844D01*
X128229860Y-151417492D01*
X128227000Y-151424380D01*
X128227000Y-150000005D01*
X128227001Y-150000000D01*
X128171661Y-149721789D01*
X128014067Y-149485933D01*
X127778211Y-149328339D01*
X127500000Y-149272999D01*
X127221790Y-149328339D01*
X127143527Y-149380633D01*
X126985933Y-149485933D01*
X126985931Y-149485936D01*
X122000000Y-154471866D01*
X120528134Y-153000000D01*
X125514064Y-148014069D01*
X125514067Y-148014067D01*
X125671660Y-147778211D01*
X125671661Y-147778210D01*
X125727001Y-147500000D01*
X125727000Y-147499995D01*
X125727000Y-142500005D01*
X125727001Y-142500000D01*
X125671660Y-142221789D01*
X125514067Y-141985933D01*
X125278211Y-141828340D01*
X125000000Y-141772999D01*
X124767948Y-141819158D01*
X124721789Y-141828340D01*
X124485933Y-141985933D01*
X124485931Y-141985936D01*
X120000000Y-146471866D01*
X118528134Y-145000000D01*
X125514064Y-138014069D01*
X125514067Y-138014067D01*
X125671660Y-137778211D01*
X125682883Y-137721789D01*
X125727001Y-137500000D01*
X125727000Y-137499995D01*
X125727000Y-136015612D01*
X125994821Y-136126821D01*
X126403387Y-136127178D01*
X126780989Y-135971156D01*
X127070140Y-135682508D01*
X127226821Y-135305179D01*
X127227178Y-134896613D01*
X127071156Y-134519011D01*
X126782508Y-134229860D01*
X126627000Y-134165287D01*
X126627000Y-133502532D01*
X129027073Y-133502532D01*
X129125736Y-133769387D01*
X129735461Y-133995908D01*
X130385460Y-133971856D01*
X130874264Y-133769387D01*
X130972927Y-133502532D01*
X130000000Y-132529605D01*
X129027073Y-133502532D01*
X126627000Y-133502532D01*
X126627000Y-133025399D01*
X126770140Y-132882508D01*
X126926821Y-132505179D01*
X126927178Y-132096613D01*
X126922571Y-132085461D01*
X128354092Y-132085461D01*
X128378144Y-132735460D01*
X128580613Y-133224264D01*
X128847468Y-133322927D01*
X129820395Y-132350000D01*
X130179605Y-132350000D01*
X131152532Y-133322927D01*
X131419387Y-133224264D01*
X131645908Y-132614539D01*
X131621856Y-131964540D01*
X131419387Y-131475736D01*
X131152532Y-131377073D01*
X130179605Y-132350000D01*
X129820395Y-132350000D01*
X128847468Y-131377073D01*
X128580613Y-131475736D01*
X128354092Y-132085461D01*
X126922571Y-132085461D01*
X126771156Y-131719011D01*
X126482508Y-131429860D01*
X126105179Y-131273179D01*
X125696613Y-131272822D01*
X125319011Y-131428844D01*
X125029860Y-131717492D01*
X124873179Y-132094821D01*
X124872822Y-132503387D01*
X125028844Y-132880989D01*
X125173000Y-133025396D01*
X125173000Y-134307412D01*
X125000000Y-134273000D01*
X120301133Y-134273000D01*
X117225602Y-131197468D01*
X129027073Y-131197468D01*
X130000000Y-132170395D01*
X130972927Y-131197468D01*
X130874264Y-130930613D01*
X130264539Y-130704092D01*
X129614540Y-130728144D01*
X129125736Y-130930613D01*
X129027073Y-131197468D01*
X117225602Y-131197468D01*
X116514067Y-130485933D01*
X116278210Y-130328340D01*
X116000000Y-130272999D01*
X115767948Y-130319158D01*
X115721789Y-130328340D01*
X115485933Y-130485933D01*
X113485933Y-132485933D01*
X113328340Y-132721789D01*
X113328340Y-132721790D01*
X113272999Y-133000000D01*
X113273000Y-133000005D01*
X113273000Y-143273000D01*
X110727000Y-143273000D01*
X110727000Y-137000000D01*
X110671660Y-136721789D01*
X110514067Y-136485933D01*
X110278211Y-136328340D01*
X110000000Y-136273000D01*
X109721789Y-136328340D01*
X109485933Y-136485933D01*
X109485931Y-136485936D01*
X105485933Y-140485933D01*
X105328340Y-140721789D01*
X105325962Y-140733744D01*
X105272999Y-141000000D01*
X105273000Y-141000005D01*
X105273000Y-147773000D01*
X102727000Y-147773000D01*
X102727000Y-141000005D01*
X102727001Y-141000000D01*
X102671660Y-140721789D01*
X102514067Y-140485933D01*
X102278211Y-140328340D01*
X102000000Y-140272999D01*
X101840764Y-140304674D01*
X101956821Y-140025179D01*
X101957178Y-139616613D01*
X101801156Y-139239011D01*
X101512508Y-138949860D01*
X101135179Y-138793179D01*
X100726613Y-138792822D01*
X100349011Y-138948844D01*
X100059860Y-139237492D01*
X99903179Y-139614821D01*
X99902822Y-140023387D01*
X99995931Y-140248728D01*
X97566799Y-142677859D01*
X97499291Y-142631733D01*
X97392367Y-142608538D01*
X97375139Y-142516981D01*
X97320599Y-142434743D01*
X98864617Y-140890724D01*
X98930595Y-140890782D01*
X99308197Y-140734760D01*
X99597348Y-140446112D01*
X99754029Y-140068783D01*
X99754386Y-139660217D01*
X99598364Y-139282615D01*
X99309716Y-138993464D01*
X99115369Y-138912764D01*
X99514064Y-138514069D01*
X99514067Y-138514067D01*
X99671660Y-138278211D01*
X99685558Y-138208340D01*
X99727001Y-138000000D01*
X99671660Y-137721789D01*
X99514067Y-137485933D01*
X99278211Y-137328340D01*
X99000000Y-137272999D01*
X98999995Y-137273000D01*
X92227000Y-137273000D01*
X92227000Y-134727000D01*
X98999995Y-134727000D01*
X99000000Y-134727001D01*
X99232052Y-134680842D01*
X99278211Y-134671660D01*
X99514067Y-134514067D01*
X99514068Y-134514066D01*
X103514064Y-130514069D01*
X103514067Y-130514067D01*
X103654838Y-130303387D01*
X113172822Y-130303387D01*
X113328844Y-130680989D01*
X113617492Y-130970140D01*
X113994821Y-131126821D01*
X114403387Y-131127178D01*
X114780989Y-130971156D01*
X115070140Y-130682508D01*
X115092604Y-130628408D01*
X115114067Y-130614067D01*
X116501132Y-129227001D01*
X116703387Y-129227178D01*
X117080989Y-129071156D01*
X117370140Y-128782508D01*
X117526821Y-128405179D01*
X117527178Y-127996613D01*
X117371156Y-127619011D01*
X117269088Y-127516765D01*
X117465803Y-127320394D01*
X117637740Y-126906324D01*
X117638131Y-126457975D01*
X117466917Y-126043606D01*
X117150164Y-125726299D01*
X116736094Y-125554362D01*
X116287745Y-125553971D01*
X115873376Y-125725185D01*
X115556069Y-126041938D01*
X115384132Y-126456008D01*
X115383741Y-126904357D01*
X115444555Y-127051538D01*
X115299253Y-126991203D01*
X114850904Y-126990812D01*
X114436535Y-127162026D01*
X114119228Y-127478779D01*
X113947291Y-127892849D01*
X113946900Y-128341198D01*
X114118114Y-128755567D01*
X114434867Y-129072874D01*
X114550837Y-129121029D01*
X114541911Y-129129955D01*
X114405179Y-129073179D01*
X113996613Y-129072822D01*
X113619011Y-129228844D01*
X113329860Y-129517492D01*
X113173179Y-129894821D01*
X113172822Y-130303387D01*
X103654838Y-130303387D01*
X103671660Y-130278211D01*
X103727000Y-130000000D01*
X103671660Y-129721789D01*
X103514067Y-129485933D01*
X103278211Y-129328340D01*
X103000000Y-129273000D01*
X96727000Y-129273000D01*
X96727000Y-126727000D01*
X107000000Y-126727000D01*
X107137725Y-126699605D01*
X107275266Y-126672872D01*
X107276619Y-126671977D01*
X107278211Y-126671660D01*
X107394951Y-126593657D01*
X107511810Y-126516313D01*
X107512716Y-126514970D01*
X107514067Y-126514067D01*
X107591999Y-126397434D01*
X107670436Y-126281150D01*
X107670760Y-126279558D01*
X107671660Y-126278211D01*
X107699002Y-126140757D01*
X107726993Y-126003185D01*
X107726683Y-126001592D01*
X107727000Y-126000000D01*
X107699648Y-125862494D01*
X107672873Y-125724734D01*
X107573570Y-125481994D01*
X107860810Y-125424858D01*
X108749388Y-125056796D01*
X108834389Y-125000000D01*
X116772999Y-125000000D01*
X116828340Y-125278210D01*
X116985933Y-125514067D01*
X121985931Y-130514064D01*
X121985933Y-130514067D01*
X122221789Y-130671660D01*
X122267948Y-130680842D01*
X122500000Y-130727001D01*
X122778211Y-130671660D01*
X123014067Y-130514067D01*
X123171660Y-130278211D01*
X123227001Y-130000000D01*
X123227000Y-129999995D01*
X123227000Y-120000005D01*
X123227001Y-120000000D01*
X136772999Y-120000000D01*
X136773000Y-120000005D01*
X136773000Y-129999995D01*
X136772999Y-130000000D01*
X136792891Y-130100000D01*
X136828340Y-130278211D01*
X136985933Y-130514067D01*
X137221789Y-130671660D01*
X137267948Y-130680842D01*
X137500000Y-130727001D01*
X137732052Y-130680842D01*
X137778211Y-130671660D01*
X138014067Y-130514067D01*
X142324746Y-126203387D01*
X144072822Y-126203387D01*
X144228844Y-126580989D01*
X144517492Y-126870140D01*
X144894821Y-127026821D01*
X145098866Y-127026999D01*
X145973173Y-127901307D01*
X145972822Y-128303387D01*
X146128844Y-128680989D01*
X146417492Y-128970140D01*
X146794821Y-129126821D01*
X147203387Y-129127178D01*
X147580989Y-128971156D01*
X147870140Y-128682508D01*
X148026821Y-128305179D01*
X148027178Y-127896613D01*
X147871156Y-127519011D01*
X147582508Y-127229860D01*
X147205179Y-127073179D01*
X147201309Y-127073176D01*
X146127001Y-125998868D01*
X146127178Y-125796613D01*
X145971156Y-125419011D01*
X145682508Y-125129860D01*
X145305179Y-124973179D01*
X144896613Y-124972822D01*
X144519011Y-125128844D01*
X144229860Y-125417492D01*
X144073179Y-125794821D01*
X144072822Y-126203387D01*
X142324746Y-126203387D01*
X143014064Y-125514069D01*
X143014067Y-125514067D01*
X143171660Y-125278211D01*
X143227001Y-125000000D01*
X143221595Y-124972822D01*
X143171660Y-124721789D01*
X143014067Y-124485933D01*
X143014064Y-124485931D01*
X138014067Y-119485933D01*
X137778211Y-119328340D01*
X137732052Y-119319158D01*
X137500000Y-119272999D01*
X137267948Y-119319158D01*
X137221789Y-119328340D01*
X136985933Y-119485933D01*
X136828340Y-119721789D01*
X136828340Y-119721790D01*
X136772999Y-120000000D01*
X123227001Y-120000000D01*
X123171660Y-119721789D01*
X123014067Y-119485933D01*
X122778211Y-119328340D01*
X122500000Y-119272999D01*
X122267948Y-119319158D01*
X122221789Y-119328340D01*
X121985933Y-119485933D01*
X121985931Y-119485936D01*
X116985933Y-124485933D01*
X116828340Y-124721790D01*
X116772999Y-125000000D01*
X108834389Y-125000000D01*
X109115013Y-124812493D01*
X109359315Y-124446867D01*
X109442100Y-124030675D01*
X111073218Y-124030675D01*
X111244432Y-124445044D01*
X111561185Y-124762351D01*
X111975255Y-124934288D01*
X112423604Y-124934679D01*
X112837973Y-124763465D01*
X113155280Y-124446712D01*
X113327217Y-124032642D01*
X113327608Y-123584293D01*
X113156394Y-123169924D01*
X112839641Y-122852617D01*
X112425571Y-122680680D01*
X111977222Y-122680289D01*
X111562853Y-122851503D01*
X111245546Y-123168256D01*
X111073609Y-123582326D01*
X111073218Y-124030675D01*
X109442100Y-124030675D01*
X109445102Y-124015583D01*
X109359315Y-123584299D01*
X109115011Y-123218674D01*
X108749386Y-122974372D01*
X108318102Y-122888584D01*
X107886818Y-122974372D01*
X106998240Y-123342434D01*
X106762684Y-123499828D01*
X105865709Y-121307222D01*
X108634074Y-121307222D01*
X108719862Y-121738507D01*
X108964165Y-122104131D01*
X109329790Y-122348434D01*
X109761074Y-122434222D01*
X110192359Y-122348434D01*
X110468650Y-122233990D01*
X110834275Y-121989687D01*
X111078578Y-121624062D01*
X111164365Y-121192778D01*
X111078578Y-120761494D01*
X110834275Y-120395869D01*
X110468649Y-120151566D01*
X110037365Y-120065778D01*
X109606081Y-120151566D01*
X109329789Y-120266010D01*
X108964165Y-120510313D01*
X108719862Y-120875938D01*
X108634074Y-121307222D01*
X105865709Y-121307222D01*
X104717300Y-118500000D01*
X110272999Y-118500000D01*
X110318154Y-118727001D01*
X110328340Y-118778211D01*
X110485933Y-119014067D01*
X114485931Y-123014064D01*
X114485933Y-123014067D01*
X114627319Y-123108537D01*
X114721789Y-123171660D01*
X114767948Y-123180842D01*
X115000000Y-123227001D01*
X115278210Y-123171660D01*
X115514067Y-123014067D01*
X120514064Y-118014069D01*
X120514067Y-118014067D01*
X120671660Y-117778211D01*
X120685136Y-117710464D01*
X120727001Y-117500000D01*
X120671660Y-117221789D01*
X120541507Y-117027000D01*
X123774601Y-117027000D01*
X123917492Y-117170140D01*
X124294821Y-117326821D01*
X124703387Y-117327178D01*
X125080989Y-117171156D01*
X125370140Y-116882508D01*
X125526821Y-116505179D01*
X125526822Y-116503387D01*
X137972822Y-116503387D01*
X138128844Y-116880989D01*
X138417492Y-117170140D01*
X138794821Y-117326821D01*
X139203387Y-117327178D01*
X139316689Y-117280363D01*
X139272999Y-117500000D01*
X139314864Y-117710464D01*
X139328340Y-117778211D01*
X139340395Y-117796252D01*
X139485933Y-118014067D01*
X144485931Y-123014064D01*
X144485933Y-123014067D01*
X144721790Y-123171660D01*
X145000000Y-123227001D01*
X145278211Y-123171660D01*
X145514067Y-123014067D01*
X145514068Y-123014066D01*
X150514064Y-118014069D01*
X150514067Y-118014067D01*
X150671660Y-117778211D01*
X150685136Y-117710464D01*
X150727001Y-117500000D01*
X150671660Y-117221789D01*
X150514067Y-116985933D01*
X150278211Y-116828340D01*
X150000000Y-116772999D01*
X149999995Y-116773000D01*
X140000005Y-116773000D01*
X140000000Y-116772999D01*
X139908014Y-116791297D01*
X140026821Y-116505179D01*
X140026999Y-116301135D01*
X140187430Y-116140704D01*
X140394821Y-116226821D01*
X140803387Y-116227178D01*
X141180989Y-116071156D01*
X141470140Y-115782508D01*
X141626821Y-115405179D01*
X141627178Y-114996613D01*
X141471156Y-114619011D01*
X141182508Y-114329860D01*
X140805179Y-114173179D01*
X140396613Y-114172822D01*
X140019011Y-114328844D01*
X139813861Y-114533638D01*
X139585933Y-114685933D01*
X138998867Y-115272999D01*
X138796613Y-115272822D01*
X138419011Y-115428844D01*
X138129860Y-115717492D01*
X137973179Y-116094821D01*
X137972822Y-116503387D01*
X125526822Y-116503387D01*
X125527178Y-116096613D01*
X125371156Y-115719011D01*
X125082508Y-115429860D01*
X124705179Y-115273179D01*
X124296613Y-115272822D01*
X123919011Y-115428844D01*
X123774604Y-115573000D01*
X119401133Y-115573000D01*
X117727001Y-113898867D01*
X117727178Y-113696613D01*
X117571156Y-113319011D01*
X117282508Y-113029860D01*
X116905179Y-112873179D01*
X116496613Y-112872822D01*
X116119011Y-113028844D01*
X115829860Y-113317492D01*
X115673179Y-113694821D01*
X115672822Y-114103387D01*
X115828844Y-114480989D01*
X116117492Y-114770140D01*
X116494821Y-114926821D01*
X116698866Y-114926999D01*
X118544867Y-116773000D01*
X111000000Y-116773000D01*
X110721789Y-116828340D01*
X110485933Y-116985933D01*
X110328340Y-117221789D01*
X110273000Y-117500000D01*
X110273000Y-118499995D01*
X110272999Y-118500000D01*
X104717300Y-118500000D01*
X104414708Y-117760331D01*
X104665404Y-117710464D01*
X105553982Y-117342402D01*
X105773149Y-117195959D01*
X106931133Y-117195959D01*
X107016921Y-117627244D01*
X107261224Y-117992868D01*
X107626849Y-118237171D01*
X108058133Y-118322959D01*
X108489418Y-118237171D01*
X108765709Y-118122727D01*
X109131334Y-117878424D01*
X109375637Y-117512799D01*
X109461424Y-117081515D01*
X109375637Y-116650231D01*
X109131334Y-116284606D01*
X108765708Y-116040303D01*
X108334424Y-115954515D01*
X107903140Y-116040303D01*
X107626848Y-116154747D01*
X107261224Y-116399050D01*
X107016921Y-116764675D01*
X106931133Y-117195959D01*
X105773149Y-117195959D01*
X105919607Y-117098099D01*
X106163909Y-116732473D01*
X106249696Y-116301189D01*
X106163909Y-115869905D01*
X105919605Y-115504280D01*
X105553980Y-115259978D01*
X105122696Y-115174190D01*
X104691412Y-115259978D01*
X103802834Y-115628040D01*
X103598313Y-115764697D01*
X103172873Y-114724734D01*
X103171976Y-114723379D01*
X103171660Y-114721789D01*
X103093710Y-114605127D01*
X103016313Y-114488190D01*
X103014970Y-114487284D01*
X103014067Y-114485933D01*
X102897434Y-114408001D01*
X102781150Y-114329564D01*
X102779558Y-114329240D01*
X102778211Y-114328340D01*
X102640648Y-114300976D01*
X102503185Y-114273007D01*
X102501594Y-114273316D01*
X102500000Y-114272999D01*
X102362405Y-114300369D01*
X102224734Y-114327127D01*
X102223379Y-114328024D01*
X102221790Y-114328340D01*
X102105233Y-114406220D01*
X101988190Y-114483687D01*
X101987283Y-114485032D01*
X101985934Y-114485933D01*
X95000000Y-121471866D01*
X93528134Y-120000000D01*
X98014064Y-115514069D01*
X98014067Y-115514067D01*
X98171660Y-115278211D01*
X98192351Y-115174190D01*
X98227001Y-115000000D01*
X98171660Y-114721789D01*
X98014067Y-114485933D01*
X97778211Y-114328340D01*
X97500000Y-114272999D01*
X97499995Y-114273000D01*
X92500005Y-114273000D01*
X92500000Y-114272999D01*
X92221790Y-114328339D01*
X92219957Y-114329564D01*
X91985933Y-114485933D01*
X91985931Y-114485936D01*
X87000000Y-119471866D01*
X85528134Y-118000000D01*
X90514064Y-113014069D01*
X90514067Y-113014067D01*
X90671660Y-112778211D01*
X90671661Y-112778210D01*
X90727001Y-112500000D01*
X90671661Y-112221789D01*
X90514067Y-111985933D01*
X90321693Y-111857393D01*
X90360989Y-111841156D01*
X90650140Y-111552508D01*
X90806821Y-111175179D01*
X90806883Y-111103387D01*
X130672822Y-111103387D01*
X130828844Y-111480989D01*
X131117492Y-111770140D01*
X131494821Y-111926821D01*
X131903387Y-111927178D01*
X132202984Y-111803387D01*
X133572822Y-111803387D01*
X133728844Y-112180989D01*
X134017492Y-112470140D01*
X134394821Y-112626821D01*
X134803387Y-112627178D01*
X135180989Y-112471156D01*
X135325396Y-112327000D01*
X135774775Y-112327000D01*
X136017492Y-112570140D01*
X136394821Y-112726821D01*
X136803387Y-112727178D01*
X137180989Y-112571156D01*
X137470140Y-112282508D01*
X137557463Y-112072211D01*
X141622718Y-112072211D01*
X141869892Y-112670418D01*
X142327175Y-113128499D01*
X142924950Y-113376717D01*
X143572211Y-113377282D01*
X144170418Y-113130108D01*
X144628499Y-112672825D01*
X144876717Y-112075050D01*
X144876719Y-112072211D01*
X148122718Y-112072211D01*
X148369892Y-112670418D01*
X148827175Y-113128499D01*
X149424950Y-113376717D01*
X150072211Y-113377282D01*
X150670418Y-113130108D01*
X151128499Y-112672825D01*
X151376717Y-112075050D01*
X151377282Y-111427789D01*
X151325881Y-111303387D01*
X151972822Y-111303387D01*
X152128844Y-111680989D01*
X152417492Y-111970140D01*
X152794821Y-112126821D01*
X153203387Y-112127178D01*
X153580989Y-111971156D01*
X153725396Y-111827000D01*
X154174775Y-111827000D01*
X154417492Y-112070140D01*
X154794821Y-112226821D01*
X155203387Y-112227178D01*
X155580989Y-112071156D01*
X155870140Y-111782508D01*
X156026821Y-111405179D01*
X156027178Y-110996613D01*
X155871156Y-110619011D01*
X155582508Y-110329860D01*
X155205179Y-110173179D01*
X154796613Y-110172822D01*
X154419011Y-110328844D01*
X154374778Y-110373000D01*
X153725399Y-110373000D01*
X153582508Y-110229860D01*
X153205179Y-110073179D01*
X152796613Y-110072822D01*
X152419011Y-110228844D01*
X152129860Y-110517492D01*
X151973179Y-110894821D01*
X151972822Y-111303387D01*
X151325881Y-111303387D01*
X151130108Y-110829582D01*
X150672825Y-110371501D01*
X150075050Y-110123283D01*
X149427789Y-110122718D01*
X148829582Y-110369892D01*
X148371501Y-110827175D01*
X148123283Y-111424950D01*
X148122718Y-112072211D01*
X144876719Y-112072211D01*
X144877282Y-111427789D01*
X144630108Y-110829582D01*
X144172825Y-110371501D01*
X143575050Y-110123283D01*
X142927789Y-110122718D01*
X142329582Y-110369892D01*
X141871501Y-110827175D01*
X141623283Y-111424950D01*
X141622718Y-112072211D01*
X137557463Y-112072211D01*
X137626821Y-111905179D01*
X137627178Y-111496613D01*
X137471156Y-111119011D01*
X137182508Y-110829860D01*
X136805179Y-110673179D01*
X136396613Y-110672822D01*
X136019011Y-110828844D01*
X135974778Y-110873000D01*
X135325399Y-110873000D01*
X135182508Y-110729860D01*
X134805179Y-110573179D01*
X134396613Y-110572822D01*
X134019011Y-110728844D01*
X133729860Y-111017492D01*
X133573179Y-111394821D01*
X133572822Y-111803387D01*
X132202984Y-111803387D01*
X132280989Y-111771156D01*
X132570140Y-111482508D01*
X132726821Y-111105179D01*
X132727178Y-110696613D01*
X132571156Y-110319011D01*
X132427000Y-110174604D01*
X132427000Y-109103387D01*
X133772822Y-109103387D01*
X133928844Y-109480989D01*
X134217492Y-109770140D01*
X134594821Y-109926821D01*
X135003387Y-109927178D01*
X135380989Y-109771156D01*
X135670140Y-109482508D01*
X135826821Y-109105179D01*
X135827178Y-108696613D01*
X135671156Y-108319011D01*
X135527000Y-108174604D01*
X135527000Y-107572211D01*
X141622718Y-107572211D01*
X141869892Y-108170418D01*
X142327175Y-108628499D01*
X142924950Y-108876717D01*
X143572211Y-108877282D01*
X144170418Y-108630108D01*
X144628499Y-108172825D01*
X144876717Y-107575050D01*
X144876719Y-107572211D01*
X148122718Y-107572211D01*
X148369892Y-108170418D01*
X148827175Y-108628499D01*
X149424950Y-108876717D01*
X150072211Y-108877282D01*
X150670418Y-108630108D01*
X151128499Y-108172825D01*
X151376717Y-107575050D01*
X151377282Y-106927789D01*
X151130108Y-106329582D01*
X150672825Y-105871501D01*
X150075050Y-105623283D01*
X149427789Y-105622718D01*
X148829582Y-105869892D01*
X148371501Y-106327175D01*
X148123283Y-106924950D01*
X148122718Y-107572211D01*
X144876719Y-107572211D01*
X144877282Y-106927789D01*
X144630108Y-106329582D01*
X144172825Y-105871501D01*
X143575050Y-105623283D01*
X142927789Y-105622718D01*
X142329582Y-105869892D01*
X141871501Y-106327175D01*
X141623283Y-106924950D01*
X141622718Y-107572211D01*
X135527000Y-107572211D01*
X135527000Y-106001134D01*
X136401132Y-105127001D01*
X136603387Y-105127178D01*
X136980989Y-104971156D01*
X137270140Y-104682508D01*
X137426821Y-104305179D01*
X137427178Y-103896613D01*
X137271156Y-103519011D01*
X136982508Y-103229860D01*
X136605179Y-103073179D01*
X136196613Y-103072822D01*
X135819011Y-103228844D01*
X135529860Y-103517492D01*
X135373179Y-103894821D01*
X135373001Y-104098866D01*
X134285933Y-105185933D01*
X134128340Y-105421789D01*
X134128340Y-105421790D01*
X134072999Y-105700000D01*
X134073000Y-105700005D01*
X134073000Y-108174601D01*
X133929860Y-108317492D01*
X133773179Y-108694821D01*
X133772822Y-109103387D01*
X132427000Y-109103387D01*
X132427000Y-106001134D01*
X134701132Y-103727001D01*
X134903387Y-103727178D01*
X135280989Y-103571156D01*
X135570140Y-103282508D01*
X135726821Y-102905179D01*
X135727175Y-102500000D01*
X139272999Y-102500000D01*
X139312783Y-102700000D01*
X139328340Y-102778211D01*
X139485933Y-103014067D01*
X139721789Y-103171660D01*
X139767948Y-103180842D01*
X140000000Y-103227001D01*
X140000005Y-103227000D01*
X149999995Y-103227000D01*
X150000000Y-103227001D01*
X150278211Y-103171660D01*
X150514067Y-103014067D01*
X150671660Y-102778211D01*
X150727001Y-102500000D01*
X150671660Y-102221790D01*
X150671660Y-102221789D01*
X150514067Y-101985933D01*
X150514064Y-101985931D01*
X145514067Y-96985933D01*
X145278211Y-96828340D01*
X145000000Y-96772999D01*
X144721790Y-96828340D01*
X144485933Y-96985933D01*
X144485931Y-96985936D01*
X139485933Y-101985933D01*
X139328340Y-102221789D01*
X139328340Y-102221790D01*
X139272999Y-102500000D01*
X135727175Y-102500000D01*
X135727178Y-102496613D01*
X135571156Y-102119011D01*
X135282508Y-101829860D01*
X134905179Y-101673179D01*
X134496613Y-101672822D01*
X134119011Y-101828844D01*
X133829860Y-102117492D01*
X133673179Y-102494821D01*
X133673001Y-102698866D01*
X131185933Y-105185933D01*
X131028340Y-105421789D01*
X131028340Y-105421790D01*
X130972999Y-105700000D01*
X130973000Y-105700005D01*
X130973000Y-110174601D01*
X130829860Y-110317492D01*
X130673179Y-110694821D01*
X130672822Y-111103387D01*
X90806883Y-111103387D01*
X90807178Y-110766613D01*
X90651156Y-110389011D01*
X90362508Y-110099860D01*
X89985179Y-109943179D01*
X89576613Y-109942822D01*
X89199011Y-110098844D01*
X89124726Y-110173000D01*
X85335682Y-110173000D01*
X85320563Y-110092648D01*
X85261357Y-110000640D01*
X85313917Y-109923717D01*
X85333503Y-109827000D01*
X87274601Y-109827000D01*
X87417492Y-109970140D01*
X87794821Y-110126821D01*
X88203387Y-110127178D01*
X88580989Y-109971156D01*
X88870140Y-109682508D01*
X89026821Y-109305179D01*
X89027178Y-108896613D01*
X88871156Y-108519011D01*
X88582508Y-108229860D01*
X88575620Y-108227000D01*
X89999995Y-108227000D01*
X90000000Y-108227001D01*
X90278211Y-108171661D01*
X90514067Y-108014067D01*
X90671661Y-107778211D01*
X90727001Y-107500000D01*
X90671661Y-107221790D01*
X90619367Y-107143527D01*
X90514067Y-106985933D01*
X90514064Y-106985931D01*
X85528134Y-102000000D01*
X87000000Y-100528134D01*
X91985931Y-105514064D01*
X91985933Y-105514067D01*
X92061243Y-105564387D01*
X92221790Y-105671661D01*
X92500000Y-105727001D01*
X92500005Y-105727000D01*
X97499995Y-105727000D01*
X97500000Y-105727001D01*
X97778211Y-105671660D01*
X98014067Y-105514067D01*
X98171660Y-105278211D01*
X98227001Y-105000000D01*
X98171660Y-104721790D01*
X98171660Y-104721789D01*
X98014067Y-104485933D01*
X98014064Y-104485931D01*
X93528134Y-100000000D01*
X95000000Y-98528134D01*
X101985931Y-105514064D01*
X101985933Y-105514067D01*
X102221789Y-105671660D01*
X102267948Y-105680842D01*
X102500000Y-105727001D01*
X102500005Y-105727000D01*
X105000000Y-105727000D01*
X105278211Y-105671660D01*
X105514067Y-105514067D01*
X105671660Y-105278211D01*
X105706434Y-105103387D01*
X120072822Y-105103387D01*
X120228844Y-105480989D01*
X120517492Y-105770140D01*
X120880686Y-105920952D01*
X121479865Y-106520130D01*
X121479867Y-106520133D01*
X121728006Y-106685933D01*
X121764387Y-106710242D01*
X122100000Y-106777001D01*
X122100005Y-106777000D01*
X122134013Y-106777000D01*
X122494821Y-106926821D01*
X122903387Y-106927178D01*
X123021538Y-106878359D01*
X122973179Y-106994821D01*
X122972822Y-107403387D01*
X123128844Y-107780989D01*
X123417492Y-108070140D01*
X123794821Y-108226821D01*
X124048910Y-108227043D01*
X124160931Y-108339064D01*
X124160933Y-108339067D01*
X125022999Y-109201132D01*
X125022822Y-109403387D01*
X125178844Y-109780989D01*
X125467492Y-110070140D01*
X125844821Y-110226821D01*
X126253387Y-110227178D01*
X126630989Y-110071156D01*
X126920140Y-109782508D01*
X127076821Y-109405179D01*
X127077178Y-108996613D01*
X126921156Y-108619011D01*
X126632508Y-108329860D01*
X126255179Y-108173179D01*
X126051134Y-108173001D01*
X125189067Y-107310933D01*
X125189064Y-107310931D01*
X125027045Y-107148912D01*
X125027178Y-106996613D01*
X124871156Y-106619011D01*
X124582508Y-106329860D01*
X124205179Y-106173179D01*
X123796613Y-106172822D01*
X123678462Y-106221641D01*
X123726821Y-106105179D01*
X123727178Y-105696613D01*
X123571156Y-105319011D01*
X123282508Y-105029860D01*
X122905179Y-104873179D01*
X122496613Y-104872822D01*
X122366747Y-104926482D01*
X122120347Y-104680082D01*
X122098342Y-104626824D01*
X122503387Y-104627178D01*
X122880989Y-104471156D01*
X122912033Y-104440167D01*
X127672999Y-109201133D01*
X127672822Y-109403387D01*
X127828844Y-109780989D01*
X128117492Y-110070140D01*
X128494821Y-110226821D01*
X128903387Y-110227178D01*
X129280989Y-110071156D01*
X129570140Y-109782508D01*
X129726821Y-109405179D01*
X129727178Y-108996613D01*
X129571156Y-108619011D01*
X129282508Y-108329860D01*
X128905179Y-108173179D01*
X128701135Y-108173001D01*
X123614067Y-103085933D01*
X123594445Y-103072822D01*
X123378211Y-102928340D01*
X123332052Y-102919158D01*
X123100000Y-102872999D01*
X123099995Y-102873000D01*
X123025399Y-102873000D01*
X122882508Y-102729860D01*
X122505179Y-102573179D01*
X122096613Y-102572822D01*
X121719011Y-102728844D01*
X121429860Y-103017492D01*
X121273179Y-103394821D01*
X121272822Y-103803387D01*
X121301658Y-103873176D01*
X120896613Y-103872822D01*
X120519011Y-104028844D01*
X120229860Y-104317492D01*
X120073179Y-104694821D01*
X120072822Y-105103387D01*
X105706434Y-105103387D01*
X105727000Y-105000000D01*
X105727000Y-102500000D01*
X109272999Y-102500000D01*
X109312783Y-102700000D01*
X109328340Y-102778211D01*
X109485933Y-103014067D01*
X109721789Y-103171660D01*
X109767948Y-103180842D01*
X110000000Y-103227001D01*
X110000005Y-103227000D01*
X119999995Y-103227000D01*
X120000000Y-103227001D01*
X120278211Y-103171660D01*
X120514067Y-103014067D01*
X120671660Y-102778211D01*
X120727001Y-102500000D01*
X120671660Y-102221790D01*
X120671660Y-102221789D01*
X120514067Y-101985933D01*
X120514064Y-101985931D01*
X115514067Y-96985933D01*
X115278211Y-96828340D01*
X115000000Y-96772999D01*
X114721790Y-96828340D01*
X114485933Y-96985933D01*
X114485931Y-96985936D01*
X109485933Y-101985933D01*
X109328340Y-102221789D01*
X109328340Y-102221790D01*
X109272999Y-102500000D01*
X105727000Y-102500000D01*
X105727000Y-100301134D01*
X109514064Y-96514069D01*
X109514067Y-96514067D01*
X109608537Y-96372681D01*
X109671660Y-96278211D01*
X109727000Y-96000000D01*
X109671660Y-95721790D01*
X109671660Y-95721789D01*
X109514067Y-95485933D01*
X109028134Y-95000000D01*
X116772999Y-95000000D01*
X116828340Y-95278210D01*
X116985933Y-95514067D01*
X121985931Y-100514064D01*
X121985933Y-100514067D01*
X122221789Y-100671660D01*
X122267948Y-100680842D01*
X122500000Y-100727001D01*
X122778211Y-100671660D01*
X123014067Y-100514067D01*
X123171660Y-100278211D01*
X123227001Y-100000000D01*
X123227000Y-99999995D01*
X123227000Y-90000005D01*
X123227001Y-90000000D01*
X136772999Y-90000000D01*
X136773000Y-90000005D01*
X136773000Y-99999995D01*
X136772999Y-100000000D01*
X136819158Y-100232052D01*
X136828340Y-100278211D01*
X136985933Y-100514067D01*
X137221789Y-100671660D01*
X137267948Y-100680842D01*
X137500000Y-100727001D01*
X137732052Y-100680842D01*
X137778211Y-100671660D01*
X138014067Y-100514067D01*
X138014068Y-100514066D01*
X143014064Y-95514069D01*
X143014067Y-95514067D01*
X143171660Y-95278211D01*
X143227001Y-95000000D01*
X143171660Y-94721789D01*
X143014067Y-94485933D01*
X143014064Y-94485931D01*
X138014067Y-89485933D01*
X137778211Y-89328340D01*
X137732052Y-89319158D01*
X137500000Y-89272999D01*
X137267948Y-89319158D01*
X137221789Y-89328340D01*
X136985933Y-89485933D01*
X136828340Y-89721789D01*
X136827303Y-89727001D01*
X136772999Y-90000000D01*
X123227001Y-90000000D01*
X123171660Y-89721789D01*
X123014067Y-89485933D01*
X122778211Y-89328340D01*
X122500000Y-89272999D01*
X122267948Y-89319158D01*
X122221789Y-89328340D01*
X121985933Y-89485933D01*
X121985931Y-89485936D01*
X116985933Y-94485933D01*
X116828340Y-94721790D01*
X116772999Y-95000000D01*
X109028134Y-95000000D01*
X107514067Y-93485933D01*
X107278211Y-93328340D01*
X107232052Y-93319158D01*
X107000000Y-93272999D01*
X106999995Y-93273000D01*
X96727000Y-93273000D01*
X96727000Y-90727000D01*
X103000000Y-90727000D01*
X103278211Y-90671660D01*
X103514067Y-90514067D01*
X103671660Y-90278211D01*
X103727000Y-90000000D01*
X103671660Y-89721789D01*
X103514067Y-89485933D01*
X103514064Y-89485931D01*
X99514067Y-85485933D01*
X99460289Y-85450000D01*
X99278211Y-85328340D01*
X99232052Y-85319158D01*
X99000000Y-85272999D01*
X98999995Y-85273000D01*
X92227000Y-85273000D01*
X92227000Y-82727000D01*
X98999995Y-82727000D01*
X99000000Y-82727001D01*
X99278211Y-82671660D01*
X99514067Y-82514067D01*
X99671660Y-82278211D01*
X99727001Y-82000000D01*
X99688987Y-81808894D01*
X99924821Y-81906821D01*
X100333387Y-81907178D01*
X100710989Y-81751156D01*
X101000140Y-81462508D01*
X101156821Y-81085179D01*
X101157178Y-80676613D01*
X101001156Y-80299011D01*
X100712508Y-80009860D01*
X100382866Y-79872980D01*
X100717385Y-79734760D01*
X101006536Y-79446112D01*
X101127255Y-79155388D01*
X101485931Y-79514064D01*
X101485933Y-79514067D01*
X101721789Y-79671660D01*
X101763048Y-79679867D01*
X102000000Y-79727001D01*
X102278211Y-79671660D01*
X102514067Y-79514067D01*
X102671660Y-79278211D01*
X102727001Y-79000000D01*
X102727000Y-78999995D01*
X102727000Y-72227000D01*
X105273000Y-72227000D01*
X105273000Y-78999995D01*
X105272999Y-79000000D01*
X105301209Y-79141815D01*
X105328340Y-79278211D01*
X105433726Y-79435933D01*
X105485933Y-79514067D01*
X109485931Y-83514064D01*
X109485933Y-83514067D01*
X109721789Y-83671660D01*
X110000000Y-83727000D01*
X110278211Y-83671660D01*
X110514067Y-83514067D01*
X110671660Y-83278211D01*
X110727000Y-83000000D01*
X110727000Y-76727000D01*
X113273000Y-76727000D01*
X113273000Y-86999995D01*
X113272999Y-87000000D01*
X113303867Y-87155179D01*
X113328340Y-87278211D01*
X113473965Y-87496156D01*
X113485933Y-87514067D01*
X115485933Y-89514067D01*
X115721789Y-89671660D01*
X115767948Y-89680842D01*
X116000000Y-89727001D01*
X116278210Y-89671660D01*
X116514067Y-89514067D01*
X119199746Y-86828387D01*
X125197822Y-86828387D01*
X125353844Y-87205989D01*
X125642492Y-87495140D01*
X126019821Y-87651821D01*
X126052165Y-87651849D01*
X126052657Y-87652178D01*
X126214386Y-87760242D01*
X126550000Y-87827000D01*
X126709013Y-87827000D01*
X127069821Y-87976821D01*
X127478387Y-87977178D01*
X127490408Y-87972211D01*
X128372718Y-87972211D01*
X128619892Y-88570418D01*
X129077175Y-89028499D01*
X129674950Y-89276717D01*
X130322211Y-89277282D01*
X130920418Y-89030108D01*
X131378499Y-88572825D01*
X131626717Y-87975050D01*
X131627282Y-87327789D01*
X131380108Y-86729582D01*
X130922825Y-86271501D01*
X130325050Y-86023283D01*
X129677789Y-86022718D01*
X129079582Y-86269892D01*
X128621501Y-86727175D01*
X128373283Y-87324950D01*
X128372718Y-87972211D01*
X127490408Y-87972211D01*
X127855989Y-87821156D01*
X128145140Y-87532508D01*
X128301821Y-87155179D01*
X128301860Y-87110404D01*
X128385242Y-86985613D01*
X128452000Y-86650000D01*
X128452000Y-86246901D01*
X128510613Y-86235242D01*
X128795133Y-86045133D01*
X129820133Y-85020133D01*
X130010242Y-84735613D01*
X130077001Y-84400000D01*
X130077000Y-84399995D01*
X130077000Y-81950000D01*
X130010242Y-81614387D01*
X130010242Y-81614386D01*
X129907745Y-81460989D01*
X129820133Y-81329867D01*
X129820130Y-81329865D01*
X129158702Y-80668436D01*
X129176717Y-80625050D01*
X129177282Y-79977789D01*
X128930108Y-79379582D01*
X128472825Y-78921501D01*
X127938817Y-78699761D01*
X128470418Y-78480108D01*
X128928499Y-78022825D01*
X129176717Y-77425050D01*
X129176719Y-77422211D01*
X130922718Y-77422211D01*
X131169892Y-78020418D01*
X131627175Y-78478499D01*
X132161183Y-78700239D01*
X131629582Y-78919892D01*
X131171501Y-79377175D01*
X130923283Y-79974950D01*
X130922718Y-80622211D01*
X131169892Y-81220418D01*
X131627175Y-81678499D01*
X132161183Y-81900239D01*
X131629582Y-82119892D01*
X131171501Y-82577175D01*
X130923283Y-83174950D01*
X130922718Y-83822211D01*
X131169892Y-84420418D01*
X131627175Y-84878499D01*
X132224950Y-85126717D01*
X132872211Y-85127282D01*
X133470418Y-84880108D01*
X133928499Y-84422825D01*
X134176717Y-83825050D01*
X134177282Y-83177789D01*
X133930108Y-82579582D01*
X133472825Y-82121501D01*
X132938817Y-81899761D01*
X133470418Y-81680108D01*
X133928499Y-81222825D01*
X134176717Y-80625050D01*
X134177282Y-79977789D01*
X133930108Y-79379582D01*
X133472825Y-78921501D01*
X132938817Y-78699761D01*
X133470418Y-78480108D01*
X133928499Y-78022825D01*
X134176717Y-77425050D01*
X134177282Y-76777789D01*
X133930108Y-76179582D01*
X133472825Y-75721501D01*
X132875050Y-75473283D01*
X132227789Y-75472718D01*
X131629582Y-75719892D01*
X131171501Y-76177175D01*
X130923283Y-76774950D01*
X130922718Y-77422211D01*
X129176719Y-77422211D01*
X129177282Y-76777789D01*
X128930108Y-76179582D01*
X128472825Y-75721501D01*
X127875050Y-75473283D01*
X127227789Y-75472718D01*
X126629582Y-75719892D01*
X126171501Y-76177175D01*
X125923283Y-76774950D01*
X125922718Y-77422211D01*
X126169892Y-78020418D01*
X126627175Y-78478499D01*
X127161183Y-78700239D01*
X126629582Y-78919892D01*
X126171501Y-79377175D01*
X125923283Y-79974950D01*
X125922718Y-80622211D01*
X126169892Y-81220418D01*
X126627175Y-81678499D01*
X127161183Y-81900239D01*
X126629582Y-82119892D01*
X126171501Y-82577175D01*
X125923283Y-83174950D01*
X125922718Y-83822211D01*
X126169892Y-84420418D01*
X126593891Y-84845157D01*
X126354867Y-85004867D01*
X125604867Y-85754867D01*
X125528510Y-85869144D01*
X125354860Y-86042492D01*
X125198179Y-86419821D01*
X125197822Y-86828387D01*
X119199746Y-86828387D01*
X120301133Y-85727000D01*
X125000000Y-85727000D01*
X125278211Y-85671660D01*
X125514067Y-85514067D01*
X125671660Y-85278211D01*
X125727000Y-85000000D01*
X125727000Y-82500005D01*
X125727001Y-82500000D01*
X125671660Y-82221790D01*
X125671660Y-82221789D01*
X125514067Y-81985933D01*
X125514064Y-81985931D01*
X118528134Y-75000000D01*
X120000000Y-73528134D01*
X124485931Y-78014064D01*
X124485933Y-78014067D01*
X124721789Y-78171660D01*
X124767948Y-78180842D01*
X125000000Y-78227001D01*
X125278211Y-78171660D01*
X125514067Y-78014067D01*
X125671660Y-77778211D01*
X125727001Y-77500000D01*
X125727000Y-77499995D01*
X125727000Y-72500005D01*
X125727001Y-72500000D01*
X125671661Y-72221790D01*
X125532865Y-72014067D01*
X125514067Y-71985933D01*
X125514064Y-71985931D01*
X120528134Y-67000000D01*
X122000000Y-65528134D01*
X126985931Y-70514064D01*
X126985933Y-70514067D01*
X127143527Y-70619367D01*
X127221790Y-70671661D01*
X127500000Y-70727001D01*
X127778211Y-70671661D01*
X127952831Y-70554983D01*
X128237492Y-70840140D01*
X128614821Y-70996821D01*
X129023387Y-70997178D01*
X129400989Y-70841156D01*
X129690140Y-70552508D01*
X129846821Y-70175179D01*
X129847178Y-69766613D01*
X129727000Y-69475760D01*
X129727000Y-65335682D01*
X129807352Y-65320563D01*
X129899360Y-65261357D01*
X129976283Y-65313917D01*
M02*
